<svg width="105" height="105" viewBox="0 0 105 105" fill="none" xmlns="http://www.w3.org/2000/svg">
<g clip-path="url(#clip0_463_24)">
<path d="M12.6296 92.3973H93.1315C92.3231 91.5496 91.6512 90.8462 91.0423 90.2085C92.4964 88.7598 93.9005 87.3583 95.2365 86.0251C98.3965 89.1167 101.64 92.2897 105 95.5755C101.727 98.7249 98.5015 101.83 95.2128 104.997C93.7404 103.672 92.3573 102.428 90.7983 101.024C91.6749 100.365 92.4439 99.7904 93.2103 99.2157L92.9242 98.7459H6.33842V9.75517C5.32008 10.5373 4.54582 11.1278 3.64033 11.8233C2.44351 10.2512 1.26768 8.70801 0 7.03884C3.1784 4.66632 6.24656 2.37253 9.42496 0C12.5929 2.31479 15.7555 4.62695 19.0415 7.02572C17.7397 8.65552 16.5009 10.2066 15.2201 11.8101C14.3461 11.1488 13.5666 10.5609 12.6296 9.85228V92.3999V92.3973Z" fill="#176B87"/>
<path d="M22.6061 47.9071H23.8135C49.5399 47.9071 75.2636 47.915 100.99 47.8809C101.995 47.8809 102.486 48.1381 102.67 49.1301C103.05 51.1772 103.491 53.2138 103.945 55.4393C103.218 55.4393 102.838 55.4393 102.457 55.4393C95.4285 55.4393 88.3998 55.4525 81.3711 55.421C80.5994 55.4184 80.1559 55.6808 79.7176 56.2975C72.3241 66.7115 64.9122 77.1096 57.4845 87.4947C57.2509 87.8201 56.7916 88.1823 56.4321 88.1875C52.5109 88.2374 48.5871 88.219 44.4455 88.219C49.9125 77.2724 55.3192 66.4543 60.7915 55.4945C60.2902 55.4708 59.9202 55.442 59.5527 55.442C52.4532 55.4393 45.351 55.4787 38.2514 55.4262C32.3618 55.3842 27.3488 53.2269 23.3043 48.9018C23.1337 48.7207 22.971 48.5291 22.8161 48.3349C22.7557 48.2588 22.7269 48.1564 22.6035 47.9071H22.6061Z" fill="#176B87"/>
<path d="M76.0136 35.3647C76.0136 37.8632 76.0136 40.2778 76.0136 42.834C75.5963 42.834 75.2184 42.834 74.8404 42.834C56.7595 42.834 38.676 42.8261 20.5951 42.855C19.6843 42.855 19.309 42.5768 19.036 41.7186C18.3851 39.6636 18.0649 37.5772 18.002 35.3647C37.3637 35.3647 56.6388 35.3647 76.0136 35.3647Z" fill="#176B87"/>
<path d="M44.5322 2.51682C45.9023 2.51682 47.17 2.51682 48.4403 2.51682C51.0465 2.51682 53.6501 2.4932 56.2537 2.54307C56.6395 2.55094 57.1645 2.78977 57.3823 3.09421C63.7417 11.9676 70.0723 20.8593 76.4054 29.751C76.4868 29.8639 76.5419 29.9977 76.6679 30.2365C76.3477 30.2759 76.0905 30.3336 75.8359 30.3336C70.3059 30.3389 64.7732 30.3336 59.2431 30.3468C58.6631 30.3468 58.2878 30.2444 57.9912 29.646C53.5819 20.7674 49.141 11.9046 44.7107 3.03647C44.653 2.91837 44.6241 2.78452 44.5322 2.51945V2.51682Z" fill="#176B87"/>
<path d="M32.8843 30.2785C27.9264 30.2785 23.0236 30.2785 18.0684 30.2785C18.0684 26.956 18.0684 23.6937 18.0684 20.2793C19.0605 20.2793 20.0394 20.2793 21.021 20.2793C23.1234 20.2793 25.223 20.2662 27.3227 20.3082C27.6482 20.3134 28.139 20.4919 28.265 20.7386C29.8397 23.8092 31.362 26.9061 32.8948 30.0003C32.921 30.0528 32.8921 30.1342 32.8843 30.2785Z" fill="#176B87"/>
<path d="M99.2236 42.7814C93.0532 42.7814 87.1478 42.7814 81.1689 42.7814V35.3462C88.3262 34.9106 94.3471 37.0994 99.2236 42.7814Z" fill="#176B87"/>
</g>
<defs>
<clipPath id="clip0_463_24">
<rect width="105" height="105" fill="white"/>
</clipPath>
</defs>
</svg>
