<svg width="50" height="50" viewBox="0 0 50 50" fill="none" xmlns="http://www.w3.org/2000/svg">
<circle cx="25" cy="25" r="25" fill="#E0F6F9"/>
<path d="M25.952 33H22.472L21.512 30.048H15.776L14.84 33H11.36L16.832 17.352C17.072 16.808 17.336 16.432 17.624 16.224C17.928 16.016 18.296 15.912 18.728 15.912C19.16 15.912 19.504 16.008 19.76 16.2C20.032 16.392 20.272 16.776 20.48 17.352L25.952 33ZM20.744 27.24L18.728 20.472L16.616 27.24H20.744ZM36.7207 33H29.2567C28.4407 33 27.8087 32.832 27.3607 32.496C26.9287 32.144 26.7127 31.656 26.7127 31.032C26.7127 30.408 26.9767 29.752 27.5047 29.064L33.2167 21.984H27.5047V19.296H36.9607V21.672L30.1447 30.312H36.7207V33Z" fill="#176B87"/>
</svg>
