<svg width="138" height="138" viewBox="0 0 138 138" fill="none" xmlns="http://www.w3.org/2000/svg">
<circle cx="69" cy="69" r="69" fill="#176B87"/>
<path d="M69.1154 109.687C60.9402 109.687 52.7674 109.682 44.5922 109.687C40.0841 109.692 37.0603 106.746 37.0278 102.254C37.0027 98.6917 36.9852 95.132 37.0178 91.5697C37.1004 82.7798 44.0015 75.1656 52.8651 74.5193C58.2994 74.124 63.7812 74.3105 69.2405 74.2707C73.7862 74.2384 78.3319 74.2583 82.8801 74.2583C93.2906 74.2583 101.055 82.0017 101.018 92.3354C101.005 95.8131 101.028 99.2933 101.013 102.771C100.995 106.649 97.9464 109.679 94.0115 109.689C85.7136 109.709 77.4132 109.694 69.1154 109.694V109.684V109.687Z" fill="#E0F6F9"/>
<path d="M69.025 67.4172C56.9274 67.3003 47.6282 57.9486 47.6858 45.9518C47.7434 34.1913 57.398 24.8843 69.4205 25.0011C80.9899 25.113 90.4918 34.7133 90.4242 46.2228C90.3541 58.0331 80.7672 67.529 69.025 67.4172Z" fill="#E0F6F9"/>
<path d="M83 43.233V50.1699H72.5878V60.7014H65.4122V50.1699H55V43.233H65.4122V32.7014H72.5878V43.233H83Z" fill="#176B87"/>
</svg>
