<svg width="89" height="82" viewBox="0 0 89 82" fill="none" xmlns="http://www.w3.org/2000/svg">
<path fill-rule="evenodd" clip-rule="evenodd" d="M87.4961 8.87392C89.6148 11.1632 89.4785 14.7385 87.1916 16.8595L44.5427 56.415C42.291 58.5035 38.7849 58.4077 36.6502 56.1995L17.8345 36.7357C15.6665 34.4931 15.7251 30.9157 17.9654 28.7453C20.2056 26.575 23.7791 26.6337 25.9471 28.8763L40.9218 44.3669L79.5191 8.56912C81.8059 6.44812 85.3774 6.58458 87.4961 8.87392Z" fill="white"/>
<path fill-rule="evenodd" clip-rule="evenodd" d="M74.873 40.9683C74.873 59.6933 59.6933 74.873 40.9683 74.873C22.2432 74.873 7.06349 59.6933 7.06349 40.9683C7.06349 22.2432 22.2432 7.06349 40.9683 7.06349C49.8952 7.06349 58.0163 10.5135 64.0711 16.1529L69.2615 11.339C61.9071 4.31419 51.9415 0 40.9683 0C18.3421 0 0 18.3421 0 40.9683C0 63.5944 18.3421 81.9365 40.9683 81.9365C63.5944 81.9365 81.9365 63.5944 81.9365 40.9683C81.9365 37.1272 81.4079 33.4095 80.4194 29.8841L74.4252 35.4436C74.7198 37.2415 74.873 39.087 74.873 40.9683Z" fill="white"/>
</svg>
