<svg width="60" height="60" viewBox="0 0 60 60" fill="none" xmlns="http://www.w3.org/2000/svg">
<path d="M47.5 0H12.5C5.59667 0 0 5.59667 0 12.5V47.5C0 54.4033 5.59667 60 12.5 60H47.5C54.4033 60 60 54.4033 60 47.5V12.5C60 5.59667 54.4033 0 47.5 0ZM49.82 16.5633C49.72 17.5217 49.485 18.4467 49.0067 19.29C48.7483 19.745 48.32 19.9883 47.7967 20.0217C47.3783 20.0483 46.9583 20.0533 46.54 20.055C45.4883 20.06 44.4383 20.0533 43.3867 20.06C43.1867 20.06 42.985 20.0917 42.7883 20.135C42.085 20.2883 41.5333 21.0367 41.5517 21.7267C41.5667 22.305 41.55 22.885 41.5283 23.465C41.5 24.2467 40.8567 24.9333 40.075 24.99C39.5233 25.03 38.9683 25.01 38.415 25.0283C38.215 25.035 38.0133 25.0617 37.8167 25.1033C37.0783 25.2633 36.5633 26.0533 36.58 26.6967C36.6 27.42 36.585 28.145 36.585 28.87C36.5783 28.87 36.57 28.87 36.5633 28.87C36.5633 29.595 36.5817 30.32 36.5583 31.0433C36.53 31.9617 36.1567 32.7433 35.515 33.395C35.225 33.69 34.9283 33.98 34.6267 34.2633C34.5383 34.3467 34.5233 34.4233 34.545 34.5367C34.6417 35.0183 34.75 35.4967 34.815 35.9833C34.9233 36.79 34.9233 37.6 34.8733 38.4133C34.8267 39.1817 34.6567 39.9267 34.485 40.67C34.3367 41.3117 34.0883 41.9183 33.8167 42.5167C33.445 43.335 32.9967 44.1083 32.4667 44.83C31.8317 45.6917 31.0867 46.4517 30.2617 47.1367C29.3783 47.87 28.3933 48.44 27.3367 48.87C26.355 49.2683 25.3417 49.58 24.2883 49.7433C23.4967 49.865 22.7 49.8717 21.9033 49.82C21.3367 49.7833 20.7683 49.7383 20.2083 49.6467C18.735 49.4033 17.3867 48.8067 16.115 48.0533C14.795 47.2717 13.66 46.2617 12.7267 45.0383C11.89 43.94 11.2317 42.7383 10.7867 41.435C10.4683 40.5017 10.2367 39.5383 10.1883 38.5467C10.1567 37.9133 10.1317 37.275 10.1633 36.6417C10.2383 35.2 10.5917 33.8133 11.1533 32.4883C11.7683 31.04 12.6717 29.78 13.7867 28.6683C14.2533 28.2017 14.745 27.7717 15.2817 27.3883C16.3233 26.645 17.4383 26.035 18.665 25.665C20.2983 25.1717 21.965 24.93 23.6733 25.125C24.2667 25.1933 24.855 25.3167 25.4433 25.425C25.5683 25.4483 25.6367 25.4183 25.7233 25.33C26.1467 24.89 26.5783 24.4567 27.01 24.025C30.615 20.42 34.2183 16.8133 37.8283 13.215C38.355 12.69 38.8983 12.1783 39.465 11.6933C40.3667 10.92 41.4483 10.5233 42.5983 10.29C43.745 10.0567 44.875 10.1333 45.985 10.475C46.2833 10.5667 46.5683 10.7167 46.84 10.875C47.3033 11.1467 47.755 11.4333 48.1417 11.8183C48.505 12.18 48.8133 12.5833 49.07 13.0167C49.3467 13.4833 49.5283 13.995 49.6683 14.5233C49.8467 15.1983 49.8933 15.88 49.8217 16.5683L49.82 16.5633Z" fill="#176B87"/>
<path d="M19.2134 38.2982C17.8034 38.2865 16.7167 39.3332 16.6984 40.7749C16.6817 42.1099 17.9017 43.2765 19.2067 43.2532C20.6267 43.2282 21.5967 42.2282 21.6801 40.8615C21.6884 39.2615 20.6301 38.3099 19.2134 38.2999V38.2982Z" fill="#176B87"/>
</svg>
