<?xml version="1.0" encoding="utf-8"?>
<!-- Generator: Adobe Illustrator 27.3.1, SVG Export Plug-In . SVG Version: 6.00 Build 0)  -->
<svg version="1.1" id="Camada_1" xmlns="http://www.w3.org/2000/svg" xmlns:xlink="http://www.w3.org/1999/xlink" x="0px" y="0px"
	 viewBox="0 0 60 60" style="enable-background:new 0 0 60 60;" xml:space="preserve">
<style type="text/css">
	.st0{fill:#176B87;}
</style>
<g>
	<path class="st0" d="M29.5,20.9c-4.9,0.2-8.8,4.3-8.7,9.2c0,4.9,4.2,9.2,9.6,8.9c4.8-0.2,8.9-4.3,8.7-9.5
		C38.9,24.8,34.9,20.7,29.5,20.9z"/>
	<path class="st0" d="M47.5,0h-35C5.6,0,0,5.6,0,12.5v35C0,54.4,5.6,60,12.5,60h35C54.4,60,60,54.4,60,47.5v-35
		C60,5.6,54.4,0,47.5,0z M51.1,33.9c-1.5,0.4-3.1,0.8-4.6,1.1c-0.2,0-0.3,0.1-0.4,0.3c-0.3,0.7-0.6,1.5-0.9,2.2
		c-0.1,0.2-0.1,0.4,0,0.6c0.7,1.1,1.3,2.2,2,3.3c0.1,0.1,0.1,0.2,0.2,0.4c0.3,0.6,0.2,1.1-0.3,1.6c-0.8,0.8-1.6,1.6-2.4,2.4
		c-0.4,0.4-0.8,0.8-1.2,1.2c-0.5,0.4-0.9,0.5-1.5,0.2c-0.1,0-0.2-0.1-0.2-0.1c-1.2-0.7-2.3-1.4-3.5-2c-0.2-0.1-0.3-0.1-0.4,0
		c-0.9,0.4-1.7,0.7-2.6,1.1c-0.1,0-0.2,0.2-0.2,0.3c-0.3,1.4-0.7,2.7-1,4.1c0,0.2-0.1,0.3-0.1,0.5c-0.2,0.9-0.7,1.3-1.6,1.3
		c-1.5,0-3.1,0-4.6,0c-0.1,0-0.2,0-0.4,0c-0.6-0.1-1-0.4-1.2-1.1c-0.2-0.9-0.4-1.7-0.7-2.6c-0.2-0.7-0.4-1.5-0.5-2.2
		c0-0.1-0.1-0.2-0.3-0.3c-0.8-0.3-1.6-0.6-2.4-1c-0.2-0.1-0.3-0.1-0.5,0c-1.1,0.7-2.2,1.3-3.3,2c-0.1,0.1-0.3,0.2-0.5,0.2
		c-0.5,0.2-1,0.1-1.4-0.2c-0.3-0.2-0.5-0.5-0.8-0.8c-1-0.9-1.9-1.9-2.9-2.8c-0.3-0.3-0.5-0.6-0.5-1c0-0.3,0.1-0.6,0.3-0.9
		c0.6-1.1,1.3-2.1,1.9-3.1c0.2-0.3,0.2-0.5,0.1-0.8c-0.3-0.7-0.6-1.5-0.9-2.2c-0.1-0.2-0.1-0.2-0.3-0.3c-1.6-0.4-3.1-0.8-4.7-1.1
		c-0.6-0.1-1-0.4-1.2-1c0-0.2-0.1-0.4-0.1-0.6c0-1.5,0-3,0-4.5c0-0.2,0-0.4,0.1-0.6c0.1-0.6,0.5-0.9,1-1c1.5-0.4,2.9-0.7,4.4-1.1
		c0.5-0.1,0.7-0.3,0.9-0.8c0.2-0.6,0.5-1.2,0.7-1.8c0.1-0.1,0.1-0.2,0-0.3c-0.8-1.3-1.6-2.6-2.4-3.9c-0.4-0.7-0.4-1.2,0.2-1.8
		c1.2-1.2,2.3-2.3,3.5-3.5c0.6-0.6,1.1-0.6,1.8-0.2c1.3,0.7,2.6,1.5,3.8,2.3c0.1,0.1,0.2,0.1,0.3,0c0.9-0.4,1.8-0.7,2.7-1.1
		c0.1,0,0.1-0.1,0.2-0.2c0.4-1.6,0.8-3.1,1.2-4.7c0.2-0.8,0.7-1.2,1.5-1.2c1.6,0,3.1,0,4.7,0c0.9,0,1.4,0.3,1.6,1.2
		c0.4,1.5,0.8,3,1.1,4.6c0.1,0.2,0.2,0.3,0.4,0.4c0.8,0.3,1.5,0.6,2.3,0.9c0.2,0.1,0.3,0.1,0.5,0c1.2-0.7,2.4-1.4,3.6-2.1
		c0.7-0.4,1.2-0.4,1.8,0.2c1.2,1.2,2.4,2.4,3.6,3.6c0.5,0.5,0.6,1.1,0.2,1.7c-0.7,1.2-1.4,2.4-2.2,3.6c-0.1,0.1-0.1,0.2,0,0.4
		c0.3,0.8,0.7,1.6,1,2.4c0.1,0.1,0.1,0.2,0.3,0.3c1.6,0.4,3.1,0.8,4.7,1.1c0.9,0.2,1.2,0.7,1.2,1.5c0,1.6,0,3.2,0,4.7
		C52.3,33.2,51.9,33.7,51.1,33.9z"/>
</g>
</svg>
