<?xml version="1.0" encoding="UTF-8"?>
<svg id="Camada_1" data-name="Camada 1" xmlns="http://www.w3.org/2000/svg" viewBox="0 0 400.18 400.18">
  <defs>
    <style>
      .cls-1 {
        fill: #176b87;
      }
    </style>
  </defs>
  <path class="cls-1" d="m181.23,187.43c3.36.07,6.12-2.56,6.24-5.93.12-3.49-2.67-6.36-6.16-6.33-3.36.02-6.07,2.73-6.09,6.09-.02,3.35,2.66,6.1,6.01,6.16Z"/>
  <path class="cls-1" d="m219.08,212.7c-3.36-.11-6.16,2.47-6.32,5.83-.17,3.5,2.57,6.38,6.07,6.41,3.39.03,6.09-2.61,6.16-6,.07-3.37-2.54-6.13-5.92-6.24Z"/>
  <path class="cls-1" d="m308.73,0H91.45C40.95,0,0,40.95,0,91.45v217.27c0,50.51,40.95,91.45,91.45,91.45h217.27c50.51,0,91.45-40.95,91.45-91.45V91.45c0-50.51-40.95-91.45-91.45-91.45Zm-8.62,230.86c-.17,3.95-2.47,6.52-5.93,6.7-3.41.18-6.18-2.58-6.5-6.53-.09-1.1-.04-2.2-.04-3.31,0-31.53-.05-63.07.03-94.6.02-8.52-3.13-15.1-10.98-18.72-2.7-1.24-5.95-1.76-8.96-1.77-45.1-.11-90.2-.11-135.31-.05-12.09.02-19.8,7.79-19.82,19.93-.05,44.99-.05,89.97,0,134.96.01,12.33,7.71,20.07,20.01,20.08,44.99.05,89.98.05,134.97,0,12.31-.01,19.92-7.74,20.04-20.07.03-3.31-.05-6.62.02-9.92.12-5.04,2.33-7.38,7.28-7.41,11.91-.07,23.82-.07,35.73,0,4.32.03,7.08,2.62,7.03,6.26-.06,3.59-2.57,6.04-6.85,6.11-8.93.14-17.86.06-26.8.06-1.18,0-2.36,0-4.02,0,.83,10.92-1.19,20.58-8.97,28.34-7.79,7.77-17.4,9.89-28.44,9.01,0,1.62,0,2.91,0,4.19,0,8.82.01,17.64-.03,26.46-.01,2.67-.75,5.02-3.41,6.3-2.32,1.12-4.85,1.14-6.43-.72-1.36-1.6-2.39-4-2.45-6.09-.27-8.7-.11-17.42-.12-26.13,0-1.18,0-2.36,0-3.72h-24.83c-.07,1.17-.2,2.32-.2,3.48-.02,8.93.01,17.86-.03,26.79-.01,2.8-.78,5.6-3.72,6.35-1.9.49-4.7.38-6.07-.73-1.51-1.23-2.5-3.89-2.57-5.96-.27-8.7-.12-17.42-.12-26.13,0-1.19,0-2.37,0-3.77h-25.06c0,1.63,0,3.14,0,4.64,0,8.38.03,16.76-.02,25.14-.03,4.68-2.33,7.46-6.1,7.55-3.86.09-6.35-2.78-6.38-7.63-.06-8.6-.02-17.2-.02-25.8,0-1.2,0-2.4,0-3.86h-25.02c0,1.29,0,2.58,0,3.86,0,8.93,0,17.86-.02,26.79,0,2.77-1.03,5.34-3.79,5.92-2.01.43-4.91.2-6.32-1.01-1.46-1.25-2.18-4.03-2.24-6.16-.24-8.59-.09-17.2-.11-25.8,0-1.18-.11-2.35-.19-3.95-10.79.84-20.43-1.24-28.18-9.01-7.74-7.77-9.91-17.37-8.95-28.36-1.78,0-3.07,0-4.35,0-8.82,0-17.64.02-26.47-.04-2.81-.02-5.62-.87-6.2-3.88-.39-2.02-.08-4.82,1.12-6.3,1.13-1.4,3.82-2.09,5.84-2.14,8.6-.22,17.2-.1,25.8-.1,1.2,0,2.39,0,3.84,0v-24.86c-1.19-.06-2.36-.17-3.53-.17-8.82-.02-17.64.01-26.47-.02-2.78-.01-5.25-.73-6.6-3.51-1.13-2.32-1.1-4.86.76-6.43,1.61-1.35,4.02-2.37,6.11-2.43,8.59-.27,17.19-.11,25.79-.11,1.21,0,2.41,0,4.02,0v-24.87c-1.16-.06-2.32-.18-3.48-.18-9.04-.02-18.08,0-27.13-.03-2.74,0-5.37-.92-6-3.69-.46-2.01-.28-4.89.9-6.33,1.22-1.49,3.98-2.29,6.1-2.35,8.59-.25,17.2-.11,25.8-.11,1.19,0,2.37,0,3.78,0v-25.04c-1.32,0-2.5,0-3.68,0-8.93,0-17.86,0-26.8-.01-2.75,0-5.38-.87-6.06-3.6-.49-2-.39-4.98.81-6.33,1.34-1.53,4.18-2.34,6.4-2.41,8.48-.27,16.98-.11,25.47-.11,1.2,0,2.39,0,4.13,0-.74-10.75,1.16-20.44,8.9-28.22,7.75-7.79,17.32-10.03,28.24-9.14.11-1.46.27-2.61.27-3.77.02-8.16,0-16.32.02-24.48,0-1.1-.02-2.21.1-3.3.41-3.75,2.82-6.11,6.15-6.11,3.42,0,6.1,2.59,6.16,6.44.13,8.6.05,17.2.06,25.8,0,1.63,0,3.26,0,5.09h25.04c0-1.99,0-3.83,0-5.67,0-8.16-.02-16.32.02-24.48.01-2.79.71-5.65,3.65-6.39,1.99-.5,4.88-.33,6.33.83,1.49,1.2,2.33,3.95,2.39,6.05.26,8.59.11,17.2.11,25.8,0,1.19,0,2.39,0,3.83h24.9c.06-1.19.16-2.36.16-3.53.02-8.93,0-17.86.02-26.79,0-2.86.88-5.6,3.81-6.26,2-.45,4.9-.19,6.31,1.02,1.47,1.25,2.2,4.02,2.26,6.15.24,8.59.1,17.2.1,25.8,0,1.17,0,2.35,0,3.69h25.04c0-1.29,0-2.57,0-3.84,0-8.93,0-17.86.02-26.79,0-2.76.96-5.36,3.71-5.98,2.01-.45,4.99-.3,6.32.92,1.51,1.38,2.25,4.22,2.32,6.46.26,8.48.1,16.98.1,25.47,0,1.18,0,2.37,0,4.06,10.88-.83,20.54,1.18,28.31,8.94s9.92,17.36,9.07,28.21c1.66.09,2.93.21,4.21.21,8.71.02,17.42-.06,26.13.05,4.88.06,7.84,3.06,7.24,7-.53,3.44-2.97,5.38-7.16,5.41-8.82.06-17.64.02-26.47.03-1.18,0-2.36.1-3.69.16v24.68c1.21.07,2.37.19,3.53.19,8.6.02,17.21-.13,25.8.1,2.15.06,4.92.7,6.21,2.15,1.24,1.38,1.57,4.27,1.18,6.28-.57,2.95-3.27,3.95-6.14,3.96-8.93.03-17.86.02-26.8.02-1.18,0-2.36,0-3.74,0v25.06c1.9,0,3.63,0,5.36,0,7.83,0,15.66,0,23.49,0,5.54,0,8.44,2.12,8.51,6.15.07,4.11-2.95,6.33-8.68,6.34-8.27.01-16.54,0-24.81,0h-4.09c0,2.11.06,3.94-.01,5.77Zm-31.15,31.85c3.26.01,6.07,2.77,6.14,6.02.07,3.4-2.79,6.32-6.19,6.31-3.26-.01-6.07-2.77-6.14-6.02-.07-3.4,2.79-6.32,6.19-6.31Zm-6.19-131.59c.07-3.39,3.07-6.18,6.47-6.02,3.25.15,5.93,3.03,5.86,6.3-.07,3.39-3.07,6.18-6.47,6.02-3.25-.15-5.93-3.03-5.86-6.3Zm-12.6,28.04c0-7.32-1.86-9.15-9.26-9.16-5.15,0-10.3,0-15.77,0v3.7c0,14.66.04,29.32-.05,43.99-.01,2.32.49,3.65,2.75,4.87,7.92,4.26,11.41,12.94,8.99,21.35-2.35,8.16-9.98,13.94-18.17,13.74-8.48-.21-15.76-5.97-17.87-14.14-2.17-8.41,1.36-16.78,9.2-21,2.1-1.13,2.7-2.33,2.69-4.56-.08-17.2-.05-34.39-.04-51.59,0-6.93,1.87-8.81,8.87-8.79,8.05.02,16.11-.15,24.13.29,9.22.51,16.01,7.66,16.78,16.95.1,1.21.18,2.42.18,3.63,0,27.78-.04,55.56.04,83.34.02,8.16-2.63,14.8-10.15,18.58-2.66,1.33-5.88,2.08-8.86,2.13-12.12.24-24.25.13-36.38.1-2.8,0-5.64-.74-6.33-3.72-.46-2-.25-4.89.93-6.32,1.22-1.47,3.98-2.26,6.09-2.3,10.91-.22,21.83-.1,32.74-.1,7.76,0,9.47-1.74,9.47-9.61,0-27.12,0-54.24,0-81.36Zm-100.12,81.87c0,7.14,1.93,9.08,9,9.09,5.16,0,10.33,0,16.04,0v-13.35c0-11.58-.04-23.15.04-34.73.01-2.09-.49-3.26-2.52-4.33-7.74-4.08-11.38-12.31-9.49-20.61,1.89-8.31,9.11-14.22,17.84-14.61,7.96-.35,15.87,5.4,18.2,13.24,2.59,8.71-.71,17.36-8.72,21.74-2.33,1.28-2.93,2.65-2.91,5.1.1,17.09.06,34.18.05,51.26,0,6.79-1.88,8.74-8.61,8.72-8.16-.02-16.33.15-24.46-.29-9.06-.5-15.99-7.65-16.67-16.68-.28-3.73-.23-7.49-.23-11.23-.02-25.36.05-50.71-.04-76.07-.03-8.17,2.7-14.8,10.22-18.54,2.75-1.37,6.1-2.06,9.2-2.12,11.9-.24,23.81-.18,35.72-.07,5.8.05,8.95,4.63,6.54,9.14-1.44,2.71-3.91,3.3-6.71,3.29-11.03-.02-22.05,0-33.08,0-7.59,0-9.42,1.81-9.42,9.34,0,27.23,0,54.46,0,81.69Zm-18.95,21.67c3.39-.11,6.35,2.73,6.37,6.12.02,3.27-2.7,6.1-5.96,6.2-3.39.11-6.35-2.73-6.37-6.12-.02-3.27,2.7-6.1,5.96-6.2Zm-5.96-131.56c.06-3.38,3.05-6.2,6.44-6.05,3.26.14,5.95,3,5.89,6.27-.06,3.38-3.05,6.2-6.44,6.05-3.25-.14-5.95-3-5.89-6.27Z"/>
</svg>