<svg width="60" height="60" viewBox="0 0 60 60" fill="none" xmlns="http://www.w3.org/2000/svg">
<path d="M47.5 0H12.5C5.59667 0 0 5.59667 0 12.5V47.5C0 54.4033 5.59667 60 12.5 60H47.5C54.4033 60 60 54.4033 60 47.5V12.5C60 5.59667 54.4033 0 47.5 0ZM18.9067 22.2267C20.96 20.15 23.0083 18.0683 25.1083 16.0383C26.0033 15.1733 27.165 14.83 28.4 14.815C29.8017 14.86 30.98 15.3917 31.9617 16.365C33.0783 17.475 34.1867 18.5917 35.3033 19.7033C36.1867 20.5833 37.105 20.5917 38.0117 19.6917C40.4217 17.2983 42.8183 14.8917 45.2217 12.49C45.8083 11.905 46.3883 11.3117 46.9817 10.735C47.73 10.0083 48.6917 9.97333 49.36 10.6333C50.03 11.2967 50.0183 12.2533 49.275 13.0083C47.4867 14.8217 45.6767 16.6167 43.875 18.4167C42.7033 19.5883 41.5367 20.765 40.3583 21.93C38.0783 24.1883 35.1533 24.175 32.875 21.9033C31.8183 20.85 30.77 19.79 29.71 18.7417C28.8033 17.8467 27.855 17.8517 26.9433 18.7583C25.05 20.6433 23.17 22.5417 21.27 24.4217C20.355 25.3283 18.9433 25.0483 18.5417 23.895C18.325 23.275 18.4533 22.6867 18.9067 22.2283V22.2267ZM46.5333 41.5817C46.5317 42.3283 46.0717 42.9433 45.4233 43.13C44.705 43.3383 43.9433 43.095 43.5817 42.4617C43.4167 42.1733 43.3267 41.8017 43.3267 41.4667C43.3117 36.0217 43.3133 30.5767 43.3183 25.13C43.3183 24.075 43.9567 23.4 44.9233 23.3967C45.8917 23.395 46.535 24.07 46.5383 25.1183C46.545 27.8517 46.54 30.585 46.5383 33.3167C46.5383 36.07 46.5433 38.8233 46.535 41.5783L46.5333 41.5817ZM38.2583 41.345C38.2517 42.4983 37.6233 43.2 36.63 43.1967C35.6383 43.1933 35.0033 42.475 35.0033 41.3383C35.0017 38.1517 35.0033 34.965 35.0017 31.78C35.0017 31.0217 35.315 30.455 36.0083 30.145C36.6367 29.8633 37.2917 29.9467 37.7133 30.4633C38.0117 30.83 38.2167 31.375 38.235 31.85C38.2983 33.44 38.2583 35.035 38.26 36.6283C38.26 38.2 38.2667 39.7733 38.2583 41.345ZM29.9783 41.5217C29.975 42.3333 29.4867 42.97 28.7867 43.1417C28.0533 43.3233 27.3083 43.0567 26.97 42.4133C26.8133 42.1167 26.7367 41.745 26.735 41.4067C26.72 36.5433 26.72 31.6783 26.73 26.815C26.7317 25.73 27.4217 25.0133 28.375 25.0333C29.315 25.0517 29.9783 25.8033 29.9817 26.8683C29.9867 29.29 29.9817 31.7117 29.9817 34.1333C29.9817 36.5967 29.9883 39.06 29.9783 41.5217ZM21.67 41.4033C21.6667 42.4983 21.0317 43.1983 20.0567 43.1967C19.0817 43.1967 18.45 42.4967 18.4483 41.3983C18.445 37.6517 18.445 33.905 18.4483 30.1583C18.4483 29.0483 19.07 28.37 20.0617 28.3717C21.0483 28.3717 21.6667 29.055 21.67 30.1633C21.675 32.0467 21.67 33.93 21.67 35.815C21.67 37.6783 21.6733 39.5417 21.67 41.4033ZM48.6067 49.76C48.3117 49.835 47.9917 49.8417 47.685 49.8417C42.795 49.8467 37.9067 49.845 33.0167 49.845C28.2517 49.845 23.4867 49.8517 18.7217 49.8433C15.15 49.8367 12.5683 48.1783 10.9333 45.0433C10.3517 43.9267 10.145 42.6867 10.1433 41.435C10.1333 31.6583 10.1367 21.88 10.1383 12.1033C10.1383 11.335 10.3367 10.6633 11.1017 10.3033C12.03 9.86667 13.1233 10.4067 13.3017 11.415C13.38 11.86 13.3933 12.3217 13.3933 12.7767C13.3983 22.0767 13.3967 31.3783 13.3967 40.6783C13.3967 41.8433 13.4217 43.0067 14.0617 44.0417C14.9633 45.4967 16.2167 46.4183 17.9717 46.5367C18.5283 46.5733 19.09 46.585 19.6483 46.585C28.805 46.5883 37.9633 46.585 47.12 46.59C47.5333 46.59 47.9483 46.605 48.36 46.645C49.165 46.725 49.7967 47.3333 49.855 48.0583C49.92 48.8467 49.4183 49.5533 48.6033 49.76H48.6067Z" fill="#176B87"/>
</svg>
