<svg width="65" height="85" viewBox="0 0 65 85" fill="none" xmlns="http://www.w3.org/2000/svg">
<path d="M32.1154 84.6866C23.9402 84.6866 15.7674 84.6816 7.59222 84.6866C3.08409 84.6916 0.0603065 81.7458 0.0277658 77.2539C0.0027345 73.6917 -0.0147874 70.132 0.0177533 66.5697C0.100357 57.7798 7.00148 50.1656 15.8651 49.5193C21.2994 49.124 26.7812 49.3105 32.2405 49.2707C36.7862 49.2384 41.3319 49.2583 45.8801 49.2583C56.2906 49.2583 64.0553 57.0017 64.0178 67.3354C64.0052 70.8131 64.0278 74.2933 64.0127 77.771C63.9952 81.6489 60.9464 84.6792 57.0115 84.6891C48.7136 84.709 40.4132 84.6941 32.1154 84.6941V84.6841V84.6866Z" fill="#E0F6F9"/>
<path d="M32.025 42.4172C19.9274 42.3003 10.6282 32.9486 10.6858 20.9518C10.7434 9.19128 20.398 -0.115747 32.4205 0.00108804C43.9899 0.112951 53.4918 9.71331 53.4242 21.2228C53.3541 33.0331 43.7672 42.529 32.025 42.4172Z" fill="#E0F6F9"/>
<path d="M19 33.9999C19.0462 32.9346 19.0338 31.9148 19.151 30.909C19.2533 30.028 19.712 29.2751 20.3415 28.6445C25.1738 23.7991 30.0078 18.9545 34.8426 14.1107C34.8896 14.0636 34.9449 14.024 34.9738 14C36.3153 15.3446 37.6453 16.6777 39 18.0355C38.9389 18.1025 38.8531 18.2033 38.7599 18.2967C34.0142 23.0537 29.2636 27.8065 24.5237 32.5693C23.5675 33.5296 22.4347 34.009 21.0874 33.9999C20.4282 33.9957 19.7681 33.9999 19.0008 33.9999H19Z" fill="#176B87"/>
<path d="M37 12.3514C38.207 11.1188 39.3881 9.83353 40.6561 8.64231C41.6476 7.71122 43.2049 7.82445 44.1819 8.77467C45.1224 9.68893 45.3143 11.2787 44.4294 12.2481C43.2224 13.5694 41.8859 14.7698 40.6286 16C39.4468 14.8118 38.22 13.5785 37 12.3521V12.3514Z" fill="#176B87"/>
</svg>
