<svg width="138" height="138" viewBox="0 0 138 138" fill="none" xmlns="http://www.w3.org/2000/svg">
<circle cx="69" cy="69" r="69" fill="#176B87"/>
<path d="M70.1154 110.687C61.9402 110.687 53.7674 110.682 45.5922 110.687C41.0841 110.692 38.0603 107.746 38.0278 103.254C38.0027 99.6917 37.9852 96.132 38.0178 92.5697C38.1004 83.7798 45.0015 76.1656 53.8651 75.5193C59.2994 75.124 64.7812 75.3105 70.2405 75.2707C74.7862 75.2384 79.3319 75.2583 83.8801 75.2583C94.2906 75.2583 102.055 83.0017 102.018 93.3354C102.005 96.8131 102.028 100.293 102.013 103.771C101.995 107.649 98.9464 110.679 95.0115 110.689C86.7136 110.709 78.4132 110.694 70.1154 110.694V110.684V110.687Z" fill="#E0F6F9"/>
<path d="M70.025 68.4172C57.9274 68.3003 48.6282 58.9486 48.6858 46.9518C48.7434 35.1913 58.398 25.8843 70.4205 26.0011C81.9899 26.113 91.4918 35.7133 91.4242 47.2228C91.3541 59.0331 81.7672 68.529 70.025 68.4172Z" fill="#E0F6F9"/>
<path d="M57 59.9999C57.0462 58.9346 57.0338 57.9148 57.151 56.909C57.2533 56.028 57.712 55.2751 58.3415 54.6445C63.1738 49.7991 68.0078 44.9545 72.8426 40.1107C72.8896 40.0636 72.9449 40.024 72.9738 40C74.3153 41.3446 75.6453 42.6777 77 44.0355C76.9389 44.1025 76.8531 44.2033 76.7599 44.2967C72.0142 49.0537 67.2636 53.8065 62.5237 58.5693C61.5675 59.5296 60.4347 60.009 59.0874 59.9999C58.4282 59.9957 57.7681 59.9999 57.0008 59.9999H57Z" fill="#176B87"/>
<path d="M75 38.3514C76.207 37.1188 77.3881 35.8335 78.6561 34.6423C79.6476 33.7112 81.2049 33.8244 82.1819 34.7747C83.1224 35.6889 83.3143 37.2787 82.4294 38.2481C81.2224 39.5694 79.8859 40.7698 78.6286 42C77.4468 40.8118 76.22 39.5785 75 38.3521V38.3514Z" fill="#176B87"/>
</svg>
