<?xml version="1.0" encoding="UTF-8"?>
<svg id="Camada_1" data-name="Camada 1" xmlns="http://www.w3.org/2000/svg" viewBox="0 0 799.68 800">
  <defs>
    <style>
      .cls-1 {
        fill: #3e8ea9;
      }
    </style>
  </defs>
  <path class="cls-1" d="m799.68,401.96c-6.23,150.9-71.4,267.56-202.01,344.54-90.17,53.15-187.7,65.34-289.79,42.59-4.69-1.05-10.25.85-15.2,2.16-9.21,2.43-18.23,7.72-27.38,7.82-36.41.39-73.08,1.72-109.21-1.85-78.44-7.76-144.54-75.52-154.04-153.61-4.38-36.04,1.33-69.93,17.26-102.46,2.07-4.22,2.11-10.61.64-15.21-23.97-75.11-26.83-151.01-5.92-226.92C44.9,186.96,112.19,102.69,214.38,47.53,297.05,2.91,385.99-11.48,477.39,9.42c165.53,37.86,268.96,141.73,311.64,306.03,2.72,10.48,4.6,21.27,5.82,32.03,2.05,18.09,3.26,36.28,4.83,54.48Zm-469.92,343.2c131.18,29.96,295.59-25.97,379.15-175.11,77.95-139.12,47.79-319.81-72.42-429.86-119.82-109.69-301.4-122.79-433.46-31.99C63.21,204.34,24.83,368.35,58.26,486.96c19.68-12.29,39.93-24.3,59.49-37.34,16.95-11.3,24.43-28.2,24.6-48.37.13-14.71-.1-29.43.07-44.14.18-16.49,10.42-27.34,26.81-25.09,16.23,2.23,32.24,7.06,47.86,12.23,6.35,2.1,10.52,2.69,16.44-1.04,36.62-23.11,76.34-30.99,119.28-24.12,46.95,7.51,81.81,34.23,111.87,68.77,8.07,9.27,6.44,22.99-2.44,31.22-8.79,8.14-22.11,8.49-31.48.23-6.47-5.7-12.34-12.07-18.42-18.19-27.87-28.01-61.48-40.63-100.83-36.93-17.85,1.68-34.69,6.99-48.12,15.8,5.9,15.79,12.88,29.7,16.11,44.43,3.3,15.06,2.93,30.93,4.24,47.49,3.19,0,6.61,0,10.03,0,19.19,0,38.37-.06,57.56.03,17.93.08,34.36,5.25,47.43,17.61,18.33,17.35,36.82,34.72,53.46,53.64,35.9,40.83,14.31,104.01-38.98,114.25-12.69,2.44-26.25.36-40.45.36-7.21,22.24-23.9,37.81-46.06,45.53,1.05,14.43,2,27.67,3.03,41.83Zm-141-361.95c0,8.61.15,16.22-.03,23.82-.57,24.28-7.94,46.66-25.27,63.47-13.08,12.68-28.7,23.3-44.57,32.43-52.61,30.28-81.13,88.14-69.02,142.8,13.46,60.78,61.7,102.92,124.28,106.74,27.4,1.67,54.97.62,82.46.5,15.44-.06,25.94-9.99,25.83-23.67-.11-13.7-10.65-23.24-26.16-23.4-14.38-.15-28.82.61-43.14-.36-5.89-.4-12.59-3.03-17.08-6.83-7.37-6.23-9.32-15.23-5.37-24.47,4.17-9.76,11.82-14.76,22.57-14.76,30.05,0,60.1.08,90.15-.05,13.83-.06,23.75-8.02,25.46-19.92,2.16-15.1-8.35-26.73-24.93-26.85-29.73-.23-59.46.05-89.19-.15-15.2-.1-26.1-10.38-25.87-23.7.22-13.4,11.21-23.23,26.48-23.27,38.04-.1,76.09.06,114.13-.1,9.23-.04,16.7,3.07,23.09,9.64,9.82,10.07,19.66,20.13,29.85,29.82,10.58,10.07,24.97,9.88,34.18.06,8.67-9.24,8.02-23.55-1.87-33.59-14.13-14.35-28.62-28.35-42.62-42.82-6.48-6.7-13.86-9.48-23.09-9.4-29.09.26-58.18.21-87.28.04-16.33-.1-25.5-9.41-25.66-25.69-.15-15.03.22-30.06-.13-45.08-.69-29.96-18.66-55.22-47.2-65.19Z"/>
  <path class="cls-1" d="m236.1,164.44c.18-39,31.25-69.64,70.43-69.45,38.68.19,70.18,31.95,69.85,70.44-.32,38.28-32.58,70.09-70.84,69.85-38.52-.24-69.63-31.97-69.45-70.84Zm93.03.84c.18-12.66-10-23.45-22.53-23.86-12.34-.41-24.08,11.12-24.02,23.58.06,12.43,10.76,23.07,23.28,23.13,12.92.06,23.08-9.92,23.27-22.85Z"/>
  <path class="cls-1" d="m539.95,305.13c-38.91.04-70.05-31.08-70.06-70.01,0-38.63,31.62-70.45,70-70.42,38.23.03,70.32,32.11,70.39,70.35.07,38.41-31.67,70.04-70.33,70.08Zm.1-93.09c-12.97-.08-23.26,10.02-23.35,22.91-.09,12.74,10.31,23.27,23.04,23.36,12.89.09,23.15-10.09,23.22-23.05.07-13.21-9.72-23.14-22.91-23.21Z"/>
</svg>