<?xml version="1.0" encoding="UTF-8"?>
<svg id="Camada_1" data-name="Camada 1" xmlns="http://www.w3.org/2000/svg" viewBox="0 0 65.18 65">
  <defs>
    <style>
      .cls-1 {
        fill: #a1dce9;
      }
    </style>
  </defs>
  <path class="cls-1" d="m32.59,0C14.59,0,0,14.55,0,32.5s14.59,32.5,32.59,32.5,32.59-14.55,32.59-32.5S50.59,0,32.59,0Zm22.75,34.9c.1.5-.3,1-1.1,1.2-1.5.4-3.1.8-4.6,1.1-.2,0-.3.1-.4.3-.3.7-.6,1.5-.9,2.2-.1.2-.1.4,0,.6.7,1.1,1.3,2.2,2,3.3.1.1.1.2.2.4.3.6.2,1.1-.3,1.6-.8.8-1.6,1.6-2.4,2.4-.4.4-.8.8-1.2,1.2-.5.4-.9.5-1.5.2-.1,0-.2-.1-.2-.1-1.2-.7-2.3-1.4-3.5-2-.2-.1-.3-.1-.4,0-.9.4-1.7.7-2.6,1.1-.1,0-.2.2-.2.3-.3,1.4-.7,2.7-1,4.1,0,.2-.1.3-.1.5-.2.9-.7,1.3-1.6,1.3h-5c-.6-.1-1-.4-1.2-1.1-.2-.9-.4-1.7-.7-2.6-.2-.7-.4-1.5-.5-2.2,0-.1-.1-.2-.3-.3-.8-.3-1.6-.6-2.4-1-.2-.1-.3-.1-.5,0-1.1.7-2.2,1.3-3.3,2-.1.1-.3.2-.5.2-.5.2-1,.1-1.4-.2-.3-.2-.5-.5-.8-.8-1-.9-1.9-1.9-2.9-2.8-.3-.3-.5-.6-.5-1,0-.3.1-.6.3-.9.6-1.1,1.3-2.1,1.9-3.1.2-.3.2-.5.1-.8-.3-.7-.6-1.5-.9-2.2q-.1-.2-.3-.3c-1.6-.4-3.1-.8-4.7-1.1-.6-.1-1-.4-1.2-1,0-.2-.1-.4-.1-.6v-4.5c0-.2,0-.4.1-.6.1-.6.5-.9,1-1,1.5-.4,2.9-.7,4.4-1.1.5-.1.7-.3.9-.8.2-.6.5-1.2.7-1.8.1-.1.1-.2,0-.3-.8-1.3-1.6-2.6-2.4-3.9-.4-.7-.4-1.2.2-1.8,1.2-1.2,2.3-2.3,3.5-3.5.6-.6,1.1-.6,1.8-.2,1.3.7,2.6,1.5,3.8,2.3.1.1.2.1.3,0,.9-.4,1.8-.7,2.7-1.1.1,0,.1-.1.2-.2.4-1.6.8-3.1,1.2-4.7.2-.8.7-1.2,1.5-1.2h4.7c.9,0,1.4.3,1.6,1.2.4,1.5.8,3,1.1,4.6.1.2.2.3.4.4.8.3,1.5.6,2.3.9.2.1.3.1.5,0,1.2-.7,2.4-1.4,3.6-2.1.7-.4,1.2-.4,1.8.2,1.2,1.2,2.4,2.4,3.6,3.6.5.5.6,1.1.2,1.7-.7,1.2-1.4,2.4-2.2,3.6-.1.1-.1.2,0,.4.3.8.7,1.6,1,2.4.1.1.1.2.3.3,1.6.4,3.1.8,4.7,1.1.9.2,1.2.7,1.2,1.5v4.7Z"/>
  <path class="cls-1" d="m32.64,23.1c-4.9.2-8.8,4.3-8.7,9.2,0,4.9,4.2,9.2,9.6,8.9,4.8-.2,8.9-4.3,8.7-9.5-.2-4.7-4.2-8.8-9.6-8.6Z"/>
</svg>