<svg width="138" height="138" viewBox="0 0 138 138" fill="none" xmlns="http://www.w3.org/2000/svg">
<circle cx="69" cy="69" r="69" fill="#176B87"/>
<path d="M69.1154 110.686C60.9402 110.686 52.7674 110.681 44.5922 110.686C40.0841 110.691 37.0603 107.746 37.0278 103.254C37.0027 99.6914 36.9852 96.1317 37.0178 92.5695C37.1004 83.7795 44.0015 76.1653 52.8651 75.519C58.2994 75.1238 63.7812 75.3102 69.2405 75.2704C73.7862 75.2381 78.3319 75.258 82.8801 75.258C93.2906 75.258 101.055 83.0014 101.018 93.3351C101.005 96.8128 101.028 100.293 101.013 103.771C100.995 107.649 97.9464 110.679 94.0115 110.689C85.7136 110.709 77.4132 110.694 69.1154 110.694V110.684V110.686Z" fill="#E0F6F9"/>
<path d="M69.025 68.4172C56.9274 68.3003 47.6282 58.9486 47.6858 46.9518C47.7434 35.1913 57.398 25.8843 69.4205 26.0011C80.9899 26.113 90.4918 35.7133 90.4242 47.2228C90.3541 59.0331 80.7672 68.529 69.025 68.4172Z" fill="#E0F6F9"/>
<path d="M82 44H56V50H82V44Z" fill="#176B87"/>
</svg>
