<?xml version="1.0" encoding="UTF-8"?>
<svg id="Camada_1" data-name="Camada 1" xmlns="http://www.w3.org/2000/svg" viewBox="0 0 400.18 400.18">
  <defs>
    <style>
      .cls-1 {
        fill: #176b87;
      }
    </style>
  </defs>
  <path class="cls-1" d="m173.31,185.92c-23.56,13.96-29.41,41.86-22.53,59.78.78-.44,1.55-.84,2.29-1.3,13.49-8.37,26.94-16.83,40.5-25.1,5.56-3.39,12.48-1.99,16.56,2.91,4.07,4.89,3.98,11.85-.37,16.8-2.49,2.84-5.19,5.49-7.8,8.21-9,9.36-18.01,18.72-27.04,28.1,14.39,9.94,41.61,10.69,60.26-6.57,19.46-18.01,22.52-47.83,7.07-68.77-16.23-22.01-45.27-28.09-68.93-14.07Zm70.09,44.16c-.1,2.73-1.39,4.51-4.21,4.58-2.82.06-4.34-1.66-4.41-4.38-.16-6.24-1.62-12.09-4.89-17.42-6.51-10.62-16.07-16.25-28.47-17.07-3.76-.25-5.81-1.86-5.64-4.62.17-2.76,2.3-4.18,6.13-4.07,21.99.58,40.57,19.1,41.49,42.01,0-.14.02.41,0,.97Z"/>
  <path class="cls-1" d="m278.12,100.49c-2.55,0-4.09,1.59-4.28,4.15-.17,2.36,2.06,4.57,4.42,4.36,2.57-.22,3.88-1.82,4.18-4.34-.4-2.49-1.75-4.18-4.32-4.17Z"/>
  <path class="cls-1" d="m122.06,109.01c2.56-.13,4.18-1.63,4.25-4.18.07-2.59-1.58-3.96-3.73-4.36-2.57-.11-4.64,1.76-4.79,4.02-.16,2.36,1.9,4.65,4.27,4.52Z"/>
  <path class="cls-1" d="m203.36,227.79c-1.94-2.36-4.24-1.84-6.55-.38-3.94,2.5-7.93,4.92-11.88,7.4-20.68,13.01-41.39,25.98-62.01,39.09-5.76,3.66-7.89,10.25-5.88,16.6,1.97,6.2,7.76,10.45,15.45,10.51,3.33-.05,7.14-1.62,10.22-4.82,19.9-20.63,39.79-41.27,59.69-61.91,1.87-1.94,2.93-4.1.96-6.49Zm-74.01,64.64c-2.56-.11-4.08-1.54-4.26-4.12-.18-2.44,1.85-4.54,4.28-4.44,2.57.11,3.97,1.6,4.29,3.86.09,2.7-1.88,4.81-4.31,4.7Z"/>
  <path class="cls-1" d="m308.73,0H91.45C40.95,0,0,40.95,0,91.45v217.27c0,50.51,40.95,91.45,91.45,91.45h217.27c50.51,0,91.45-40.95,91.45-91.45V91.45c0-50.51-40.95-91.45-91.45-91.45Zm-.27,301.76c0,15.23-8.78,24.03-23.96,24.03-14.49,0-28.98,0-43.47,0,0,0,0,0,0,0-41.78,0-83.56,0-125.34,0-15.18,0-23.96-8.81-23.96-24.03,0-67.78,0-135.55,0-203.33,0-15.24,8.77-24.04,23.95-24.04,56.33,0,112.66,0,169,0,14.96,0,23.78,8.85,23.78,23.88,0,46.81,0,93.62,0,140.43,0,0,0,0,0,0,0,21.02,0,42.04,0,63.05Z"/>
  <path class="cls-1" d="m299.76,98.08c0-9.99-4.99-15-14.93-15-56.45,0-112.9,0-169.35,0-10.14,0-15.07,4.97-15.07,15.2,0,67.78,0,135.57,0,203.35,0,10.64,4.83,15.47,15.47,15.47,50.57,0,101.14,0,151.71,0h0c5.57,0,11.14,0,16.7,0,10.64,0,15.47-4.83,15.47-15.47,0-21.25,0-42.5,0-63.75.01,0,.02,0,.03,0-.03-46.6-.03-93.2-.04-139.81Zm-143.17-6.32c.77-.1,1.55-.04,2.33-.04,27.44,0,54.89,0,82.33,0,.78,0,1.57-.06,2.33.04,2.55.33,4.13,1.79,4.11,4.38-.02,2.43-1.56,3.84-3.94,4.21-.87.14-1.77.06-2.66.06-13.78,0-27.56,0-41.33,0s-27.11,0-40.67,0c-.89,0-1.79.08-2.66-.06-2.38-.37-3.92-1.77-3.94-4.21-.03-2.6,1.56-4.05,4.1-4.38Zm-34.61-.02c7.25-.04,13.17,5.91,13.08,13.15-.09,7.11-5.94,12.85-13.08,12.83-7.09-.01-12.94-5.9-12.91-12.99.03-7.15,5.79-12.96,12.91-13Zm-12.89,52c.27-2.53,1.57-4.2,4.23-4.25,2.66-.05,4.03,1.57,4.38,4.09.12.87.05,1.77.05,2.66,0,30.11,0,60.22,0,90.34,0,.56.02,1.11,0,1.67-.12,3.28-1.75,5.17-4.43,5.12-2.55-.05-4.11-1.87-4.25-4.95-.03-.78,0-1.56,0-2.33v-45c0-14.89,0-29.78,0-44.67,0-.89-.06-1.79.03-2.67Zm98.66,146.79c-13.14,1.48-25.43-.8-36.96-7.11-2-1.1-3.06-.75-4.48.76-5.95,6.3-11.9,12.6-18.03,18.71-9.23,9.2-23.5,9.36-33.11.57-9.28-8.5-10.27-23.18-1.78-32.75,2.59-2.92,6.21-4.97,9.53-7.16,6.48-4.28,13.09-8.37,20.04-12.8-2.9-8.36-3.98-16.76-3.35-25.41,2-27.41,24.06-51.1,51.22-54.88,33.86-4.71,63.75,17.27,69.3,50.96,5.43,32.97-19.23,65.37-52.38,69.1Zm82.66-31.28c-.01,1.69-.71,3.85-1.88,4.95-2.24,2.11-5.95.41-6.6-2.79-.22-1.07-.13-2.21-.13-3.32,0-37.23,0-74.45,0-111.68,0-.67-.02-1.33,0-2,.11-2.8,1.32-4.73,4.31-4.93,2.7-.18,4.35,1.73,4.35,5.09.03,19.22.01,38.45.02,57.67,0,19,.05,38-.08,57.01Zm-12.28-141.52c-7.14-.02-12.97-5.79-13.02-12.9-.05-7.25,5.89-13.17,13.14-13.09,7.11.08,12.85,5.91,12.84,13.06,0,7.08-5.89,12.95-12.97,12.92Z"/>
</svg>