<?xml version="1.0" encoding="UTF-8"?>
<svg id="Camada_1" data-name="Camada 1" xmlns="http://www.w3.org/2000/svg" viewBox="0 0 800 800">
  <defs>
    <style>
      .cls-1 {
        fill: #176b87;
      }
    </style>
  </defs>
  <path class="cls-1" d="m400,50.43c93.37,0,181.16,36.36,247.18,102.39,66.02,66.02,102.39,153.81,102.39,247.18s-36.36,181.16-102.39,247.18c-66.02,66.02-153.81,102.39-247.18,102.39s-181.16-36.36-247.18-102.39c-66.02-66.02-102.39-153.81-102.39-247.18s36.36-181.16,102.39-247.18c66.02-66.02,153.81-102.39,247.18-102.39m0-50.43C179.09,0,0,179.09,0,400s179.09,400,400,400,400-179.09,400-400S620.91,0,400,0h0Z"/>
  <path class="cls-1" d="m440.16,191.79c.74,22.11-15.48,39.8-41.27,39.8-22.85,0-39.06-17.69-39.06-39.8s16.95-40.54,40.54-40.54,39.8,17.69,39.8,40.54Zm-72.23,440.83v-324.48c0-8.9,7.22-16.12,16.12-16.12h32.62c8.9,0,16.12,7.22,16.12,16.12v324.48c0,8.9-7.22,16.12-16.12,16.12h-32.62c-8.9,0-16.12-7.22-16.12-16.12Z"/>
</svg>