<svg width="66" height="65" viewBox="0 0 66 65" fill="none" xmlns="http://www.w3.org/2000/svg">
<path d="M33.408 0C15.4084 0 0.816406 14.551 0.816406 32.5C0.816406 50.449 15.4084 65 33.408 65C51.4076 65 65.9997 50.449 65.9997 32.5C65.9997 14.551 51.4076 0 33.408 0ZM47.6116 48.4061C47.5927 50.6478 46.5014 52.2844 44.4877 53.2869C43.913 53.5728 43.2961 53.7077 42.6414 53.7062C38.3768 53.6961 34.1137 53.7019 29.8491 53.7019C25.5846 53.7019 21.3651 53.6932 17.1239 53.7077C16.1636 53.7106 15.3168 53.4146 14.5282 52.9083C13.6203 52.3265 12.9612 51.527 12.5232 50.5491C12.2889 50.0253 12.1522 49.4725 12.1173 48.8994C12.0969 48.557 12.0823 48.2146 12.0823 47.8722C12.0809 39.8096 12.0736 31.747 12.0867 23.6844C12.0896 21.4906 13.4195 19.6233 15.3575 18.7992C16.0457 18.5076 16.7572 18.3669 17.508 18.3669C22.1945 18.3741 26.881 18.3814 31.566 18.361C32.3881 18.3581 33.3571 19.014 33.3877 20.0818C33.4139 20.9959 32.7606 21.7329 31.8512 21.8896C31.7319 21.9099 31.6082 21.9186 31.4875 21.9186C26.7675 21.9186 22.049 21.9273 17.329 21.9085C16.6481 21.9056 15.714 22.5106 15.65 23.4638C15.6354 23.6844 15.6383 23.9049 15.6369 24.1269C15.6369 24.581 15.6398 25.0337 15.6398 25.4878C15.6398 32.9309 15.6398 40.3725 15.6412 47.8156C15.6412 48.1638 15.6354 48.515 15.6834 48.8574C15.7882 49.6118 16.5564 50.2473 17.3232 50.2473C25.6632 50.2473 34.0017 50.2444 42.3416 50.2473C43.1142 50.2473 44.0585 49.5756 44.0614 48.544C44.0643 47.3049 44.0614 46.0644 44.0614 44.8253C44.0614 41.3664 44.06 37.9089 44.0614 34.45C44.0614 33.7086 44.3495 33.1166 45.0203 32.7496C46.0926 32.1648 47.3715 32.8743 47.5548 33.9654C47.5927 34.1932 47.616 34.4268 47.6174 34.6575C47.6203 39.2394 47.6465 43.8213 47.6087 48.4032L47.6116 48.4061ZM47.9943 24.2299C43.7355 28.4752 39.4753 32.7191 35.2195 36.9687C34.9416 37.2459 34.6375 37.4142 34.2417 37.4751C33.6234 37.5694 33.0152 37.7189 32.4012 37.8436C31.6257 38.0018 30.8487 38.157 30.0732 38.3123C29.497 38.4283 28.9194 38.5328 28.3461 38.6576C27.7118 38.7954 27.1472 38.292 27.2593 37.6507C27.3786 36.96 27.5357 36.2767 27.671 35.5889C27.8616 34.6241 28.0479 33.6593 28.237 32.6944C28.3156 32.294 28.3927 31.8921 28.4756 31.4916C28.5309 31.2232 28.675 31.0056 28.8685 30.8126C30.8764 28.8162 32.8842 26.8169 34.8892 24.819C37.3976 22.3191 39.906 19.8177 42.4129 17.3179C42.5075 17.2235 42.6137 17.1394 42.6967 17.0378C42.7767 16.9377 42.8276 16.958 42.9076 17.0378C43.5449 17.6777 44.1866 18.3132 44.8268 18.9516C46.1843 20.3052 47.5418 21.6604 48.8993 23.0155C48.9458 23.0619 48.9967 23.104 49.068 23.1693C48.7028 23.5306 48.3478 23.8788 47.9943 24.2314V24.2299ZM53.4563 18.76C52.6546 19.6161 51.7889 20.4141 50.9566 21.2338C48.8832 19.1735 46.8055 17.1075 44.6827 14.9964C44.7991 14.9021 44.9155 14.8238 45.0144 14.728C45.7725 13.9808 46.5116 13.2133 47.2871 12.4849C48.262 11.5694 49.4434 11.1617 50.7704 11.3286C52.5003 11.5477 53.7429 12.4806 54.3918 14.1012C55.0858 15.8365 54.7206 17.4107 53.4592 18.7586L53.4563 18.76Z" fill="#A1DCE9"/>
</svg>
