<svg width="66" height="65" viewBox="0 0 66 65" fill="none" xmlns="http://www.w3.org/2000/svg">
<path d="M38.5524 10.0997C38.5481 9.53967 38.5568 8.97817 38.5481 8.41813C38.5437 8.13956 38.372 7.97851 38.0912 7.9611C37.9893 7.95384 37.886 7.95239 37.7827 7.95239C34.4654 7.95384 31.1495 7.95529 27.8321 7.9582C27.5906 7.9582 27.349 7.95239 27.1075 7.96545C26.8311 7.97996 26.6768 8.13375 26.6477 8.40507C26.6376 8.49503 26.6332 8.58498 26.6332 8.67494C26.6274 9.89949 26.6216 11.1226 26.6172 12.3471C26.6172 12.3994 26.623 12.4516 26.6274 12.5125H38.5772C38.5772 12.4284 38.5772 12.3588 38.5772 12.2877C38.5684 11.5579 38.5582 10.8295 38.5524 10.0997Z" fill="#A1DCE9"/>
<path d="M40.2723 53.6061C40.8819 53.9021 41.4712 53.8353 42.0124 53.4364C42.494 53.0823 42.625 52.5629 42.6439 52C42.7094 49.9702 42.7792 47.9389 42.836 45.9077C42.8912 43.9185 42.9291 41.9293 42.9844 39.9401C43.0295 38.289 43.0891 36.6379 43.143 34.9868C43.2012 33.2269 43.2608 31.4684 43.319 29.7085C43.3263 29.7085 43.3336 29.7085 43.3408 29.7085C43.3408 29.1963 43.3525 28.6827 43.3379 28.1705C43.319 27.5162 42.9785 27.049 42.4009 26.7762C41.8437 26.5121 41.2864 26.5629 40.7684 26.914C40.2359 27.2753 40.0715 27.8121 40.054 28.4172C39.9915 30.5558 39.9245 32.6958 39.8663 34.8345C39.8125 36.8048 39.7674 38.7765 39.715 40.7468C39.6815 41.983 39.6423 43.2177 39.6044 44.4539C39.5579 46.0208 39.5128 47.5878 39.4662 49.1548C39.4662 49.1968 39.4633 49.2389 39.4618 49.281C39.4298 50.2574 39.3789 51.2324 39.3731 52.2089C39.3687 52.8502 39.6976 53.3217 40.2752 53.6018L40.2723 53.6061Z" fill="#A1DCE9"/>
<path d="M24.9402 53.6061C24.3305 53.9021 23.7412 53.8353 23.2 53.4364C22.7184 53.0823 22.5874 52.5629 22.5685 52C22.5031 49.9702 22.4332 47.9389 22.3765 45.9077C22.3212 43.9185 22.2834 41.9293 22.2281 39.9401C22.183 38.289 22.1233 36.6379 22.0695 34.9868C22.0113 33.2269 21.9516 31.4684 21.8934 29.7085C21.8861 29.7085 21.8789 29.7085 21.8716 29.7085C21.8716 29.1963 21.86 28.6827 21.8745 28.1705C21.8934 27.5162 22.2339 27.049 22.8115 26.7762C23.3688 26.5121 23.926 26.5629 24.444 26.914C24.9765 27.2753 25.1409 27.8121 25.1584 28.4172C25.221 30.5558 25.2879 32.6958 25.3461 34.8345C25.3999 36.8048 25.445 38.7765 25.4974 40.7468C25.5309 41.983 25.5702 43.2177 25.608 44.4539C25.6546 46.0208 25.6997 47.5878 25.7462 49.1548C25.7462 49.1968 25.7491 49.2389 25.7506 49.281C25.7826 50.2574 25.8335 51.2324 25.8393 52.2089C25.8437 52.8502 25.5149 53.3217 24.9372 53.6018L24.9402 53.6061Z" fill="#A1DCE9"/>
<path d="M31.8931 53.6293C32.51 53.9093 33.0964 53.8281 33.6274 53.4175C34.0989 53.0519 34.2182 52.5281 34.2225 51.9666C34.2371 49.9353 34.2545 47.9041 34.2604 45.8728C34.2662 43.8837 34.2531 41.893 34.2589 39.9039C34.2633 38.2513 34.2793 36.6002 34.2924 34.9476C34.3055 33.1877 34.3215 31.4277 34.336 29.6664C34.3433 29.6664 34.3506 29.6664 34.3578 29.6664C34.3447 29.1542 34.3433 28.6406 34.3156 28.1299C34.2807 27.4755 33.9272 27.0185 33.3437 26.7602C32.7792 26.5107 32.2248 26.5745 31.7156 26.9387C31.1918 27.313 31.0419 27.8542 31.039 28.4592C31.0303 30.5993 31.0172 32.7394 31.0128 34.8794C31.0085 36.8512 31.0128 38.8229 31.0099 40.7947C31.0085 42.0309 30.9983 43.267 30.9939 44.5032C30.9866 46.0702 30.9808 47.6386 30.9736 49.2055C30.9736 49.2476 30.9735 49.2897 30.9721 49.3318C30.9648 50.3082 30.9386 51.2847 30.9561 52.2611C30.9677 52.9024 31.3082 53.3652 31.8916 53.6308L31.8931 53.6293Z" fill="#A1DCE9"/>
<path d="M32.5916 0C14.592 0 0 14.551 0 32.5C0 50.449 14.592 65 32.5916 65C50.5912 65 65.1833 50.449 65.1833 32.5C65.1833 14.551 50.5912 0 32.5916 0ZM49.3036 24.3329C49.2468 25.3253 49.1915 26.3192 49.1319 27.3116C49.0417 28.8162 48.9486 30.3208 48.8598 31.8253C48.8031 32.7815 48.7551 33.7391 48.6969 34.6967C48.6387 35.6528 48.5674 36.6089 48.5121 37.5665C48.4582 38.4994 48.4277 39.4338 48.3709 40.3667C48.2982 41.5768 48.2051 42.7839 48.1309 43.994C48.0712 44.9748 48.0276 45.957 47.9723 46.9378C47.9228 47.8113 47.869 48.6833 47.8166 49.5552C47.7468 50.716 47.6638 51.8767 47.6085 53.0388C47.5707 53.818 47.4936 54.584 47.2506 55.3327C46.801 56.7227 46.0066 57.8674 44.8601 58.7684C43.7237 59.6636 42.4273 60.154 40.984 60.2556C40.725 60.2744 40.466 60.2875 40.207 60.2875C35.0535 60.2889 29.8985 60.3122 24.7449 60.2788C22.0212 60.2614 19.9551 59.0122 18.5438 56.6922C18.1364 56.0219 17.8847 55.2834 17.7304 54.5202C17.646 54.1038 17.6315 53.6714 17.6038 53.2449C17.4845 51.3979 17.3667 49.5509 17.259 47.7039C17.1892 46.5127 17.1499 45.3186 17.0771 44.1275C16.9957 42.7796 16.8851 41.4331 16.8022 40.0853C16.7498 39.2307 16.7309 38.3747 16.6843 37.5201C16.6377 36.6771 16.5737 35.8356 16.5213 34.9941C16.4631 34.0321 16.4108 33.0687 16.354 32.1054C16.2871 30.9679 16.2216 29.8304 16.1503 28.6929C16.0892 27.7004 16.0165 26.708 15.9583 25.7156C15.9161 25.0177 15.8884 24.3184 15.855 23.6205C15.852 23.5494 15.855 23.4769 15.855 23.3869H49.3501C49.3327 23.709 49.3181 24.0195 49.3007 24.33L49.3036 24.3329ZM52.7272 17.418C52.6791 18.9559 51.4366 20.121 49.9729 20.1166C48.3724 20.1123 46.7705 20.1123 45.17 20.1137C39.2249 20.1137 33.2784 20.1152 27.3333 20.1166C23.4063 20.1166 19.4779 20.1123 15.5509 20.121C14.915 20.121 14.3156 20.0441 13.7685 19.6915C13.0046 19.2011 12.5623 18.4931 12.491 17.6109C12.4241 16.7839 12.4285 15.9453 12.4852 15.1169C12.5769 13.7733 13.5561 12.7098 14.9136 12.5589C15.1289 12.5357 15.3472 12.5241 15.564 12.5241C18.0782 12.5212 20.5909 12.5227 23.1051 12.5227H23.3539C23.3452 12.321 23.3292 12.1483 23.3307 11.9757C23.3365 10.7337 23.2841 9.48739 23.3714 8.25123C23.4602 7.00491 24.0727 6.00379 25.145 5.31172C25.8463 4.85904 26.6233 4.7096 27.4395 4.70815C30.9257 4.70815 34.4118 4.69799 37.8994 4.7125C39.4592 4.71975 40.6552 5.40167 41.4001 6.78583C41.6809 7.3067 41.8541 7.874 41.8512 8.48047C41.8468 9.75871 41.8468 11.0369 41.8439 12.3152C41.8439 12.3747 41.8439 12.4342 41.8439 12.5241C41.9312 12.5241 42.0068 12.5241 42.0825 12.5241C44.6753 12.5241 47.2666 12.5198 49.8594 12.527C50.7629 12.5299 51.5413 12.8419 52.1146 13.5629C52.4798 14.0214 52.6995 14.5539 52.7184 15.1415C52.7432 15.9003 52.749 16.6621 52.7257 17.4209L52.7272 17.418Z" fill="#A1DCE9"/>
</svg>
