<svg width="50" height="50" viewBox="0 0 50 50" fill="none" xmlns="http://www.w3.org/2000/svg">
<circle cx="25" cy="25" r="25" fill="#E0F6F9"/>
<path d="M22.358 28.6639C24.4888 30.3311 26.8521 31.0069 29.4729 30.5598C31.7642 30.1687 33.6431 29.0044 35.0729 27.113C37.9167 23.3503 37.5565 18.066 34.3662 14.7562C31.1884 11.4607 26.3872 11.1703 22.9332 13.6179C20.8136 15.1194 19.5116 17.2057 19.1 19.8391C18.6909 22.455 19.2924 24.8408 20.8349 27.0389C20.5504 27.2202 20.3005 27.4138 20.0223 27.5405C19.8932 27.5996 19.6814 27.5788 19.5555 27.5061C19.2767 27.3443 19.0236 27.3872 18.7874 27.5437C18.57 27.688 18.3657 27.8647 18.1853 28.057C16.2637 30.1063 14.3477 32.1608 12.4312 34.2146C11.8498 34.8377 11.8566 35.4868 12.4506 36.0891C12.9431 36.5888 13.4361 37.0884 13.9342 37.5816C14.5075 38.1494 15.146 38.1404 15.6948 37.553C17.6421 35.4693 19.59 33.3869 21.5266 31.2927C21.7308 31.0718 21.8862 30.7911 22.0172 30.515C22.0773 30.3883 22.0823 30.1641 22.0122 30.053C21.7465 29.6346 21.8962 29.2928 22.1331 28.9504C22.1982 28.8562 22.274 28.7705 22.358 28.6645V28.6639ZM34.1995 21.3673C34.1788 24.9259 31.3601 27.8244 27.9523 27.7919C24.5246 27.7588 21.7371 24.8473 21.7722 21.3348C21.8073 17.7515 24.5922 14.8894 28.0156 14.918C31.4434 14.9466 34.2202 17.8431 34.1995 21.3673Z" fill="#23728C"/>
</svg>
