<?xml version="1.0" encoding="utf-8"?>
<!-- Generator: Adobe Illustrator 27.3.1, SVG Export Plug-In . SVG Version: 6.00 Build 0)  -->
<svg version="1.1" id="Camada_1" xmlns="http://www.w3.org/2000/svg" xmlns:xlink="http://www.w3.org/1999/xlink" x="0px" y="0px"
	 viewBox="0 0 405 406" style="enable-background:new 0 0 405 406;" xml:space="preserve">
<style type="text/css">
	.st0{fill:#176B87;}
</style>
<path class="st0" d="M201.9,337.2c-58.2,0-116.3-0.3-174.5,0.2C9.3,337.6,0,325.6,0,310c0.3-94.3,0.1-188.7,0.2-283
	C0.2,9.1,9.3,0,27.2,0c116.5,0,233,0,349.4,0c17.8,0,27.5,9.7,27.5,27.5c0,94.3,0,188.7,0,283c0,17.7-9.1,26.8-26.8,26.8
	C318.9,337.3,260.4,337.2,201.9,337.2L201.9,337.2z M12.9,271.7h6.7c121.8,0,243.7,0,365.5,0c4.4,0,6.5-2.1,6.6-6.4
	c0-78.9,0-157.7,0-236.6c0-13-3-16-15.8-16c-115.8,0-231.7,0-347.5,0c-1.7,0-3.3-0.1-5,0.1c-5.7,0.4-9.6,4-10.3,9.7
	c-0.2,1.8-0.2,3.7-0.2,5.5c0,79.2,0,158.4,0,237.6C12.9,267.4,12.9,269.2,12.9,271.7L12.9,271.7z"/>
<path class="st0" d="M156.3,349.4h89.6c0.4,4.6,0.7,9,1.1,13.4c0.3,3,1.6,4.1,4.9,4.2c7.1,0.1,14.5-0.2,21.3,1.3
	c14.9,3.3,24.3,13,28.9,27.5c2,6.2-0.3,9.5-6.7,9.5c-62.2,0-124.3,0-186.4,0c-6.9,0-9.2-3.5-7.2-10.1c5.1-16.8,19.6-27.9,37.1-28.2
	c4.2-0.1,8.4-0.3,12.5,0c3.5,0.2,4.9-1.3,4.9-4.5C156.4,358.2,156.3,353.9,156.3,349.4L156.3,349.4z"/>
<path class="st0" d="M64.7,234.3h17.5c0-8.4,0-16.5,0-24.6c0-2.8,0-5.7,0-8.5c0-4.1,1.9-6.7,6.1-7.1c3.8-0.3,6.5,2.7,6.6,7.1
	c0.1,8.3,0,16.7,0,25c0,2.5,0,5,0,7.9h26c0.1-1.7,0.3-3.5,0.3-5.2c0-16,0-32,0-48c0-1.3,0-2.7,0-4c0.2-3.8,2-6.6,6-6.6
	c4.1,0,6.5,2.6,6.6,6.7c0.2,6,0.1,12,0.1,18c0,13,0,25.9,0,39.2h26.4c0-8,0-15.8,0-23.5c0-3.3,0-6.7,0.1-10c0.1-4,2.2-6.5,6.1-6.5
	c4,0,6.5,2.4,6.5,6.7c0.1,9.5,0,19,0,28.5c0,1.5,0,3,0,4.8h26.4c0-2,0-3.9,0-5.8c0-24.7,0-49.3,0-74c0-1.8-0.5-4.1,0.4-5.4
	c1.5-2.1,3.9-4.8,5.9-4.8c2.1,0,4.4,2.7,6,4.7c0.8,1.1,0.3,3.2,0.3,4.9c0,24.7,0,49.3,0,74c0,2,0,4,0,6.8c6.4,0,12.5,0,18.6,0
	c6.9,0,10.1,2,10.2,6.1c0.2,4.4-3.2,6.4-10.3,6.4c-56.2,0-112.3,0-168.5,0c-8.5,0-10.2-1.8-10.2-10.2c0-58.2,0-116.3,0-174.5
	c0-1.5-0.1-3,0.1-4.5c0.4-3.5,2.6-5.4,6-5.5c3.4-0.1,5.7,1.7,6.3,5.2c0.3,1.8,0.2,3.7,0.2,5.5c0,55,0,110,0,165L64.7,234.3
	L64.7,234.3z"/>
<path class="st0" d="M164.8,137.3c8.8-12.1,17.4-23.8,25.9-35.5c2.9-4,5.9-8.1,8.8-12.1c2.5-3.4,5.9-4.1,9.2-1.9
	c3.5,2.4,3.4,5.9,1,9.2c-12.7,17.5-25.4,35-38.2,52.4c-3,4-6.1,4.2-10.3,1c-10.5-8.2-20.9-16.5-31.4-24.7c-1-0.8-2.1-1.6-3.9-2.9
	c-8.8,9-17.7,18.1-26.5,27.1c-2.7,2.7-5.4,5.5-8.2,8.1c-2.8,2.6-5.9,3.1-8.8,0.3c-3.1-3-2.7-6.3,0.2-9.2
	c12.8-12.9,25.6-25.7,38.5-38.5c3.5-3.5,6.9-2.1,10.2,0.5c9.7,7.6,19.3,15.2,29,22.8C161.6,134.9,162.9,135.9,164.8,137.3
	L164.8,137.3z"/>
<path class="st0" d="M296.1,208.9c-10.2,0-20.3,0-30.5,0c-5.4,0-8.4-2.5-8.2-6.6c0.2-3.9,3.1-6.2,8.1-6.2c20.2,0,40.3,0,60.5,0
	c3.6,0,6.6,1,7.9,4.8c1.4,4.4-1.5,7.9-6.8,8C316.7,208.9,306.4,208.8,296.1,208.9L296.1,208.9z"/>
<path class="st0" d="M296,247.9c-10,0-20,0-30,0c-5.5,0-8.5-2.2-8.6-6.2c-0.1-4,3-6.6,8.3-6.6c20-0.1,40,0,60,0c0.5,0,1,0,1.5,0
	c4.4,0.4,7.2,3,7,6.9c-0.3,4.4-3.2,5.9-7.2,5.9C316.6,247.9,306.3,247.9,296,247.9z"/>
<path class="st0" d="M295.8,91.6V49c0-4.3-3.9-7.6-8.1-6.9c-26.7,4-47.1,27.6-46,55.7c1.1,28.1,23.9,51,52,52
	c30.9,1.2,56.3-23.5,56.3-54.1c0-5.1-0.7-10-2-14.7c-1.2-4.2-5.9-6.3-9.8-4.4l-37.4,18.1C298.4,95.8,295.8,94.1,295.8,91.6z"/>
</svg>
