<svg width="405" height="406" viewBox="0 0 405 406" fill="none" xmlns="http://www.w3.org/2000/svg">
<path d="M201.92 337.25C143.76 337.25 85.6002 336.92 27.4502 337.44C9.3002 337.61 -0.0498005 325.6 0.000199479 310.01C0.310199 215.68 0.150199 121.34 0.160199 27.01C0.160199 9.07 9.2702 0 27.2302 0C143.71 0 260.19 0 376.67 0C394.43 0 404.17 9.72 404.18 27.48C404.18 121.81 404.18 216.15 404.18 310.48C404.18 328.17 395.1 337.24 377.4 337.25C318.91 337.26 260.42 337.25 201.93 337.25H201.92ZM12.8802 271.72H19.6102C141.45 271.72 263.28 271.72 385.12 271.72C389.48 271.72 391.664 269.587 391.67 265.32C391.67 186.47 391.67 107.62 391.67 28.77C391.67 15.77 388.71 12.77 375.9 12.77C260.06 12.77 144.23 12.77 28.3902 12.77C26.7202 12.77 25.0502 12.72 23.3902 12.83C17.7002 13.21 13.7502 16.87 13.0502 22.5C12.8202 24.31 12.9002 26.16 12.9002 27.99C12.9002 107.17 12.9002 186.35 12.9002 265.54C12.9002 267.35 12.9002 269.16 12.9002 271.73L12.8802 271.72Z" fill="#176B87"/>
<path d="M156.3 349.41H245.89C246.26 354.02 246.61 358.44 246.99 362.85C247.25 365.81 248.64 366.98 251.86 367.01C258.99 367.08 266.32 366.76 273.2 368.27C288.09 371.53 297.55 381.3 302.12 395.77C304.08 401.97 301.8 405.26 295.41 405.26C233.26 405.31 171.12 405.31 108.97 405.26C102.11 405.26 99.7502 401.77 101.76 395.17C106.88 378.36 121.39 367.3 138.86 366.94C143.02 366.86 147.21 366.68 151.35 366.97C154.88 367.22 156.25 365.66 156.3 362.47C156.36 358.2 156.32 353.93 156.32 349.41H156.3Z" fill="#176B87"/>
<path d="M64.6598 234.34H82.1298C82.1298 225.97 82.1298 217.86 82.1298 209.75C82.1298 206.92 82.1298 204.08 82.1498 201.25C82.1698 197.14 84.0598 194.52 88.2698 194.17C92.0298 193.86 94.7798 196.83 94.8298 201.3C94.9298 209.63 94.8598 217.97 94.8698 226.3C94.8698 228.79 94.8698 231.28 94.8698 234.2H120.89C121 232.48 121.2 230.73 121.2 228.98C121.22 212.98 121.21 196.98 121.22 180.98C121.22 179.65 121.19 178.31 121.26 176.98C121.47 173.16 123.26 170.38 127.27 170.36C131.37 170.35 133.73 172.96 133.86 177.03C134.05 183.02 133.92 189.03 133.92 195.03C133.92 208 133.92 220.97 133.92 234.28H160.31C160.31 226.3 160.31 218.52 160.31 210.75C160.31 207.42 160.31 204.08 160.36 200.75C160.43 196.79 162.53 194.21 166.42 194.24C170.4 194.27 172.92 196.69 172.95 200.93C173.01 210.43 172.98 219.93 172.99 229.43C172.99 230.91 172.99 232.39 172.99 234.25H199.44C199.44 232.26 199.44 230.33 199.44 228.41C199.44 203.74 199.44 179.08 199.45 154.41C199.45 152.58 198.94 150.29 199.83 149.03C201.29 146.96 203.7 144.25 205.7 144.26C207.75 144.26 210.13 146.95 211.71 148.97C212.54 150.03 212.04 152.19 212.04 153.85C212.05 178.52 212.04 203.18 212.04 227.85C212.04 229.84 212.04 231.82 212.04 234.64C218.47 234.64 224.57 234.63 230.68 234.64C237.53 234.66 240.78 236.6 240.93 240.75C241.09 245.1 237.76 247.18 230.6 247.18C174.44 247.18 118.29 247.18 62.1298 247.18C53.6398 247.18 51.8898 245.43 51.8798 236.96C51.8798 178.79 51.8798 120.63 51.8798 62.46C51.8798 60.96 51.8098 59.45 51.9998 57.97C52.4498 54.48 54.6098 52.55 58.0398 52.49C61.4398 52.43 63.7698 54.23 64.3798 57.66C64.6998 59.44 64.6298 61.31 64.6298 63.14C64.6398 118.14 64.6298 173.14 64.6298 228.14V234.32L64.6598 234.34Z" fill="#176B87"/>
<path d="M164.79 137.3C173.63 125.16 182.14 113.48 190.65 101.79C193.59 97.75 196.51 93.7 199.48 89.69C201.97 86.32 205.38 85.57 208.66 87.83C212.12 90.21 212.02 93.78 209.65 97.05C196.95 114.57 184.22 132.07 171.4 149.49C168.44 153.51 165.32 153.72 161.14 150.46C150.65 142.26 140.23 133.97 129.78 125.72C128.74 124.9 127.66 124.14 125.85 122.8C117.01 131.84 108.2 140.87 99.3699 149.88C96.6899 152.61 94.0099 155.35 91.2199 157.97C88.4099 160.61 85.2899 161.11 82.3699 158.26C79.2699 155.24 79.6799 151.94 82.5599 149.04C95.3399 136.16 108.18 123.34 121.03 110.53C124.56 107.01 127.95 108.45 131.24 111.04C140.92 118.66 150.59 126.28 160.28 133.89C161.58 134.91 162.92 135.89 164.8 137.3H164.79Z" fill="#176B87"/>
<path d="M296.07 208.85C285.9 208.85 275.74 208.89 265.57 208.83C260.22 208.8 257.21 206.29 257.38 202.25C257.54 198.4 260.45 196.09 265.5 196.08C285.66 196.04 305.83 196.08 325.99 196.05C329.63 196.05 332.63 197.01 333.85 200.83C335.25 205.21 332.4 208.72 327.06 208.8C316.73 208.94 306.4 208.84 296.06 208.85H296.07Z" fill="#176B87"/>
<path d="M295.95 247.9C285.95 247.9 275.95 247.92 265.95 247.9C260.41 247.88 257.46 245.71 257.38 241.73C257.3 237.7 260.34 235.17 265.64 235.16C285.64 235.11 305.64 235.14 325.63 235.14C326.13 235.14 326.63 235.14 327.13 235.17C331.58 235.55 334.38 238.18 334.14 242.02C333.86 246.45 330.93 247.89 326.95 247.9C316.62 247.9 306.29 247.9 295.95 247.9Z" fill="#176B87"/>
<path d="M295.76 149.86C325.683 149.86 349.94 125.603 349.94 95.68C349.94 65.7572 325.683 41.5 295.76 41.5C265.837 41.5 241.58 65.7572 241.58 95.68C241.58 125.603 265.837 149.86 295.76 149.86Z" fill="#39B54A"/>
<path d="M269.51 96.77C269.51 96.18 269.73 95.67 270.16 95.23C270.59 94.79 271.11 94.58 271.7 94.58C272.29 94.58 272.8 94.8 273.24 95.23L287.01 108.97L318.28 77.73C318.71 77.3 319.23 77.08 319.82 77.08C320.41 77.08 320.92 77.3 321.36 77.73C321.79 78.16 322.01 78.68 322.01 79.27C322.01 79.86 321.79 80.38 321.36 80.81L288.55 113.62C288.12 114.05 287.6 114.27 287.01 114.27C286.42 114.27 285.9 114.05 285.47 113.62L270.16 98.31C269.73 97.88 269.51 97.36 269.51 96.77Z" fill="white"/>
</svg>
