<svg width="405" height="406" viewBox="0 0 405 406" fill="none" xmlns="http://www.w3.org/2000/svg">
<path d="M201.93 337.26C143.77 337.26 85.6102 336.93 27.4602 337.45C9.30022 337.61 -0.0498005 325.6 0.000199479 310.01C0.310199 215.68 0.150173 121.34 0.160173 27.01C0.160173 9.07 9.27018 0 27.2302 0C143.71 0 260.19 0 376.67 0C394.43 0 404.17 9.72 404.18 27.48C404.18 121.81 404.18 216.15 404.18 310.48C404.18 328.17 395.1 337.24 377.4 337.25C318.91 337.26 260.42 337.25 201.93 337.25V337.26ZM12.8802 271.72H19.6102C141.45 271.72 263.28 271.72 385.12 271.72C389.48 271.72 391.664 269.587 391.67 265.32C391.67 186.47 391.67 107.62 391.67 28.77C391.67 15.77 388.71 12.77 375.9 12.77C260.06 12.77 144.23 12.77 28.3902 12.77C26.7202 12.77 25.0502 12.72 23.3902 12.83C17.7002 13.21 13.7502 16.87 13.0502 22.5C12.8202 24.31 12.9002 26.16 12.9002 27.99C12.9002 107.17 12.9002 186.35 12.9002 265.54C12.9002 267.35 12.9002 269.16 12.9002 271.73L12.8802 271.72Z" fill="#176B87"/>
<path d="M156.3 349.42H245.89C246.26 354.03 246.61 358.45 246.99 362.86C247.25 365.82 248.64 366.99 251.86 367.02C258.99 367.09 266.32 366.77 273.2 368.28C288.09 371.54 297.55 381.31 302.12 395.78C304.08 401.98 301.8 405.27 295.41 405.27C233.26 405.32 171.12 405.32 108.97 405.27C102.11 405.27 99.7502 401.78 101.76 395.18C106.88 378.37 121.39 367.31 138.86 366.95C143.02 366.87 147.21 366.69 151.35 366.98C154.88 367.23 156.25 365.67 156.3 362.48C156.36 358.21 156.32 353.94 156.32 349.42H156.3Z" fill="#176B87"/>
<path d="M64.6598 234.35H82.1298C82.1298 225.98 82.1298 217.87 82.1298 209.76C82.1298 206.93 82.1298 204.09 82.1498 201.26C82.1698 197.15 84.0598 194.53 88.2698 194.18C92.0298 193.87 94.7798 196.84 94.8298 201.31C94.9298 209.64 94.8598 217.98 94.8698 226.31C94.8698 228.8 94.8698 231.29 94.8698 234.21H120.89C121 232.49 121.2 230.74 121.2 228.99C121.22 212.99 121.21 196.99 121.22 180.99C121.22 179.66 121.19 178.32 121.26 176.99C121.47 173.17 123.26 170.39 127.27 170.37C131.37 170.36 133.73 172.97 133.86 177.04C134.05 183.03 133.92 189.04 133.92 195.04C133.92 208.01 133.92 220.98 133.92 234.29H160.31C160.31 226.31 160.31 218.53 160.31 210.76C160.31 207.43 160.31 204.09 160.36 200.76C160.43 196.8 162.53 194.22 166.42 194.25C170.4 194.28 172.92 196.7 172.95 200.94C173.01 210.44 172.98 219.94 172.99 229.44C172.99 230.92 172.99 232.4 172.99 234.26H199.44C199.44 232.27 199.44 230.34 199.44 228.42C199.44 203.75 199.44 179.09 199.45 154.42C199.45 152.59 198.94 150.3 199.83 149.04C201.29 146.97 203.7 144.26 205.7 144.27C207.75 144.27 210.13 146.96 211.71 148.98C212.54 150.04 212.04 152.2 212.04 153.86C212.05 178.53 212.04 203.19 212.04 227.86C212.04 229.85 212.04 231.83 212.04 234.65C218.47 234.65 224.57 234.64 230.68 234.65C237.53 234.67 240.78 236.61 240.93 240.76C241.09 245.11 237.76 247.19 230.6 247.19C174.44 247.19 118.29 247.19 62.1298 247.19C53.6398 247.19 51.8898 245.44 51.8798 236.97C51.8798 178.8 51.8798 120.64 51.8798 62.47C51.8798 60.97 51.8098 59.46 51.9998 57.98C52.4498 54.49 54.6098 52.56 58.0398 52.5C61.4398 52.44 63.7698 54.24 64.3798 57.67C64.6998 59.45 64.6298 61.32 64.6298 63.15C64.6398 118.15 64.6298 173.15 64.6298 228.15V234.33L64.6598 234.35Z" fill="#176B87"/>
<path d="M164.79 137.31C173.63 125.17 182.14 113.49 190.65 101.8C193.59 97.76 196.51 93.71 199.48 89.7C201.97 86.33 205.38 85.58 208.66 87.84C212.12 90.22 212.02 93.79 209.65 97.06C196.95 114.58 184.22 132.08 171.4 149.5C168.44 153.52 165.32 153.73 161.14 150.47C150.65 142.27 140.23 133.98 129.78 125.73C128.74 124.91 127.66 124.15 125.85 122.81C117.01 131.85 108.2 140.88 99.3699 149.89C96.6899 152.62 94.0099 155.36 91.2199 157.98C88.4099 160.62 85.2899 161.12 82.3699 158.27C79.2699 155.25 79.6799 151.95 82.5599 149.05C95.3399 136.17 108.18 123.35 121.03 110.54C124.56 107.02 127.95 108.46 131.24 111.05C140.92 118.67 150.59 126.29 160.28 133.9C161.58 134.92 162.92 135.9 164.8 137.31H164.79Z" fill="#176B87"/>
<path d="M296.08 208.86C285.91 208.86 275.75 208.9 265.58 208.84C260.23 208.81 257.22 206.3 257.39 202.26C257.55 198.41 260.46 196.1 265.51 196.09C285.67 196.05 305.84 196.09 326 196.06C329.64 196.06 332.64 197.02 333.86 200.84C335.26 205.22 332.41 208.73 327.07 208.81C316.74 208.95 306.41 208.85 296.07 208.86H296.08Z" fill="#176B87"/>
<path d="M295.951 247.91C285.951 247.91 275.951 247.93 265.951 247.91C260.411 247.89 257.46 245.72 257.38 241.74C257.3 237.71 260.34 235.18 265.64 235.17C285.64 235.12 305.64 235.15 325.63 235.15C326.13 235.15 326.63 235.15 327.13 235.18C331.58 235.56 334.38 238.19 334.14 242.03C333.86 246.46 330.931 247.9 326.951 247.91C316.621 247.91 306.291 247.91 295.951 247.91Z" fill="#176B87"/>
<path d="M295.77 149.87C325.693 149.87 349.95 125.613 349.95 95.69C349.95 65.7672 325.693 41.51 295.77 41.51C265.847 41.51 241.59 65.7672 241.59 95.69C241.59 125.613 265.847 149.87 295.77 149.87Z" fill="#FF0000"/>
<path d="M262.95 95.6901C262.95 92.6801 263.34 89.7801 264.13 86.9901C264.92 84.2001 266.02 81.5801 267.45 79.1501C268.87 76.7101 270.58 74.5001 272.58 72.5001C274.57 70.5101 276.79 68.8001 279.23 67.3701C281.67 65.9501 284.28 64.8401 287.07 64.0501C289.86 63.2601 292.76 62.8701 295.77 62.8701C298.78 62.8701 301.68 63.2601 304.47 64.0501C307.26 64.8401 309.87 65.9401 312.3 67.3701C314.73 68.7901 316.94 70.5101 318.95 72.5101C320.95 74.5201 322.67 76.7301 324.09 79.1601C325.51 81.5901 326.62 84.2001 327.41 86.9901C328.2 89.7801 328.59 92.6801 328.59 95.6901C328.59 98.7001 328.2 101.6 327.41 104.39C326.62 107.18 325.52 109.8 324.09 112.23C322.67 114.67 320.96 116.88 318.96 118.88C316.97 120.87 314.75 122.58 312.31 124.01C309.87 125.43 307.26 126.54 304.47 127.33C301.68 128.12 298.78 128.51 295.77 128.51C292.76 128.51 289.83 128.12 287.04 127.33C284.25 126.54 281.64 125.44 279.21 124.01C276.78 122.59 274.57 120.88 272.58 118.88C270.59 116.89 268.88 114.68 267.45 112.25C266.03 109.82 264.92 107.21 264.13 104.41C263.34 101.61 262.95 98.7001 262.95 95.6901ZM283.73 110.46C284.07 110.46 284.42 110.39 284.77 110.25C285.12 110.11 285.43 109.92 285.68 109.67L295.76 99.5501L305.84 109.67C306.09 109.92 306.39 110.11 306.75 110.25C307.1 110.39 307.45 110.46 307.79 110.46C308.56 110.46 309.21 110.2 309.74 109.67C310.26 109.15 310.53 108.5 310.53 107.72C310.53 106.94 310.27 106.3 309.74 105.77L299.62 95.6901L309.74 85.6101C310.26 85.0901 310.53 84.4401 310.53 83.6601C310.53 82.8801 310.27 82.2401 309.74 81.7101C309.22 81.1901 308.57 80.9201 307.79 80.9201C307.01 80.9201 306.37 81.1801 305.84 81.7101L295.76 91.8301L285.68 81.7101C285.16 81.1901 284.51 80.9201 283.73 80.9201C282.95 80.9201 282.31 81.1801 281.78 81.7101C281.26 82.2301 280.99 82.8801 280.99 83.6601C280.99 84.0001 281.06 84.3501 281.2 84.7001C281.34 85.0501 281.53 85.3601 281.78 85.6101L291.9 95.6901L281.78 105.77C281.53 106.02 281.34 106.32 281.2 106.68C281.06 107.03 280.99 107.38 280.99 107.72C280.99 108.47 281.26 109.12 281.79 109.65C282.33 110.19 282.97 110.45 283.72 110.45L283.73 110.46Z" fill="white"/>
</svg>
