<svg width="405" height="406" viewBox="0 0 405 406" fill="none" xmlns="http://www.w3.org/2000/svg">
<path d="M201.93 337.25C143.77 337.25 85.6102 336.92 27.4602 337.44C9.30019 337.6 -0.0498005 325.59 0.000199479 310C0.310199 215.67 0.150203 121.33 0.160203 27C0.170203 9.07 9.28019 0 27.2402 0C143.72 0 260.2 0 376.68 0C394.44 0 404.18 9.72 404.19 27.48C404.19 121.81 404.19 216.15 404.19 310.48C404.19 328.17 395.11 337.24 377.41 337.25C318.92 337.26 260.43 337.25 201.94 337.25H201.93ZM12.8802 271.71H19.6102C141.45 271.71 263.28 271.71 385.12 271.71C389.48 271.71 391.664 269.577 391.67 265.31C391.67 186.46 391.67 107.61 391.67 28.76C391.67 15.76 388.71 12.76 375.9 12.76C260.06 12.76 144.23 12.76 28.3902 12.76C26.7202 12.76 25.0502 12.71 23.3902 12.82C17.7002 13.2 13.7502 16.86 13.0502 22.49C12.8202 24.3 12.9002 26.15 12.9002 27.98C12.9002 107.16 12.9002 186.34 12.9002 265.53C12.9002 267.34 12.9002 269.15 12.9002 271.72L12.8802 271.71Z" fill="#176B87"/>
<path d="M156.3 349.41H245.89C246.26 354.02 246.61 358.44 246.99 362.85C247.25 365.81 248.64 366.98 251.86 367.01C258.99 367.08 266.32 366.76 273.2 368.27C288.09 371.53 297.55 381.3 302.12 395.77C304.08 401.97 301.8 405.26 295.41 405.26C233.26 405.31 171.12 405.31 108.97 405.26C102.11 405.26 99.7502 401.77 101.76 395.17C106.88 378.36 121.39 367.3 138.86 366.94C143.02 366.86 147.21 366.68 151.35 366.97C154.88 367.22 156.25 365.66 156.3 362.47C156.36 358.2 156.32 353.93 156.32 349.41H156.3Z" fill="#176B87"/>
<path d="M64.6598 234.34H82.1298C82.1298 225.97 82.1298 217.86 82.1298 209.75C82.1298 206.92 82.1298 204.08 82.1498 201.25C82.1698 197.14 84.0598 194.52 88.2698 194.17C92.0298 193.86 94.7798 196.83 94.8298 201.3C94.9298 209.63 94.8598 217.97 94.8698 226.3C94.8698 228.79 94.8698 231.28 94.8698 234.2H120.89C121 232.48 121.2 230.73 121.2 228.98C121.22 212.98 121.21 196.98 121.22 180.98C121.22 179.65 121.19 178.31 121.26 176.98C121.47 173.16 123.26 170.38 127.27 170.36C131.37 170.35 133.73 172.96 133.86 177.03C134.05 183.02 133.92 189.03 133.92 195.03C133.92 208 133.92 220.97 133.92 234.28H160.31C160.31 226.3 160.31 218.52 160.31 210.75C160.31 207.42 160.31 204.08 160.36 200.75C160.43 196.79 162.53 194.21 166.42 194.24C170.4 194.27 172.92 196.69 172.95 200.93C173.01 210.43 172.98 219.93 172.99 229.43C172.99 230.91 172.99 232.39 172.99 234.25H199.44C199.44 232.26 199.44 230.33 199.44 228.41C199.44 203.74 199.44 179.08 199.45 154.41C199.45 152.58 198.94 150.29 199.83 149.03C201.29 146.96 203.7 144.25 205.7 144.26C207.75 144.26 210.13 146.95 211.71 148.97C212.54 150.03 212.04 152.19 212.04 153.85C212.05 178.52 212.04 203.18 212.04 227.85C212.04 229.84 212.04 231.82 212.04 234.64C218.47 234.64 224.57 234.63 230.68 234.64C237.53 234.66 240.78 236.6 240.93 240.75C241.09 245.1 237.76 247.18 230.6 247.18C174.44 247.18 118.29 247.18 62.1298 247.18C53.6398 247.18 51.8898 245.43 51.8798 236.96C51.8798 178.79 51.8798 120.63 51.8798 62.46C51.8798 60.96 51.8098 59.45 51.9998 57.97C52.4498 54.48 54.6098 52.55 58.0398 52.49C61.4398 52.43 63.7698 54.23 64.3798 57.66C64.6998 59.44 64.6298 61.31 64.6298 63.14C64.6398 118.14 64.6298 173.14 64.6298 228.14V234.32L64.6598 234.34Z" fill="#176B87"/>
<path d="M164.79 137.3C173.63 125.16 182.14 113.48 190.65 101.79C193.59 97.75 196.51 93.7 199.48 89.69C201.97 86.32 205.38 85.57 208.66 87.83C212.12 90.21 212.02 93.78 209.65 97.05C196.95 114.57 184.22 132.07 171.4 149.49C168.44 153.51 165.32 153.72 161.14 150.46C150.65 142.26 140.23 133.97 129.78 125.72C128.74 124.9 127.66 124.14 125.85 122.8C117.01 131.84 108.2 140.87 99.3699 149.88C96.6899 152.61 94.0099 155.35 91.2199 157.97C88.4099 160.61 85.2899 161.11 82.3699 158.26C79.2699 155.24 79.6799 151.94 82.5599 149.04C95.3399 136.16 108.18 123.34 121.03 110.53C124.56 107.01 127.95 108.45 131.24 111.04C140.92 118.66 150.59 126.28 160.28 133.89C161.58 134.91 162.92 135.89 164.8 137.3H164.79Z" fill="#176B87"/>
<path d="M296.081 208.85C285.911 208.85 275.751 208.89 265.581 208.83C260.231 208.8 257.221 206.29 257.391 202.25C257.551 198.4 260.461 196.09 265.511 196.08C285.671 196.04 305.841 196.08 326.001 196.05C329.641 196.05 332.641 197.01 333.861 200.83C335.261 205.21 332.411 208.72 327.071 208.8C316.741 208.94 306.411 208.84 296.071 208.85H296.081Z" fill="#176B87"/>
<path d="M295.95 247.9C285.95 247.9 275.95 247.92 265.95 247.9C260.41 247.88 257.46 245.71 257.38 241.73C257.3 237.7 260.34 235.17 265.64 235.16C285.64 235.11 305.64 235.14 325.63 235.14C326.13 235.14 326.63 235.14 327.13 235.17C331.58 235.55 334.38 238.18 334.14 242.02C333.86 246.45 330.93 247.89 326.95 247.9C316.62 247.9 306.29 247.9 295.95 247.9Z" fill="#176B87"/>
<path d="M295.77 149.86C325.693 149.86 349.95 125.603 349.95 95.68C349.95 65.7572 325.693 41.5 295.77 41.5C265.847 41.5 241.59 65.7572 241.59 95.68C241.59 125.603 265.847 149.86 295.77 149.86Z" fill="#FFBC00"/>
<path d="M270.031 122.98C269.141 122.98 268.301 122.81 267.521 122.47C266.741 122.13 266.041 121.66 265.441 121.07C264.841 120.48 264.361 119.79 264.001 119C263.641 118.21 263.471 117.38 263.471 116.49C263.471 115.44 263.701 114.44 264.151 113.48L289.891 62.0099C290.441 60.9199 291.251 60.0399 292.321 59.3799C293.391 58.7199 294.541 58.3899 295.771 58.3899C297.001 58.3899 298.151 58.7199 299.221 59.3799C300.291 60.0399 301.101 60.9199 301.651 62.0099L327.391 113.48C327.851 114.44 328.071 115.44 328.071 116.49C328.071 117.38 327.891 118.22 327.541 119C327.191 119.78 326.711 120.48 326.121 121.07C325.531 121.66 324.831 122.13 324.041 122.47C323.241 122.81 322.401 122.98 321.511 122.98H270.041H270.031ZM321.501 118.6C322.051 118.6 322.551 118.39 323.001 117.98C323.461 117.57 323.681 117.08 323.681 116.51C323.681 116.1 323.601 115.74 323.441 115.42L297.701 63.9499C297.521 63.5599 297.251 63.2699 296.901 63.0599C296.551 62.8499 296.171 62.7499 295.761 62.7499C295.351 62.7499 294.971 62.8599 294.611 63.0699C294.261 63.2899 293.991 63.5799 293.811 63.9399L268.071 115.41C267.911 115.73 267.831 116.08 267.831 116.47C267.831 117.06 268.051 117.56 268.501 117.97C268.951 118.38 269.451 118.59 270.021 118.59H321.491L321.501 118.6ZM292.481 107.59C292.481 106.68 292.801 105.9 293.441 105.27C294.081 104.63 294.851 104.31 295.761 104.31C296.671 104.31 297.451 104.63 298.081 105.27C298.721 105.91 299.041 106.68 299.041 107.59C299.041 108.5 298.721 109.28 298.081 109.91C297.441 110.55 296.671 110.87 295.761 110.87C294.851 110.87 294.071 110.55 293.441 109.91C292.801 109.27 292.481 108.5 292.481 107.59ZM293.571 98.8399V81.3399C293.571 80.7499 293.791 80.2399 294.221 79.7999C294.651 79.3699 295.171 79.1499 295.761 79.1499C296.351 79.1499 296.861 79.3699 297.301 79.7999C297.731 80.2299 297.951 80.7499 297.951 81.3399V98.8399C297.951 99.4299 297.731 99.9499 297.301 100.38C296.871 100.81 296.351 101.03 295.761 101.03C295.171 101.03 294.651 100.81 294.221 100.38C293.791 99.9499 293.571 99.4299 293.571 98.8399Z" fill="white"/>
</svg>
