<svg width="60" height="60" viewBox="0 0 60 60" fill="none" xmlns="http://www.w3.org/2000/svg">
<path d="M47.5 0H12.5C5.59667 0 0 5.59667 0 12.5V47.5C0 54.4033 5.59667 60 12.5 60H47.5C54.4033 60 60 54.4033 60 47.5V12.5C60 5.59667 54.4033 0 47.5 0ZM19.7517 18.6633C20.0417 12.5583 24.955 8.66 30.2667 8.76667C36.275 8.99 40.42 13.9017 40.255 19.2583C40.065 25.4133 35.0367 29.4083 29.8417 29.2917C23.6567 29.1533 19.4983 23.99 19.7517 18.6617V18.6633ZM42.055 49.8517H18.0217C16.1267 49.8517 14.5883 48.3167 14.5883 46.42C14.5883 44.64 14.5883 42.5567 14.5983 41.1733C14.61 39.6017 15.0567 38.1417 15.8633 36.7883C16.4867 35.7433 17.3333 34.9217 18.3167 34.2233C19.455 33.4133 20.735 32.9967 22.1017 32.82C22.4817 32.7717 22.8667 32.7483 23.25 32.7483C27.7867 32.7433 32.3217 32.7483 36.8583 32.7433C38.305 32.7433 39.6767 33.0667 40.935 33.765C43.165 35.0033 44.595 36.8717 45.1867 39.365C45.35 40.05 45.41 40.7467 45.4117 41.45C45.4117 42.775 45.4117 44.7767 45.4117 46.495C45.4117 48.35 43.9083 49.8517 42.055 49.8517Z" fill="#176B87"/>
</svg>
