<?xml version="1.0" encoding="UTF-8"?>
<svg id="Camada_1" data-name="Camada 1" xmlns="http://www.w3.org/2000/svg" viewBox="0 0 400.18 400.18">
  <defs>
    <style>
      .cls-1 {
        fill: #176b87;
      }
    </style>
  </defs>
  <path class="cls-1" d="m308.73,0H91.45C40.95,0,0,40.95,0,91.45v217.27c0,50.51,40.95,91.45,91.45,91.45h217.27c50.51,0,91.45-40.95,91.45-91.45V91.45c0-50.51-40.95-91.45-91.45-91.45Zm28.8,155.5c-27.93,27.95-55.87,55.9-83.81,83.85-32.71,32.71-65.42,65.41-98.13,98.11-4.12,4.12-6,4.12-10.08.05-6.75-6.75-13.51-13.48-20.23-20.25-3.19-3.22-3.29-4.31-.9-8.19,1.35-2.18,1.47-4.28-.42-6.12-1.87-1.83-3.95-1.7-6.14-.34-3.69,2.3-4.95,2.17-7.95-.77-3.85-3.77-7.6-7.64-11.45-11.41-2.37-2.32-2.84-4.75-.76-7.47,1.65-2.16,1.91-4.34-.07-6.37-1.97-2.02-4.21-1.92-6.36-.28-2.88,2.19-5.31,1.63-7.73-.82-6.95-7.02-13.97-13.97-20.95-20.96-3.53-3.54-3.46-5.67.24-9.38,22.06-22.08,44.12-44.16,66.19-66.23,38.58-38.58,77.16-77.17,115.77-115.71,1.36-1.36,3.11-2.34,4.84-3.6,1.71,1.12,3.18,1.77,4.25,2.83,7.12,7.01,14.17,14.09,21.2,21.19,3.02,3.05,3.15,4.36.87,7.93-1.38,2.16-1.61,4.25.22,6.13,1.94,1.99,4.19,1.97,6.37.31,2.84-2.16,5.32-1.72,7.74.77,3.75,3.86,7.56,7.68,11.42,11.44,2.48,2.42,2.97,4.88.78,7.73-1.67,2.18-1.72,4.4.3,6.35,1.89,1.83,3.97,1.63,6.13.27,3.62-2.29,4.89-2.17,7.93.84,6.94,6.87,13.83,13.79,20.74,20.7,3.6,3.61,3.61,5.77,0,9.38Z"/>
  <path class="cls-1" d="m308.61,134.66c-9.22,2.18-18.16-5.81-16.48-15.03.78-4.27-.42-6.7-3.37-9.05-.52-.42-1.01-.91-1.42-1.44-1.1-1.41-2.28-1.57-4.08-1.13-11.16,2.75-19.84-6.1-17.32-17.42.23-1.02.08-2.57-.56-3.25-5.08-5.37-10.32-10.59-15.39-15.73-59.65,59.66-119.03,119.05-178.69,178.73,4.79,4.7,9.73,9.43,14.53,14.3,1.56,1.58,2.88,2.14,5.24,1.56,10.17-2.5,19.22,6.28,16.82,16.42-.67,2.85,0,4.42,1.98,6.02.78.63,1.51,1.36,2.14,2.14,1.53,1.91,3.13,2.44,5.74,1.83,9.85-2.32,18.82,6.21,16.68,16.04-.74,3.39.03,5.3,2.22,6.63,59.61-59.6,118.95-118.92,178.36-178.31-1.34-2.06-3.07-3.1-6.39-2.31Zm-217.81,119.86c-2.41-.12-4.43-2.26-4.37-4.65.06-2.45,2.1-4.44,4.56-4.46,2.62-.02,4.75,2.09,4.7,4.65-.06,2.56-2.28,4.58-4.89,4.46ZM245.14,91.03c.13-2.47,2.18-4.33,4.67-4.24,2.54.09,4.43,2.04,4.4,4.54-.02,2.58-2.18,4.71-4.7,4.63-2.55-.08-4.51-2.29-4.37-4.93Zm-88.34,185.63c-2.75,3.23-5.89,6.15-8.96,9.1-4.72,4.53-9.82,4.52-14.51-.12-8.45-8.35-16.86-16.75-25.2-25.21-4.46-4.52-4.43-9.68-.03-14.28,2.94-3.08,5.95-6.1,9.03-9.03,4.37-4.17,9.45-4.32,13.77-.11,8.82,8.62,17.54,17.34,26.11,26.2,1.6,1.65,2.31,4.16,3.62,6.62-1.36,2.5-2.23,4.97-3.82,6.83Zm29.66-29.57c-3,3.17-6.09,6.27-9.27,9.27-4.15,3.93-9.5,4.03-13.55.06-8.73-8.55-17.37-17.19-25.93-25.91-4.36-4.44-4.26-9.57.03-14.02,3.03-3.15,6.02-6.37,9.33-9.2,1.85-1.58,4.32-2.43,6.79-3.76,2.5,1.35,4.99,2.08,6.64,3.67,8.78,8.49,17.41,17.14,25.96,25.86,4.35,4.44,4.27,9.49-.02,14.02Zm29.88-29.93c-3.07,3.27-6.26,6.44-9.51,9.53-3.97,3.76-9.46,3.89-13.33.1-8.82-8.63-17.56-17.36-26.19-26.17-4.19-4.28-4.05-9.45.1-13.78,3.03-3.16,6.02-6.38,9.35-9.21,1.86-1.58,4.35-2.4,6.84-3.71,2.5,1.3,5.02,1.98,6.67,3.57,8.8,8.49,17.44,17.15,26,25.89,4.19,4.27,4.14,9.46.08,13.79Zm69.15-69.11c-16.21,16.31-32.47,32.57-48.85,48.71-1.71,1.68-4.33,2.43-6.81,3.77-2.48-1.33-4.98-2.05-6.63-3.65-8.86-8.58-17.58-17.32-26.22-26.13-4.06-4.14-4.05-9.39.04-13.5,16.28-16.4,32.61-32.75,49-49.03,4.37-4.34,9.63-4.24,14.02.09,8.55,8.43,17.03,16.91,25.46,25.46,4.47,4.53,4.5,9.73,0,14.27Z"/>
  <path class="cls-1" d="m204.11,163.72c8.75,8.79,17.41,17.48,25.59,25.7,3.1-2.91,6.34-5.96,9.58-9-4.56-5.65-5.21-7.5-2.81-9.62,4.49-3.98,6.88.75,9.51,2.56,2.36-2.11,4.55-4.08,6.73-6.03-4.63-5.27-5.42-7.49-3.16-9.63,4.64-4.39,7.01.76,10.14,2.74,2.12-2.1,4.18-4.13,6.29-6.21-2.11-3.02-7-5.51-3.12-9.68,4.2-4.52,6.97.64,9.65,2.41,2.39-2.11,4.55-4.01,6.26-5.51-8.89-8.98-17.52-17.7-26.04-26.31-16.15,16.14-32.42,32.4-48.61,48.58Zm39.46-13.85c-4.76,5.06-9.76,9.9-14.72,14.76-.51.5-1.42.58-2.69,1.06-1.12-.82-3.01-1.52-3.53-2.78-.58-1.41-.57-3.93.33-4.92,4.44-4.9,9.18-9.54,14.01-14.06,1.72-1.61,4.05-1.42,5.84.23,1.74,1.61,2.48,3.88.76,5.71Zm13.9-15.55c-.02,2.52-1.92,4.53-4.39,4.62-2.49.09-4.74-2.14-4.7-4.68.04-2.56,2.27-4.71,4.77-4.6,2.44.11,4.33,2.15,4.31,4.66Z"/>
  <path class="cls-1" d="m144.93,222.81c8.81,8.92,17.42,17.65,25.7,26.04,2.91-2.74,6.08-5.71,9.16-8.6-8.78-8.76-17.47-17.43-26.18-26.13-3.03,3.03-6.18,6.19-8.68,8.69Z"/>
  <path class="cls-1" d="m114.75,252.88c8.75,8.79,17.41,17.49,25.91,26.02,3.02-3,6.17-6.12,9.15-9.08-8.6-8.6-17.28-17.27-25.8-25.78-3.1,2.96-6.33,6.04-9.26,8.84Z"/>
  <path class="cls-1" d="m174.18,193.49c8.76,8.78,17.42,17.46,26,26.07,3.05-2.98,6.23-6.08,9.18-8.96-8.72-8.71-17.39-17.39-25.99-25.99-2.97,2.87-6.17,5.96-9.19,8.88Z"/>
  <path class="cls-1" d="m158.06,309.77c1.69,1.81,3.65,3.9,5.2,5.55,50.69-50.69,101.2-101.2,151.82-151.81-1.71-1.69-3.68-3.64-5.4-5.35-50.72,50.71-101.23,101.22-151.62,151.61Z"/>
  <path class="cls-1" d="m316.16,150.79c2.11,2.26,4.09,4.36,6.21,6.62,2.14-2.27,4.12-4.38,5.93-6.3-2.01-2.19-4.02-4.37-5.63-6.12-2.23,1.99-4.44,3.95-6.51,5.8Z"/>
  <path class="cls-1" d="m144.4,322.45c2.19,2.26,4.25,4.38,6.24,6.44,2.1-2.01,4.19-4.01,6.4-6.14-2.24-2.21-4.35-4.31-6.35-6.28-2.23,2.12-4.38,4.17-6.29,5.98Z"/>
</svg>