<?xml version="1.0" encoding="UTF-8"?>
<svg id="Camada_1" data-name="Camada 1" xmlns="http://www.w3.org/2000/svg" viewBox="0 0 400.18 400.18">
  <defs>
    <style>
      .cls-1 {
        fill: #176b87;
      }
    </style>
  </defs>
  <path class="cls-1" d="m85.87,314.34h75.81v-63.18h-75.81v63.18Z"/>
  <path class="cls-1" d="m238.5,314.34h75.81v-63.18h-75.81v63.18Z"/>
  <path class="cls-1" d="m237.99,85.79h-75.86v63.15h75.86v-63.15Z"/>
  <path class="cls-1" d="m308.73,0H91.45C40.95,0,0,40.95,0,91.45v217.27c0,50.51,40.95,91.45,91.45,91.45h217.27c50.51,0,91.45-40.95,91.45-91.45V91.45c0-50.51-40.95-91.45-91.45-91.45Zm39.43,205.98c-1.64.4-3.38.53-5.07.53-18.47.04-36.93.02-55.4.02-1.44,0-2.88,0-4.56,0v31.72c1.41,0,2.72,0,4.02,0,10.64,0,21.28-.02,31.92,0,5.83.02,8.17,2.2,8.18,7.86.04,24.47.04,48.94,0,73.4-.01,5.53-2.26,7.73-7.88,7.73-28.62.04-57.24.04-85.85,0-5.62,0-7.87-2.2-7.88-7.74-.05-24.47-.05-48.94,0-73.4.01-5.66,2.36-7.84,8.19-7.86,11.85-.03,23.7,0,35.87,0v-31.42h-139.23v31.42c1.24,0,2.52,0,3.8,0,10.64,0,21.28-.01,31.92,0,6.24.01,8.44,2.14,8.45,8.34.03,24.1.03,48.2,0,72.3,0,6.29-2.08,8.36-8.37,8.37-28.25.02-56.5.02-84.75,0-6.49,0-8.51-2.05-8.52-8.59-.02-23.98-.02-47.96,0-71.93,0-6.4,2.17-8.48,8.67-8.49,11.72-.01,23.44,0,35.44,0v-31.72h-4.28c-18.59,0-37.18,0-55.77,0-6.36,0-9.65-2.3-9.51-6.62.14-4.2,3.25-6.26,9.49-6.26,43.78,0,87.56,0,131.34,0h5.14v-31.72h-3.98c-10.64,0-21.28.02-31.92,0-6.03-.01-8.31-2.18-8.32-8.1-.03-24.35-.04-48.69,0-73.04,0-5.61,2.21-7.85,7.75-7.86,28.74-.04,57.48-.04,86.22,0,5.37,0,7.63,2.25,7.64,7.6.05,24.59.05,49.18,0,73.77-.01,5.27-2.41,7.59-7.68,7.61-10.76.06-21.52.02-32.29.02-1.32,0-2.64,0-4.17,0v31.72h4.82c43.78,0,87.56,0,131.35.02,1.69,0,3.43.13,5.07.5,3.04.68,4.56,2.95,4.6,5.86.04,2.92-1.46,5.21-4.48,5.95Z"/>
</svg>