<svg width="65" height="65" viewBox="0 0 65 65" fill="none" xmlns="http://www.w3.org/2000/svg">
<path d="M37.8248 36.3532C35.0309 39.2711 35.0982 43.5784 36.8014 46.1078C40.4797 42.4265 44.161 38.7422 47.8379 35.0623C45.2039 33.3068 40.7442 33.3038 37.8248 36.3532Z" fill="#A1DCE9"/>
<path d="M39.4521 48.7956C42.63 50.8424 47.26 50.4017 49.9956 46.9803C52.5131 43.8308 52.029 39.9254 50.5111 37.7277C46.8268 41.415 43.1424 45.1023 39.4521 48.7956Z" fill="#A1DCE9"/>
<path d="M32.5 0C14.5505 0 0 14.5505 0 32.5C0 50.4495 14.5505 65 32.5 65C50.4495 65 65 50.4495 65 32.5C65 14.5505 50.4495 0 32.5 0ZM30.5234 52.0317C30.5144 52.8967 29.612 53.7483 28.6633 53.7364C27.3665 53.7199 26.0681 53.7304 24.7713 53.7304C23.9212 53.7304 23.0696 53.7304 22.2195 53.7304V53.7364C20.3325 53.7364 18.4455 53.7319 16.5585 53.7364C14.298 53.7439 12.4454 52.8743 11.0201 51.1308C10.1715 50.0924 9.68142 48.8852 9.57684 47.5436C9.45283 45.9479 9.67694 44.3896 10.1341 42.8612C10.9304 40.1988 12.3916 37.9682 14.4743 36.1395C15.7174 35.0473 17.1173 34.2092 18.6547 33.6086C20.4251 32.9168 22.2658 32.6031 24.1677 32.6195C25.6573 32.633 27.1468 32.6195 28.6379 32.6255C29.3819 32.6285 29.9631 32.9422 30.371 33.5697C30.4546 33.6997 30.4576 33.8058 30.371 33.9432C29.3909 35.506 28.7529 37.2092 28.4108 39.0125C28.1374 40.4483 28.106 41.9065 28.2166 43.3707C28.3137 44.663 28.6005 45.9076 29.0278 47.1207C29.37 48.0919 29.7988 49.0286 30.356 49.8997C30.489 50.1088 30.5592 50.324 30.5458 50.581C30.5219 51.0635 30.5308 51.5491 30.5249 52.0332L30.5234 52.0317ZM19.4674 17.0755C19.4659 10.4763 24.9058 5.2964 31.2868 5.31283C37.5663 5.31881 43.0405 10.4374 43.042 17.1188C43.0435 23.5671 37.8054 28.8515 31.3092 28.8874C24.9476 28.9233 19.4689 23.8076 19.4674 17.0755ZM43.6456 53.7349C37.1525 53.6901 31.8292 48.3892 31.8889 41.7945C31.9487 35.3417 37.384 29.9885 43.9713 30.1573C50.2986 30.3202 55.5442 35.5628 55.4545 42.1142C55.3664 48.5476 50.0864 53.7229 43.6441 53.7334L43.6456 53.7349Z" fill="#A1DCE9"/>
</svg>
