<svg width="60" height="60" viewBox="0 0 60 60" fill="none" xmlns="http://www.w3.org/2000/svg">
<path d="M47.5 0H12.5C5.59667 0 0 5.59667 0 12.5V47.5C0 54.4033 5.59667 60 12.5 60H47.5C54.4033 60 60 54.4033 60 47.5V12.5C60 5.59667 54.4033 0 47.5 0ZM23.9317 29.9067C24.0017 30.32 24.18 30.7033 24.4567 31.03C24.6217 31.225 24.7883 31.4217 24.9683 31.6017C27.775 34.4133 30.5833 37.2217 33.3883 40.0333C33.5467 40.1933 33.6867 40.375 33.8133 40.5633C33.9933 40.8317 34.0433 41.14 34.0383 41.46C34.03 42.1667 33.48 42.8667 32.84 43.0433C32.1233 43.24 31.5317 43.0433 31.0217 42.5433C30.4667 42.0017 29.9267 41.445 29.3783 40.8967C27.045 38.5633 24.71 36.23 22.3783 33.8933C22.0167 33.53 21.6867 33.135 21.42 32.6967C21.065 32.1133 20.7933 31.495 20.6317 30.825C20.5117 30.3317 20.4483 29.835 20.4467 29.3267C20.46 29.0633 20.455 28.7983 20.4933 28.54C20.545 28.2017 20.6267 27.8667 20.7083 27.5333C20.7617 27.315 20.8267 27.0983 20.9083 26.8917C20.985 26.6983 21.0867 26.515 21.1883 26.3333C21.275 26.1767 21.38 26.03 21.4717 25.8767C21.7567 25.4017 22.1317 25.0017 22.52 24.6133C24.1317 23 25.745 21.39 27.355 19.775C28.5717 18.5533 29.7833 17.3267 30.9967 16.1017C31.2817 15.815 31.6067 15.595 32.0067 15.51C32.8583 15.3317 33.6833 15.7867 33.97 16.61C34.1267 17.0617 34.1117 17.5117 33.8817 17.9483C33.77 18.16 33.6317 18.345 33.4667 18.51C31.0483 20.9367 28.6267 23.3633 26.2067 25.79C25.6517 26.3467 25.09 26.8983 24.545 27.465C24.3233 27.6967 24.1717 27.9783 24.055 28.2833C23.8517 28.8133 23.8383 29.36 23.9317 29.9033V29.9067Z" fill="#176B87"/>
</svg>
