<svg width="584" height="515" viewBox="0 0 584 515" fill="none" xmlns="http://www.w3.org/2000/svg">
<path d="M33 239.5C33 107.228 140.228 0 272.5 0C404.772 0 512 107.228 512 239.5V495C512 506.046 503.046 515 492 515H53C41.9543 515 33 506.046 33 495V239.5Z" fill="#A1DCE9"/>
<g clip-path="url(#clip0_305_2)">
<path d="M0.555061 187.638L15.7713 114.174C16.3726 111.21 18.9626 109.033 21.9689 108.986L365.468 100C367.55 99.9537 369.538 100.88 370.833 102.548L582.659 379.081C585.943 383.389 582.89 389.596 577.479 389.596H568.969C565.685 389.596 562.864 392.051 562.494 395.34L557.499 437.769C557.221 440.178 558.285 442.54 560.274 443.884C565.315 447.404 563.141 455.325 557.036 455.742L199.708 481.728C197.395 481.913 195.129 480.801 193.834 478.856L1.52631 192.641C0.555061 191.205 0.18506 189.399 0.555061 187.685V187.638Z" fill="#176B87"/>
<path d="M16.835 109.125L0 190.325L184.815 465.562L191.383 475.335L212.01 390.893C212.565 388.577 212.149 386.122 210.808 384.13C196.054 362.406 106.098 230.485 16.835 109.125Z" fill="#2C8CAC"/>
<path d="M226.949 461.949C226.348 464.728 228.614 467.322 231.436 467.09L558.748 442.448C557.776 441.151 557.268 439.483 557.453 437.769L562.355 395.849L239.668 416.694C237.772 416.833 236.153 418.176 235.783 420.075L226.903 461.902L226.949 461.949Z" fill="#D8C3A4"/>
<path d="M234.812 424.892L236.569 416.138C237.17 413.266 239.622 411.089 242.535 410.904L565.361 390.708L562.401 395.896L239.02 416.833C237.725 416.925 236.662 417.805 236.338 419.056L234.812 424.892Z" fill="#BA9E7B"/>
<path d="M266.678 424.846L307.378 422.159C307.887 422.159 308.303 422.576 308.257 423.086L303.262 461.486C303.262 461.486 303.262 461.763 303.308 461.902L308.303 473.714C308.303 473.714 308.35 473.946 308.35 474.038V485.989C308.35 486.591 307.748 486.962 307.193 486.73L289.063 478.717C289.063 478.717 288.601 478.624 288.37 478.717L268.759 488.861C268.204 489.139 267.557 488.722 267.557 488.12L267.742 477.003C267.742 477.003 267.742 476.725 267.649 476.586L261.267 465.052C261.267 465.052 261.128 464.728 261.174 464.543L265.938 425.494C265.984 425.124 266.308 424.8 266.678 424.8V424.846Z" fill="#E2A344"/>
<path d="M303.216 461.486L308.211 423.086C308.257 422.576 307.841 422.113 307.332 422.159L266.632 424.846C266.262 424.846 265.938 425.17 265.892 425.541L261.128 464.589C261.128 464.589 261.128 464.774 261.174 464.867L303.169 461.717C303.169 461.717 303.169 461.578 303.169 461.486H303.216Z" fill="#BF923A"/>
<path d="M267.695 476.818C267.695 476.818 267.742 476.957 267.742 477.049L267.557 488.166C267.557 488.768 268.204 489.185 268.759 488.907L288.369 478.763C288.369 478.763 288.832 478.624 289.063 478.763L307.193 486.777C307.748 487.008 308.349 486.638 308.349 486.035V474.085C308.349 474.085 308.349 473.992 308.349 473.9L267.742 476.864L267.695 476.818Z" fill="#BF923A"/>
<path d="M175.334 254.757H275.835L306.268 241" stroke="#F1CA65" stroke-linecap="round" stroke-linejoin="round"/>
<path d="M441.319 254.757H340.817L310.338 241" stroke="#F1CA65" stroke-linecap="round" stroke-linejoin="round"/>
<path opacity="0.2" d="M418.194 295.936H341.788C335.36 295.936 329.902 291.211 328.977 284.865L320.652 228.447C319.496 220.619 325.555 213.578 333.463 213.578H418.194C425.362 213.578 431.144 219.368 431.144 226.548V282.966C431.144 290.146 425.362 295.936 418.194 295.936Z" fill="#AAE5D9"/>
<path opacity="0.2" d="M198.829 295.936H275.234C281.663 295.936 287.12 291.211 288.045 284.865L296.37 228.447C297.527 220.619 291.468 213.578 283.559 213.578H198.829C191.66 213.578 185.879 219.368 185.879 226.548V282.966C185.879 290.146 191.66 295.936 198.829 295.936Z" fill="#AAE5D9"/>
<path d="M418.194 295.936H341.788C335.36 295.936 329.902 291.211 328.977 284.865L320.652 228.447C319.496 220.619 325.555 213.578 333.463 213.578H418.194C425.362 213.578 431.144 219.368 431.144 226.548V282.966C431.144 290.146 425.362 295.936 418.194 295.936Z" stroke="#F1CA65" stroke-linecap="round" stroke-linejoin="round"/>
<path d="M198.829 295.936H275.234C281.663 295.936 287.12 291.211 288.045 284.865L296.37 228.447C297.527 220.619 291.468 213.578 283.559 213.578H198.829C191.66 213.578 185.879 219.368 185.879 226.548V282.966C185.879 290.146 191.66 295.936 198.829 295.936Z" stroke="#F1CA65" stroke-linecap="round" stroke-linejoin="round"/>
</g>
<defs>
<clipPath id="clip0_305_2">
<rect width="584" height="389" fill="white" transform="translate(0 100)"/>
</clipPath>
</defs>
</svg>
