<svg width="143" height="66" viewBox="0 0 143 66" fill="none" xmlns="http://www.w3.org/2000/svg">
<path d="M47.6587 11.8216V11.2072C46.043 10.893 44.5026 10.6393 42.9809 10.2924C38.4707 9.26536 34.21 7.6239 30.1238 5.55611C30.7051 7.28732 31.03 9.10312 31.0983 11C31.4505 11.1571 31.8027 11.3107 32.1584 11.4609L33.3176 8.93569L35.0222 12.6001C37.2328 13.4148 39.4948 14.1017 41.8132 14.6471C43.2135 14.9768 43.21 14.9889 43.21 16.4508V27.8703H43.2169C43.2169 31.8592 43.234 35.848 43.2066 39.8369C43.1964 41.5094 42.615 43.0508 41.9123 44.5369C40.2932 47.9579 37.8535 50.7351 35.0871 53.2379C31.801 56.2118 28.1354 58.6438 24.2748 60.7806C24.068 60.8963 23.7055 60.9429 23.5157 60.8376C21.6897 59.8227 19.9048 58.7525 18.1865 57.5944C19.5577 56.7641 20.9853 56.0237 22.442 55.3367C25.2289 54.0232 28.0362 52.7684 30.5444 50.9319C33.0611 49.0885 35.1504 46.9119 36.2121 43.8827C37.0926 41.3714 37.0431 38.8341 36.5233 36.138C32.6456 38.6787 28.8312 41.1245 24.2851 42.0204C25.1365 41.544 26.0307 41.1332 26.8275 40.5774C29.6776 38.5924 32.0524 36.1277 33.7963 33.0967C34.605 31.6917 35.2273 30.2626 35.6462 28.8127C35.653 28.7868 35.6599 28.7627 35.6684 28.7368C35.7009 28.6246 35.7317 28.5124 35.7608 28.3985C35.7676 28.3709 35.7744 28.345 35.7813 28.3174C35.8497 28.0481 35.9129 27.7771 35.9676 27.5061C35.9728 27.4785 35.9779 27.4526 35.983 27.425C36.007 27.3024 36.0309 27.1782 36.0514 27.0556C36.0531 27.0435 36.0565 27.0297 36.0583 27.0176C36.0822 26.8796 36.1027 26.7415 36.1232 26.6034C36.1266 26.5827 36.1284 26.5602 36.1318 26.5395C36.1489 26.4222 36.1625 26.3048 36.1762 26.1874C36.1796 26.1598 36.1831 26.1322 36.1865 26.1046C36.2173 25.8336 36.2395 25.5609 36.2549 25.2864C36.2566 25.2554 36.2583 25.2226 36.26 25.1915C36.2651 25.0759 36.2703 24.9602 36.2737 24.8428C36.2737 24.8204 36.2737 24.7997 36.2754 24.7772C36.2788 24.6426 36.2788 24.5063 36.2788 24.3716C36.2788 24.3423 36.2788 24.3129 36.2788 24.2853C36.2788 24.1766 36.2754 24.0678 36.272 23.9574C36.272 23.9211 36.2703 23.8849 36.2686 23.8486C36.2634 23.714 36.2566 23.5794 36.248 23.4447C36.248 23.4361 36.248 23.4292 36.2463 23.4206C36.2378 23.2946 36.2275 23.1669 36.2155 23.0391C36.2121 22.9994 36.207 22.958 36.2036 22.9183C36.1933 22.813 36.1814 22.7077 36.1694 22.6024C36.166 22.5697 36.1625 22.5369 36.1574 22.5041C36.1403 22.3712 36.1215 22.24 36.101 22.1071C36.0959 22.0708 36.089 22.0346 36.0839 21.9983C36.0668 21.8965 36.0497 21.7929 36.0309 21.6911C36.0241 21.6479 36.0155 21.6065 36.007 21.5634C35.983 21.4339 35.9574 21.3045 35.9283 21.1733C35.9249 21.156 35.9215 21.1405 35.9181 21.1232C35.8907 21.0007 35.8616 20.8764 35.8326 20.7539C35.8223 20.7107 35.8103 20.6676 35.8001 20.6227C35.7744 20.5191 35.7471 20.4156 35.718 20.3103C35.7078 20.274 35.6992 20.2395 35.689 20.2033C35.6513 20.0686 35.612 19.934 35.571 19.8011C35.5607 19.7666 35.5488 19.7303 35.5385 19.6958C35.506 19.5888 35.4718 19.4835 35.4359 19.3765C35.4222 19.3351 35.4086 19.2954 35.3949 19.2539C35.3487 19.1158 35.2991 18.9778 35.2496 18.8397C34.7435 17.4658 34.0288 16.1695 33.3347 14.6799C33.2304 14.906 33.1261 15.1304 33.0201 15.3531C32.9859 15.4256 32.95 15.4981 32.9158 15.5706C32.844 15.7225 32.7705 15.8726 32.6969 16.0228C32.6559 16.1074 32.6149 16.1902 32.5721 16.2731C32.502 16.4129 32.4336 16.551 32.3618 16.6908C32.3191 16.7736 32.2763 16.8582 32.2336 16.941C32.1601 17.0843 32.0849 17.2258 32.0113 17.3691C31.972 17.4433 31.9327 17.5175 31.8934 17.5918C31.7959 17.7747 31.6967 17.956 31.5976 18.1372C31.5805 18.1683 31.5634 18.1993 31.5463 18.2304C31.4283 18.4427 31.3103 18.6533 31.1907 18.8621C31.1582 18.9191 31.124 18.976 31.0915 19.033C31.0026 19.1849 30.9154 19.3368 30.8248 19.4869C30.782 19.5577 30.741 19.6268 30.6983 19.6975C30.6145 19.8356 30.5307 19.9737 30.4452 20.1118C30.4025 20.1825 30.358 20.2516 30.3153 20.3206C30.2264 20.4639 30.1358 20.6054 30.0452 20.747C30.0075 20.8056 29.9682 20.866 29.9306 20.9247C29.8143 21.1025 29.6964 21.2803 29.5784 21.4564C29.5647 21.4771 29.551 21.4961 29.5374 21.5168C29.3989 21.7204 29.2587 21.9241 29.1168 22.1243C29.1048 22.1416 29.0911 22.1589 29.0792 22.1778C28.9543 22.3556 28.8261 22.5299 28.6979 22.706C28.6671 22.7492 28.6346 22.7923 28.6021 22.8337C28.4893 22.9856 28.3765 23.1358 28.2602 23.286C28.226 23.3308 28.1918 23.374 28.1576 23.4189C28.0379 23.5742 27.9165 23.7278 27.7934 23.8814C27.7678 23.9142 27.7422 23.947 27.7148 23.9781C25.6939 26.4791 23.3447 28.666 20.5545 30.4835C20.7614 30.1159 21.0947 29.8622 21.3837 29.5653C22.9754 27.9324 24.3107 26.184 25.3862 24.3268C25.4751 24.1749 25.5605 24.0212 25.6443 23.8676C25.6922 23.7813 25.7384 23.6968 25.7845 23.6104C25.87 23.4517 25.9538 23.2911 26.0358 23.1306C26.0786 23.0478 26.1196 22.9632 26.1607 22.8786C26.2256 22.7474 26.2889 22.6163 26.3504 22.4833C26.3898 22.4005 26.4291 22.3159 26.4667 22.2331C26.5453 22.0622 26.6206 21.8896 26.6941 21.717C26.7249 21.6462 26.7539 21.5772 26.783 21.5064C26.8565 21.3286 26.9283 21.1508 26.9984 20.9731C27.0309 20.8902 27.0617 20.8074 27.0925 20.7245C27.1455 20.583 27.1985 20.4414 27.248 20.2982C27.2771 20.2153 27.3079 20.1325 27.3352 20.0479C27.3985 19.8615 27.4601 19.6751 27.5199 19.4869C27.5387 19.4265 27.5575 19.3644 27.5763 19.304C27.6344 19.1124 27.6909 18.9208 27.7456 18.7275C27.7695 18.6446 27.7917 18.5601 27.814 18.4772C27.855 18.3253 27.8943 18.1734 27.9319 18.0215C27.9524 17.9387 27.973 17.8541 27.9935 17.7713C28.0414 17.571 28.0875 17.3691 28.1303 17.1654C28.1405 17.1136 28.1525 17.0636 28.1627 17.0118C28.2055 16.8064 28.2448 16.5993 28.2824 16.3904C28.2978 16.3076 28.3115 16.2247 28.3252 16.1419C28.3525 15.9796 28.3782 15.8174 28.4038 15.6534C28.4158 15.5706 28.4295 15.4894 28.4397 15.4066C28.4705 15.1857 28.4996 14.9647 28.5252 14.7438C28.5286 14.711 28.5338 14.6765 28.5372 14.6437C28.5628 14.4176 28.5833 14.1915 28.6039 13.9636C28.6107 13.8842 28.6158 13.8048 28.6227 13.7254C28.6363 13.5477 28.6483 13.3699 28.6586 13.1921C28.6637 13.1144 28.6671 13.0367 28.6722 12.9591C28.6842 12.7105 28.6945 12.4603 28.7013 12.2083C28.7064 12.0236 28.7064 11.8406 28.7064 11.6576C28.7064 11.6145 28.7064 11.5713 28.7064 11.5282C28.7047 11.3694 28.7013 11.2106 28.6945 11.0535C28.6945 11.0294 28.6945 11.0035 28.6928 10.9793C28.6842 10.7912 28.674 10.603 28.6603 10.4166C28.6603 10.4063 28.6586 10.3942 28.6569 10.3838C28.6432 10.2061 28.6278 10.0283 28.609 9.85049C28.373 7.62563 27.7165 5.54921 26.6496 3.62122C26.5898 3.51248 26.5282 3.40374 26.465 3.295C26.4376 3.2484 26.412 3.20352 26.3846 3.15692C26.3128 3.0361 26.2393 2.91527 26.1641 2.79618C26.1504 2.77374 26.135 2.74958 26.1213 2.72714C26.0324 2.58733 25.9401 2.44752 25.8478 2.30944C25.8204 2.26801 25.7914 2.22659 25.764 2.18689C25.6922 2.08333 25.6204 1.97976 25.5452 1.8762C25.5161 1.83478 25.4853 1.79335 25.4563 1.75193C25.3588 1.61902 25.2596 1.48439 25.1571 1.35321C25.1536 1.34803 25.1502 1.34458 25.1468 1.3394C25.0391 1.19959 24.9279 1.06324 24.8168 0.925155C24.7895 0.890635 24.7604 0.85784 24.7313 0.823319C24.6441 0.718031 24.5535 0.611017 24.4629 0.507455C24.4321 0.471208 24.4014 0.436687 24.3706 0.40044C24.2526 0.26581 24.1329 0.132905 24.0115 0C23.9209 0.210576 23.8286 0.367646 23.7824 0.538523C23.7311 0.724935 23.6764 0.909621 23.62 1.09258C23.6046 1.14436 23.5875 1.19614 23.5721 1.24792C23.5294 1.38428 23.4867 1.51891 23.4422 1.65354C23.4251 1.70705 23.4063 1.76228 23.3892 1.81579C23.3294 1.99702 23.2678 2.17653 23.2045 2.35604C22.2984 4.90367 21.0452 7.2856 19.5833 9.56397C19.5645 9.59503 19.544 9.62265 19.5252 9.65372C19.3542 9.9178 19.1816 10.1802 19.0072 10.4408C18.9627 10.5064 18.92 10.572 18.8755 10.6376C18.7011 10.8965 18.525 11.1536 18.3455 11.4091C18.3421 11.4125 18.3404 11.4177 18.337 11.4212C18.1591 11.6749 17.9796 11.9252 17.7984 12.1755C17.7522 12.2393 17.7061 12.3015 17.6599 12.3653C17.477 12.6156 17.2906 12.8659 17.1042 13.1144C17.1008 13.1196 17.0957 13.1248 17.0923 13.13C16.9076 13.3751 16.7196 13.6184 16.5315 13.8601C16.4836 13.9222 16.4357 13.9826 16.3879 14.0448C16.1964 14.2881 16.0049 14.5315 15.81 14.7731C15.8031 14.7818 15.7946 14.7904 15.7878 14.8008C15.598 15.0355 15.4082 15.2685 15.2167 15.5015C15.1654 15.5637 15.1158 15.6241 15.0645 15.6862C14.8679 15.9227 14.6713 16.1591 14.4713 16.3939C14.4576 16.4094 14.4456 16.4232 14.432 16.4388C14.2422 16.6614 14.0524 16.8824 13.8609 17.1016C13.8045 17.1672 13.7481 17.231 13.6916 17.2966C13.495 17.5227 13.2984 17.7471 13.0984 17.9698C13.0693 18.0026 13.0402 18.0336 13.0129 18.0664C12.8847 18.2097 12.7564 18.3547 12.6265 18.4979C11.3698 19.8943 10.0773 21.2613 8.76934 22.6145C7.35198 24.0834 5.91068 25.5298 4.47281 26.9814C4.47281 23.172 4.46597 19.3609 4.46084 15.5516C4.46084 15.158 4.52239 14.9388 4.97205 14.8405C8.51459 14.0741 11.9272 12.9729 15.227 11.5869C16.0254 10.5271 16.7897 9.44314 17.506 8.33158C18.3694 6.99045 19.108 5.68729 19.7287 4.40484C15.2441 6.87135 10.5628 8.85974 5.56361 10.0818C3.75643 10.5236 1.92019 10.8395 0.0172642 11.2296V11.958C0.0172642 20.9437 0.0394906 29.9329 0.000166928 38.9204C-0.00838169 40.9122 0.311337 42.8074 0.97642 44.6508C1.02771 44.7941 1.08071 44.9373 1.13713 45.0789C2.5203 48.6224 4.7002 51.6292 7.29727 54.3442C9.45494 56.5984 11.8058 58.5799 14.2952 60.3629C17.2085 62.4532 20.3117 64.2707 23.5157 65.9415C23.7004 66.0381 24.0303 66.0071 24.227 65.9052C28.8894 63.4784 33.3381 60.7185 37.3235 57.2492C40.8147 54.2113 43.8649 50.8024 45.8909 46.5667C46.9082 44.4351 47.6604 42.2154 47.6622 39.8162C47.6724 30.4835 47.6622 21.1508 47.6587 11.8182V11.8216Z" fill="#176B87"/>
<path d="M66.7311 21.2005L63.9505 22.2655C63.5548 21.0026 62.8287 20.3711 61.7757 20.3711C61.2818 20.3711 60.8913 20.5105 60.6039 20.791C60.3166 21.0714 60.172 21.3983 60.172 21.7717C60.172 22.2053 60.3424 22.5512 60.6813 22.8093C61.022 23.0674 61.7326 23.4046 62.8166 23.8244C63.8026 24.1909 64.5786 24.554 65.1429 24.9119C65.7073 25.2698 66.1633 25.7584 66.5109 26.3744C66.8584 26.9904 67.0322 27.7062 67.0322 28.5218C67.0322 29.9499 66.5401 31.1217 65.5576 32.037C64.5751 32.9524 63.2571 33.4101 61.6053 33.4101C58.8317 33.4101 57.0611 32.0095 56.292 29.2066L59.2291 28.3652C59.587 29.9052 60.406 30.6743 61.6845 30.6743C62.2678 30.6743 62.7392 30.5229 63.1023 30.22C63.4653 29.9172 63.646 29.5197 63.646 29.0259C63.646 28.6525 63.5187 28.317 63.264 28.0228C63.0094 27.7268 62.4261 27.4154 61.5158 27.0868C60.3424 26.6686 59.4683 26.2884 58.8919 25.9494C58.3155 25.6087 57.8423 25.1235 57.4689 24.492C57.0955 23.8606 56.908 23.1413 56.908 22.3344C56.908 20.9596 57.3502 19.8326 58.2363 18.955C59.1224 18.0775 60.2942 17.637 61.7516 17.637C64.4117 17.637 66.0721 18.826 66.7294 21.2022L66.7311 21.2005Z" fill="#176B87"/>
<path d="M69.1094 17.8711H78.4146V20.4951H72.4732V24.0482H77.0914V26.6721H72.4732V30.4386H78.4146V33.1744H69.1094V17.8711Z" fill="#176B87"/>
<path d="M87.5058 27.603L90.6115 27.7939C90.4997 29.4526 89.9732 30.8033 89.0303 31.846C88.0874 32.8887 86.8434 33.4101 85.2965 33.4101C83.4124 33.4101 81.9774 32.7115 80.9915 31.3144C80.0055 29.9172 79.5117 27.9918 79.5117 25.5399C79.5117 23.088 80.0004 21.1299 80.9811 19.7328C81.9602 18.3356 83.4141 17.637 85.343 17.637C88.5347 17.637 90.2726 19.6106 90.5565 23.556L87.4852 23.7797C87.4026 21.5085 86.6937 20.3711 85.355 20.3711C84.653 20.3711 84.0938 20.7376 83.6791 21.4689C83.2644 22.2019 83.0562 23.6214 83.0562 25.7292C83.0562 27.6133 83.2472 28.9072 83.6275 29.6144C84.0095 30.3198 84.5807 30.6743 85.343 30.6743C86.5681 30.6743 87.289 29.6505 87.5075 27.603H87.5058Z" fill="#176B87"/>
<path d="M92.5838 17.8711H95.9476V26.6154C95.9476 27.8491 96.0044 28.7077 96.1162 29.1946C96.2281 29.6798 96.4621 30.048 96.8165 30.2993C97.171 30.5505 97.6063 30.6744 98.1225 30.6744C98.6834 30.6744 99.1273 30.5367 99.456 30.2597C99.7846 29.9827 99.9859 29.6162 100.062 29.1619C100.136 28.7059 100.173 27.8577 100.173 26.6171V17.8728H102.987V26.4829C102.987 28.2018 102.887 29.4837 102.689 30.3285C102.491 31.1733 101.987 31.8977 101.175 32.5034C100.364 33.1091 99.2478 33.4119 97.8283 33.4119C96.4982 33.4119 95.4521 33.1899 94.6898 32.7443C93.9276 32.2986 93.3856 31.6758 93.0638 30.8722C92.742 30.0687 92.582 28.6509 92.582 26.6171V17.8728L92.5838 17.8711Z" fill="#176B87"/>
<path d="M105.881 17.8711H110.69C111.624 17.8711 112.34 17.9141 112.837 18.0001C113.335 18.0862 113.837 18.3185 114.345 18.6953C114.852 19.0721 115.251 19.5883 115.539 20.2421C115.826 20.896 115.971 21.6307 115.971 22.4445C115.971 24.3579 115.253 25.7034 113.818 26.4812L116.631 33.1744H112.97L110.922 27.1212H109.241V33.1744H105.877V17.8711H105.881ZM109.245 20.3488V24.6435H110.724C112.039 24.6435 112.698 23.9071 112.698 22.4342C112.698 21.9266 112.602 21.5085 112.407 21.185C112.213 20.8598 111.987 20.6396 111.729 20.5243C111.471 20.409 111.093 20.3505 110.592 20.3505H109.246L109.245 20.3488Z" fill="#176B87"/>
<path d="M118.391 17.8711H121.755V33.1744H118.391V17.8711Z" fill="#176B87"/>
<path d="M122.932 17.8711H132.473V20.7411H129.345V33.1744H125.981V20.7411H122.932V17.8711Z" fill="#176B87"/>
<path d="M131.542 17.8711H135.247L137.406 23.4494L139.715 17.8711H143L138.751 26.7048V33.1727H135.388V26.7048L131.542 17.8711Z" fill="#176B87"/>
<path d="M55.8013 38.5686H59.2425L60.8496 49.1522L62.8542 38.5686H65.9375L67.8251 49.2142L69.6971 38.5686H72.5293L69.2446 53.9494H66.2283L64.1877 43.3107L62.1022 53.9494H59.1204L55.8013 38.5686Z" fill="#176B87"/>
<path d="M73.7939 38.5686H77.1578V53.8719H73.7939V38.5686Z" fill="#176B87"/>
<path d="M79.9268 38.5686H83.6605L87.5956 48.0751V38.5686H90.1972V53.8719H87.193L82.5301 42.7962V53.8719H79.9285V38.5686H79.9268Z" fill="#176B87"/>
<path d="M98.3233 45.711H103.637V53.8719H102.214L101.777 52.1238C100.954 53.4469 99.7204 54.1077 98.0772 54.1077C96.336 54.1077 94.9543 53.4229 93.9339 52.0498C92.9136 50.6784 92.4043 48.8339 92.4043 46.5179C92.4043 43.9989 92.9067 42.0064 93.9116 40.537C94.9164 39.0676 96.4013 38.3346 98.368 38.3346C101.5 38.3346 103.256 40.0828 103.637 43.5808L100.61 44.0746C100.4 42.0718 99.6757 41.0704 98.4351 41.0704C97.6798 41.0704 97.0758 41.4403 96.625 42.1802C96.1725 42.9201 95.9471 44.3207 95.9471 46.3837C95.9471 48.2145 96.1673 49.5032 96.6078 50.2517C97.0483 50.9985 97.6953 51.3736 98.547 51.3736C99.9149 51.3736 100.601 50.3601 100.61 48.3349H98.3233V45.711Z" fill="#176B87"/>
<path d="M115.623 41.898L112.843 42.9631C112.447 41.7002 111.721 41.0687 110.668 41.0687C110.174 41.0687 109.783 41.2081 109.496 41.4885C109.209 41.769 109.064 42.0959 109.064 42.4693C109.064 42.9029 109.234 43.2487 109.573 43.5068C109.914 43.7649 110.625 44.1022 111.709 44.522C112.695 44.8885 113.471 45.2516 114.035 45.6094C114.599 45.9673 115.055 46.456 115.403 47.072C115.751 47.688 115.924 48.4038 115.924 49.2193C115.924 50.6475 115.432 51.8192 114.45 52.7346C113.467 53.65 112.149 54.1077 110.497 54.1077C107.724 54.1077 105.953 52.7071 105.184 49.9042L108.121 49.0628C108.479 50.6027 109.298 51.3719 110.577 51.3719C111.16 51.3719 111.631 51.2204 111.994 50.9176C112.357 50.6148 112.538 50.2173 112.538 49.7235C112.538 49.3501 112.411 49.0146 112.156 48.7204C111.901 48.4244 111.318 48.113 110.408 47.7843C109.234 47.3662 108.36 46.986 107.784 46.647C107.208 46.3063 106.734 45.8211 106.361 45.1896C105.988 44.5581 105.8 43.8389 105.8 43.0319C105.8 41.6571 106.242 40.5301 107.128 39.6526C108.015 38.7751 109.186 38.3346 110.644 38.3346C113.304 38.3346 114.964 39.5236 115.621 41.8998L115.623 41.898Z" fill="#176B87"/>
</svg>
