<svg width="151" height="74" viewBox="0 0 151 74" fill="none" xmlns="http://www.w3.org/2000/svg">
<g filter="url(#filter0_d_38_542)">
<path d="M51.6587 11.8216V11.2072C50.043 10.893 48.5026 10.6393 46.9809 10.2924C42.4707 9.26536 38.21 7.6239 34.1238 5.55611C34.7051 7.28732 35.03 9.10312 35.0983 11C35.4505 11.1571 35.8027 11.3107 36.1584 11.4609L37.3176 8.93569L39.0222 12.6001C41.2328 13.4148 43.4948 14.1017 45.8132 14.6471C47.2135 14.9768 47.21 14.9889 47.21 16.4508V27.8703H47.2169C47.2169 31.8592 47.234 35.848 47.2066 39.8369C47.1964 41.5094 46.615 43.0508 45.9123 44.5369C44.2932 47.9579 41.8535 50.7351 39.0871 53.2379C35.801 56.2118 32.1354 58.6438 28.2748 60.7806C28.068 60.8963 27.7055 60.9429 27.5157 60.8376C25.6897 59.8227 23.9048 58.7525 22.1865 57.5944C23.5577 56.7641 24.9853 56.0237 26.442 55.3367C29.2289 54.0232 32.0362 52.7684 34.5444 50.9319C37.0611 49.0885 39.1504 46.9119 40.2121 43.8827C41.0926 41.3714 41.0431 38.8341 40.5233 36.138C36.6456 38.6787 32.8312 41.1245 28.2851 42.0204C29.1365 41.544 30.0307 41.1332 30.8275 40.5774C33.6776 38.5924 36.0524 36.1277 37.7963 33.0967C38.605 31.6917 39.2273 30.2626 39.6462 28.8127C39.653 28.7868 39.6599 28.7627 39.6684 28.7368C39.7009 28.6246 39.7317 28.5124 39.7608 28.3985C39.7676 28.3709 39.7744 28.345 39.7813 28.3174C39.8497 28.0481 39.9129 27.7771 39.9676 27.5061C39.9728 27.4785 39.9779 27.4526 39.983 27.425C40.007 27.3024 40.0309 27.1782 40.0514 27.0556C40.0531 27.0435 40.0565 27.0297 40.0583 27.0176C40.0822 26.8796 40.1027 26.7415 40.1232 26.6034C40.1266 26.5827 40.1284 26.5602 40.1318 26.5395C40.1489 26.4222 40.1625 26.3048 40.1762 26.1874C40.1796 26.1598 40.1831 26.1322 40.1865 26.1046C40.2173 25.8336 40.2395 25.5609 40.2549 25.2864C40.2566 25.2554 40.2583 25.2226 40.26 25.1915C40.2651 25.0759 40.2703 24.9602 40.2737 24.8428C40.2737 24.8204 40.2737 24.7997 40.2754 24.7772C40.2788 24.6426 40.2788 24.5063 40.2788 24.3716C40.2788 24.3423 40.2788 24.3129 40.2788 24.2853C40.2788 24.1766 40.2754 24.0678 40.272 23.9574C40.272 23.9211 40.2703 23.8849 40.2686 23.8486C40.2634 23.714 40.2566 23.5794 40.248 23.4447C40.248 23.4361 40.248 23.4292 40.2463 23.4206C40.2378 23.2946 40.2275 23.1669 40.2155 23.0391C40.2121 22.9994 40.207 22.958 40.2036 22.9183C40.1933 22.813 40.1814 22.7077 40.1694 22.6024C40.166 22.5697 40.1625 22.5369 40.1574 22.5041C40.1403 22.3712 40.1215 22.24 40.101 22.1071C40.0959 22.0708 40.089 22.0346 40.0839 21.9983C40.0668 21.8965 40.0497 21.7929 40.0309 21.6911C40.0241 21.6479 40.0155 21.6065 40.007 21.5634C39.983 21.4339 39.9574 21.3045 39.9283 21.1733C39.9249 21.156 39.9215 21.1405 39.9181 21.1232C39.8907 21.0007 39.8616 20.8764 39.8326 20.7539C39.8223 20.7107 39.8103 20.6676 39.8001 20.6227C39.7744 20.5191 39.7471 20.4156 39.718 20.3103C39.7078 20.274 39.6992 20.2395 39.689 20.2033C39.6513 20.0686 39.612 19.934 39.571 19.8011C39.5607 19.7666 39.5488 19.7303 39.5385 19.6958C39.506 19.5888 39.4718 19.4835 39.4359 19.3765C39.4222 19.3351 39.4086 19.2954 39.3949 19.2539C39.3487 19.1158 39.2991 18.9778 39.2496 18.8397C38.7435 17.4658 38.0288 16.1695 37.3347 14.6799C37.2304 14.906 37.1261 15.1304 37.0201 15.3531C36.9859 15.4256 36.95 15.4981 36.9158 15.5706C36.844 15.7225 36.7705 15.8726 36.6969 16.0228C36.6559 16.1074 36.6149 16.1902 36.5721 16.2731C36.502 16.4129 36.4336 16.551 36.3618 16.6908C36.3191 16.7736 36.2763 16.8582 36.2336 16.941C36.1601 17.0843 36.0849 17.2258 36.0113 17.3691C35.972 17.4433 35.9327 17.5175 35.8934 17.5918C35.7959 17.7747 35.6967 17.956 35.5976 18.1372C35.5805 18.1683 35.5634 18.1993 35.5463 18.2304C35.4283 18.4427 35.3103 18.6533 35.1907 18.8621C35.1582 18.9191 35.124 18.976 35.0915 19.033C35.0026 19.1849 34.9154 19.3368 34.8248 19.4869C34.782 19.5577 34.741 19.6268 34.6983 19.6975C34.6145 19.8356 34.5307 19.9737 34.4452 20.1118C34.4025 20.1825 34.358 20.2516 34.3153 20.3206C34.2264 20.4639 34.1358 20.6054 34.0452 20.747C34.0075 20.8056 33.9682 20.866 33.9306 20.9247C33.8143 21.1025 33.6964 21.2803 33.5784 21.4564C33.5647 21.4771 33.551 21.4961 33.5374 21.5168C33.3989 21.7204 33.2587 21.9241 33.1168 22.1243C33.1048 22.1416 33.0911 22.1589 33.0792 22.1778C32.9543 22.3556 32.8261 22.5299 32.6979 22.706C32.6671 22.7492 32.6346 22.7923 32.6021 22.8337C32.4893 22.9856 32.3765 23.1358 32.2602 23.286C32.226 23.3308 32.1918 23.374 32.1576 23.4189C32.0379 23.5742 31.9165 23.7278 31.7934 23.8814C31.7678 23.9142 31.7422 23.947 31.7148 23.9781C29.6939 26.4791 27.3447 28.666 24.5545 30.4835C24.7614 30.1159 25.0947 29.8622 25.3837 29.5653C26.9754 27.9324 28.3107 26.184 29.3862 24.3268C29.4751 24.1749 29.5605 24.0212 29.6443 23.8676C29.6922 23.7813 29.7384 23.6968 29.7845 23.6104C29.87 23.4517 29.9538 23.2911 30.0358 23.1306C30.0786 23.0478 30.1196 22.9632 30.1607 22.8786C30.2256 22.7474 30.2889 22.6163 30.3504 22.4833C30.3898 22.4005 30.4291 22.3159 30.4667 22.2331C30.5453 22.0622 30.6206 21.8896 30.6941 21.717C30.7249 21.6462 30.7539 21.5772 30.783 21.5064C30.8565 21.3286 30.9283 21.1508 30.9984 20.9731C31.0309 20.8902 31.0617 20.8074 31.0925 20.7245C31.1455 20.583 31.1985 20.4414 31.248 20.2982C31.2771 20.2153 31.3079 20.1325 31.3352 20.0479C31.3985 19.8615 31.4601 19.6751 31.5199 19.4869C31.5387 19.4265 31.5575 19.3644 31.5763 19.304C31.6344 19.1124 31.6909 18.9208 31.7456 18.7275C31.7695 18.6446 31.7917 18.5601 31.814 18.4772C31.855 18.3253 31.8943 18.1734 31.9319 18.0215C31.9524 17.9387 31.973 17.8541 31.9935 17.7713C32.0414 17.571 32.0875 17.3691 32.1303 17.1654C32.1405 17.1136 32.1525 17.0636 32.1627 17.0118C32.2055 16.8064 32.2448 16.5993 32.2824 16.3904C32.2978 16.3076 32.3115 16.2247 32.3252 16.1419C32.3525 15.9796 32.3782 15.8174 32.4038 15.6534C32.4158 15.5706 32.4295 15.4894 32.4397 15.4066C32.4705 15.1857 32.4996 14.9647 32.5252 14.7438C32.5286 14.711 32.5338 14.6765 32.5372 14.6437C32.5628 14.4176 32.5833 14.1915 32.6039 13.9636C32.6107 13.8842 32.6158 13.8048 32.6227 13.7254C32.6363 13.5477 32.6483 13.3699 32.6586 13.1921C32.6637 13.1144 32.6671 13.0367 32.6722 12.9591C32.6842 12.7105 32.6945 12.4603 32.7013 12.2083C32.7064 12.0236 32.7064 11.8406 32.7064 11.6576C32.7064 11.6145 32.7064 11.5713 32.7064 11.5282C32.7047 11.3694 32.7013 11.2106 32.6945 11.0535C32.6945 11.0294 32.6945 11.0035 32.6928 10.9793C32.6842 10.7912 32.674 10.603 32.6603 10.4166C32.6603 10.4063 32.6586 10.3942 32.6569 10.3838C32.6432 10.2061 32.6278 10.0283 32.609 9.85049C32.373 7.62563 31.7165 5.54921 30.6496 3.62122C30.5898 3.51248 30.5282 3.40374 30.465 3.295C30.4376 3.2484 30.412 3.20352 30.3846 3.15692C30.3128 3.0361 30.2393 2.91527 30.1641 2.79618C30.1504 2.77374 30.135 2.74958 30.1213 2.72714C30.0324 2.58733 29.9401 2.44752 29.8478 2.30944C29.8204 2.26801 29.7914 2.22659 29.764 2.18689C29.6922 2.08333 29.6204 1.97976 29.5452 1.8762C29.5161 1.83478 29.4853 1.79335 29.4563 1.75193C29.3588 1.61902 29.2596 1.48439 29.1571 1.35321C29.1536 1.34803 29.1502 1.34458 29.1468 1.3394C29.0391 1.19959 28.9279 1.06324 28.8168 0.925155C28.7895 0.890635 28.7604 0.85784 28.7313 0.823319C28.6441 0.718031 28.5535 0.611017 28.4629 0.507455C28.4321 0.471208 28.4014 0.436687 28.3706 0.40044C28.2526 0.26581 28.1329 0.132905 28.0115 0C27.9209 0.210576 27.8286 0.367646 27.7824 0.538523C27.7311 0.724935 27.6764 0.909621 27.62 1.09258C27.6046 1.14436 27.5875 1.19614 27.5721 1.24792C27.5294 1.38428 27.4867 1.51891 27.4422 1.65354C27.4251 1.70705 27.4063 1.76228 27.3892 1.81579C27.3294 1.99702 27.2678 2.17653 27.2045 2.35604C26.2984 4.90367 25.0452 7.2856 23.5833 9.56397C23.5645 9.59503 23.544 9.62265 23.5252 9.65372C23.3542 9.9178 23.1816 10.1802 23.0072 10.4408C22.9627 10.5064 22.92 10.572 22.8755 10.6376C22.7011 10.8965 22.525 11.1536 22.3455 11.4091C22.3421 11.4125 22.3404 11.4177 22.337 11.4212C22.1591 11.6749 21.9796 11.9252 21.7984 12.1755C21.7522 12.2393 21.7061 12.3015 21.6599 12.3653C21.477 12.6156 21.2906 12.8659 21.1042 13.1144C21.1008 13.1196 21.0957 13.1248 21.0923 13.13C20.9076 13.3751 20.7196 13.6184 20.5315 13.8601C20.4836 13.9222 20.4357 13.9826 20.3879 14.0448C20.1964 14.2881 20.0049 14.5315 19.81 14.7731C19.8031 14.7818 19.7946 14.7904 19.7878 14.8008C19.598 15.0355 19.4082 15.2685 19.2167 15.5015C19.1654 15.5637 19.1158 15.6241 19.0645 15.6862C18.8679 15.9227 18.6713 16.1591 18.4713 16.3939C18.4576 16.4094 18.4456 16.4232 18.432 16.4388C18.2422 16.6614 18.0524 16.8824 17.8609 17.1016C17.8045 17.1672 17.7481 17.231 17.6916 17.2966C17.495 17.5227 17.2984 17.7471 17.0984 17.9698C17.0693 18.0026 17.0402 18.0336 17.0129 18.0664C16.8847 18.2097 16.7564 18.3547 16.6265 18.4979C15.3698 19.8943 14.0773 21.2613 12.7693 22.6145C11.352 24.0834 9.91068 25.5298 8.47281 26.9814C8.47281 23.172 8.46597 19.3609 8.46084 15.5516C8.46084 15.158 8.52239 14.9388 8.97205 14.8405C12.5146 14.0741 15.9272 12.9729 19.227 11.5869C20.0254 10.5271 20.7897 9.44314 21.506 8.33158C22.3694 6.99045 23.108 5.68729 23.7287 4.40484C19.2441 6.87135 14.5628 8.85974 9.56361 10.0818C7.75643 10.5236 5.92019 10.8395 4.01726 11.2296V11.958C4.01726 20.9437 4.03949 29.9329 4.00017 38.9204C3.99162 40.9122 4.31134 42.8074 4.97642 44.6508C5.02771 44.7941 5.08071 44.9373 5.13713 45.0789C6.5203 48.6224 8.7002 51.6292 11.2973 54.3442C13.4549 56.5984 15.8058 58.5799 18.2952 60.3629C21.2085 62.4532 24.3117 64.2707 27.5157 65.9415C27.7004 66.0381 28.0303 66.0071 28.227 65.9052C32.8894 63.4784 37.3381 60.7185 41.3235 57.2492C44.8147 54.2113 47.8649 50.8024 49.8909 46.5667C50.9082 44.4351 51.6604 42.2154 51.6622 39.8162C51.6724 30.4835 51.6622 21.1508 51.6587 11.8182V11.8216Z" fill="#176B87"/>
<path d="M70.7311 21.2004L67.9505 22.2655C67.5548 21.0025 66.8287 20.3711 65.7757 20.3711C65.2818 20.3711 64.8913 20.5104 64.6039 20.7909C64.3166 21.0714 64.172 21.3983 64.172 21.7717C64.172 22.2053 64.3424 22.5511 64.6813 22.8092C65.022 23.0673 65.7326 23.4045 66.8166 23.8244C67.8026 24.1909 68.5786 24.5539 69.1429 24.9118C69.7073 25.2697 70.1633 25.7584 70.5109 26.3744C70.8584 26.9903 71.0322 27.7061 71.0322 28.5217C71.0322 29.9498 70.5401 31.1216 69.5576 32.037C68.5751 32.9523 67.2571 33.41 65.6053 33.41C62.8317 33.41 61.0611 32.0094 60.292 29.2065L63.2291 28.3651C63.587 29.9051 64.406 30.6742 65.6845 30.6742C66.2678 30.6742 66.7392 30.5228 67.1023 30.22C67.4653 29.9171 67.646 29.5197 67.646 29.0259C67.646 28.6525 67.5187 28.317 67.264 28.0227C67.0094 27.7268 66.4261 27.4153 65.5158 27.0867C64.3424 26.6686 63.4683 26.2883 62.8919 25.9494C62.3155 25.6087 61.8423 25.1235 61.4689 24.492C61.0955 23.8605 60.908 23.1413 60.908 22.3343C60.908 20.9595 61.3502 19.8325 62.2363 18.955C63.1224 18.0774 64.2942 17.637 65.7516 17.637C68.4117 17.637 70.0721 18.8259 70.7294 21.2021L70.7311 21.2004Z" fill="#176B87"/>
<path d="M73.1094 17.8708H82.4146V20.4948H76.4732V24.0479H81.0914V26.6719H76.4732V30.4384H82.4146V33.1742H73.1094V17.8708Z" fill="#176B87"/>
<path d="M91.5058 27.6029L94.6115 27.7939C94.4997 29.4526 93.9732 30.8033 93.0303 31.846C92.0874 32.8887 90.8434 33.41 89.2965 33.41C87.4124 33.41 85.9774 32.7115 84.9915 31.3143C84.0055 29.9171 83.5117 27.9918 83.5117 25.5398C83.5117 23.0879 84.0004 21.1299 84.9811 19.7327C85.9602 18.3355 87.4141 17.637 89.343 17.637C92.5347 17.637 94.2726 19.6105 94.5565 23.556L91.4852 23.7796C91.4026 21.5084 90.6937 20.3711 89.355 20.3711C88.653 20.3711 88.0938 20.7376 87.6791 21.4688C87.2644 22.2018 87.0562 23.6213 87.0562 25.7291C87.0562 27.6132 87.2472 28.9071 87.6275 29.6143C88.0095 30.3198 88.5807 30.6742 89.343 30.6742C90.5681 30.6742 91.289 29.6504 91.5075 27.6029H91.5058Z" fill="#176B87"/>
<path d="M96.5838 17.8708H99.9476V26.6151C99.9476 27.8488 100.004 28.7074 100.116 29.1944C100.228 29.6796 100.462 30.0478 100.817 30.299C101.171 30.5502 101.606 30.6741 102.122 30.6741C102.683 30.6741 103.127 30.5365 103.456 30.2594C103.785 29.9824 103.986 29.6159 104.062 29.1617C104.136 28.7057 104.173 27.8574 104.173 26.6168V17.8726H106.987V26.4826C106.987 28.2016 106.887 29.4834 106.689 30.3283C106.491 31.1731 105.987 31.8975 105.175 32.5031C104.364 33.1088 103.248 33.4116 101.828 33.4116C100.498 33.4116 99.4521 33.1897 98.6898 32.744C97.9276 32.2984 97.3856 31.6755 97.0638 30.872C96.742 30.0684 96.582 28.6506 96.582 26.6168V17.8726L96.5838 17.8708Z" fill="#176B87"/>
<path d="M109.881 17.8708H114.69C115.624 17.8708 116.34 17.9139 116.837 17.9999C117.335 18.0859 117.837 18.3182 118.345 18.695C118.852 19.0719 119.251 19.588 119.539 20.2419C119.826 20.8957 119.971 21.6304 119.971 22.4443C119.971 24.3576 119.253 25.7032 117.818 26.4809L120.631 33.1742H116.97L114.922 27.121H113.241V33.1742H109.877V17.8708H109.881ZM113.245 20.3486V24.6433H114.724C116.039 24.6433 116.698 23.9068 116.698 22.434C116.698 21.9264 116.602 21.5083 116.407 21.1848C116.213 20.8596 115.987 20.6394 115.729 20.5241C115.471 20.4088 115.093 20.3503 114.592 20.3503H113.246L113.245 20.3486Z" fill="#176B87"/>
<path d="M122.391 17.8708H125.755V33.1742H122.391V17.8708Z" fill="#176B87"/>
<path d="M126.932 17.8708H136.473V20.7409H133.345V33.1742H129.981V20.7409H126.932V17.8708Z" fill="#176B87"/>
<path d="M135.542 17.8708H139.247L141.406 23.4492L143.715 17.8708H147L142.751 26.7046V33.1725H139.388V26.7046L135.542 17.8708Z" fill="#176B87"/>
<path d="M59.8013 38.5686H63.2425L64.8496 49.1522L66.8542 38.5686H69.9375L71.8251 49.2142L73.6971 38.5686H76.5293L73.2446 53.9494H70.2283L68.1877 43.3107L66.1022 53.9494H63.1204L59.8013 38.5686Z" fill="#176B87"/>
<path d="M77.7939 38.5686H81.1578V53.8719H77.7939V38.5686Z" fill="#176B87"/>
<path d="M83.9268 38.5686H87.6605L91.5956 48.0751V38.5686H94.1972V53.8719H91.193L86.5301 42.7962V53.8719H83.9285V38.5686H83.9268Z" fill="#176B87"/>
<path d="M102.323 45.7108H107.637V53.8718H106.214L105.777 52.1237C104.954 53.4468 103.72 54.1076 102.077 54.1076C100.336 54.1076 98.9543 53.4227 97.9339 52.0497C96.9136 50.6783 96.4043 48.8338 96.4043 46.5178C96.4043 43.9988 96.9067 42.0063 97.9116 40.5369C98.9164 39.0675 100.401 38.3345 102.368 38.3345C105.5 38.3345 107.256 40.0826 107.637 43.5807L104.61 44.0745C104.4 42.0717 103.676 41.0703 102.435 41.0703C101.68 41.0703 101.076 41.4402 100.625 42.1801C100.172 42.92 99.9471 44.3206 99.9471 46.3836C99.9471 48.2144 100.167 49.5031 100.608 50.2516C101.048 50.9984 101.695 51.3735 102.547 51.3735C103.915 51.3735 104.601 50.36 104.61 48.3348H102.323V45.7108Z" fill="#176B87"/>
<path d="M119.623 41.8979L116.843 42.963C116.447 41.7 115.721 41.0686 114.668 41.0686C114.174 41.0686 113.783 41.2079 113.496 41.4884C113.209 41.7689 113.064 42.0958 113.064 42.4692C113.064 42.9028 113.234 43.2486 113.573 43.5067C113.914 43.7648 114.625 44.102 115.709 44.5219C116.695 44.8884 117.471 45.2514 118.035 45.6093C118.599 45.9672 119.055 46.4559 119.403 47.0719C119.751 47.6879 119.924 48.4036 119.924 49.2192C119.924 50.6474 119.432 51.8191 118.45 52.7345C117.467 53.6499 116.149 54.1076 114.497 54.1076C111.724 54.1076 109.953 52.7069 109.184 49.904L112.121 49.0626C112.479 50.6026 113.298 51.3717 114.577 51.3717C115.16 51.3717 115.631 51.2203 115.994 50.9175C116.357 50.6147 116.538 50.2172 116.538 49.7234C116.538 49.35 116.411 49.0145 116.156 48.7202C115.901 48.4243 115.318 48.1129 114.408 47.7842C113.234 47.3661 112.36 46.9858 111.784 46.6469C111.208 46.3062 110.734 45.821 110.361 45.1895C109.988 44.558 109.8 43.8388 109.8 43.0318C109.8 41.657 110.242 40.53 111.128 39.6525C112.015 38.775 113.186 38.3345 114.644 38.3345C117.304 38.3345 118.964 39.5234 119.621 41.8996L119.623 41.8979Z" fill="#176B87"/>
</g>
<defs>
<filter id="filter0_d_38_542" x="0" y="0" width="151" height="74" filterUnits="userSpaceOnUse" color-interpolation-filters="sRGB">
<feFlood flood-opacity="0" result="BackgroundImageFix"/>
<feColorMatrix in="SourceAlpha" type="matrix" values="0 0 0 0 0 0 0 0 0 0 0 0 0 0 0 0 0 0 127 0" result="hardAlpha"/>
<feOffset dy="4"/>
<feGaussianBlur stdDeviation="2"/>
<feComposite in2="hardAlpha" operator="out"/>
<feColorMatrix type="matrix" values="0 0 0 0 0 0 0 0 0 0 0 0 0 0 0 0 0 0 0.25 0"/>
<feBlend mode="normal" in2="BackgroundImageFix" result="effect1_dropShadow_38_542"/>
<feBlend mode="normal" in="SourceGraphic" in2="effect1_dropShadow_38_542" result="shape"/>
</filter>
</defs>
</svg>
