<svg width="177" height="82" viewBox="0 0 177 82" fill="none" xmlns="http://www.w3.org/2000/svg">
<path d="M58.9902 14.6324V13.8718C56.9904 13.483 55.0837 13.1689 53.2002 12.7395C47.6176 11.4683 42.3439 9.43658 37.2861 6.87715C38.0056 9.01998 38.4077 11.2675 38.4924 13.6154C38.9283 13.8098 39.3643 14 39.8044 14.1859L41.2393 11.0603L43.3491 15.5959C46.0854 16.6043 48.8852 17.4546 51.7548 18.1297C53.488 18.5377 53.4838 18.5527 53.4838 20.3623V34.4968H53.4922C53.4922 39.4341 53.5134 44.3714 53.4795 49.3087C53.4669 51.3789 52.7473 53.2867 51.8776 55.1261C49.8735 59.3605 46.8536 62.798 43.4296 65.8959C39.3622 69.5769 34.8249 72.5871 30.0465 75.232C29.7904 75.3752 29.3418 75.4328 29.1069 75.3025C26.8467 74.0463 24.6374 72.7217 22.5106 71.2882C24.2078 70.2606 25.9749 69.344 27.7779 68.4937C31.2274 66.8679 34.7022 65.3147 37.8067 63.0416C40.9218 60.7599 43.5079 58.0659 44.822 54.3164C45.9119 51.2079 45.8505 48.0674 45.2072 44.7303C40.4076 47.8751 35.6863 50.9024 30.0592 52.0112C31.1131 51.4216 32.2199 50.9131 33.206 50.2252C36.7338 47.7683 39.6732 44.7175 41.8318 40.9659C42.8328 39.2269 43.6031 37.4579 44.1216 35.6633C44.13 35.6313 44.1385 35.6014 44.1491 35.5693C44.1893 35.4305 44.2274 35.2916 44.2634 35.1506C44.2718 35.1164 44.2803 35.0844 44.2887 35.0502C44.3734 34.7169 44.4517 34.3815 44.5194 34.046C44.5258 34.0119 44.5321 33.9798 44.5385 33.9456C44.5681 33.7939 44.5977 33.6401 44.6231 33.4884C44.6252 33.4735 44.6295 33.4564 44.6316 33.4414C44.6612 33.2705 44.6866 33.0996 44.712 32.9287C44.7162 32.9031 44.7183 32.8753 44.7226 32.8497C44.7437 32.7044 44.7607 32.5591 44.7776 32.4138C44.7818 32.3796 44.7861 32.3455 44.7903 32.3113C44.8284 31.9759 44.8559 31.6383 44.8749 31.2986C44.8771 31.2602 44.8792 31.2196 44.8813 31.1811C44.8876 31.038 44.894 30.8948 44.8982 30.7495C44.8982 30.7218 44.8982 30.6961 44.9003 30.6684C44.9046 30.5017 44.9046 30.3329 44.9046 30.1663C44.9046 30.13 44.9046 30.0937 44.9046 30.0595C44.9046 29.9249 44.9003 29.7903 44.8961 29.6536C44.8961 29.6087 44.894 29.5638 44.8919 29.519C44.8855 29.3523 44.8771 29.1857 44.8665 29.019C44.8665 29.0084 44.8665 28.9998 44.8644 28.9891C44.8538 28.8332 44.8411 28.6751 44.8263 28.517C44.822 28.4678 44.8157 28.4166 44.8115 28.3674C44.7988 28.2371 44.7839 28.1068 44.7691 27.9765C44.7649 27.9359 44.7607 27.8953 44.7543 27.8547C44.7332 27.6902 44.7099 27.5278 44.6845 27.3633C44.6781 27.3185 44.6697 27.2736 44.6633 27.2287C44.6422 27.1027 44.621 26.9745 44.5977 26.8484C44.5893 26.795 44.5787 26.7438 44.5681 26.6903C44.5385 26.5301 44.5067 26.3699 44.4707 26.2075C44.4665 26.1861 44.4623 26.1669 44.458 26.1456C44.4242 25.9939 44.3882 25.84 44.3522 25.6884C44.3395 25.6349 44.3247 25.5815 44.312 25.526C44.2803 25.3978 44.2464 25.2696 44.2104 25.1393C44.1978 25.0944 44.1872 25.0517 44.1745 25.0068C44.1279 24.8402 44.0792 24.6736 44.0285 24.5091C44.0158 24.4663 44.0009 24.4215 43.9882 24.3787C43.948 24.2463 43.9057 24.1159 43.8613 23.9835C43.8443 23.9322 43.8274 23.8831 43.8105 23.8318C43.7533 23.6609 43.692 23.49 43.6306 23.3191C43.0042 21.6185 42.1196 20.014 41.2604 18.1703C41.1313 18.4502 41.0022 18.7279 40.871 19.0035C40.8287 19.0932 40.7843 19.1829 40.7419 19.2727C40.6531 19.4607 40.5621 19.6466 40.4711 19.8324C40.4203 19.9371 40.3695 20.0397 40.3166 20.1422C40.2298 20.3153 40.1452 20.4862 40.0563 20.6592C40.0034 20.7618 39.9505 20.8665 39.8976 20.969C39.8066 21.1463 39.7134 21.3215 39.6224 21.4988C39.5738 21.5907 39.5251 21.6826 39.4764 21.7744C39.3558 22.0009 39.2331 22.2252 39.1103 22.4495C39.0892 22.488 39.068 22.5265 39.0468 22.5649C38.9008 22.8277 38.7548 23.0883 38.6067 23.3468C38.5664 23.4173 38.5241 23.4878 38.4839 23.5583C38.3739 23.7463 38.2659 23.9344 38.1538 24.1202C38.1009 24.2078 38.0501 24.2933 37.9972 24.3809C37.8935 24.5518 37.7898 24.7227 37.684 24.8936C37.6311 24.9812 37.5761 25.0667 37.5231 25.1521C37.4131 25.3294 37.3009 25.5046 37.1888 25.6798C37.1422 25.7525 37.0936 25.8272 37.047 25.8999C36.9031 26.1199 36.7571 26.34 36.611 26.5579C36.5941 26.5835 36.5772 26.607 36.5603 26.6327C36.3888 26.8848 36.2153 27.1369 36.0397 27.3847C36.0249 27.406 36.0079 27.4274 35.9931 27.4509C35.8386 27.671 35.6799 27.8867 35.5212 28.1047C35.4831 28.1581 35.4429 28.2115 35.4027 28.2628C35.263 28.4508 35.1233 28.6366 34.9794 28.8225C34.9371 28.878 34.8948 28.9315 34.8525 28.987C34.7043 29.1793 34.5541 29.3694 34.4017 29.5596C34.37 29.6002 34.3382 29.6407 34.3044 29.6792C31.803 32.7749 28.8953 35.4817 25.4416 37.7314C25.6976 37.2763 26.1103 36.9623 26.4679 36.5948C28.4382 34.5737 30.0909 32.4095 31.422 30.1108C31.5321 29.9228 31.6379 29.7326 31.7416 29.5425C31.8009 29.4356 31.858 29.331 31.9151 29.2241C32.0209 29.0276 32.1246 28.8289 32.2262 28.6302C32.2791 28.5277 32.3299 28.423 32.3807 28.3183C32.4611 28.1559 32.5394 27.9936 32.6156 27.8291C32.6643 27.7265 32.7129 27.6218 32.7595 27.5193C32.8569 27.3078 32.95 27.0941 33.041 26.8805C33.0791 26.7929 33.115 26.7074 33.151 26.6198C33.242 26.3998 33.3309 26.1797 33.4177 25.9597C33.4579 25.8571 33.496 25.7546 33.534 25.652C33.5997 25.4769 33.6653 25.3017 33.7266 25.1243C33.7626 25.0218 33.8007 24.9192 33.8346 24.8146C33.9129 24.5838 33.989 24.3531 34.0631 24.1202C34.0864 24.0455 34.1097 23.9685 34.1329 23.8938C34.2049 23.6566 34.2747 23.4195 34.3424 23.1802C34.3721 23.0777 34.3996 22.973 34.4271 22.8704C34.4779 22.6824 34.5266 22.4944 34.5731 22.3064C34.5985 22.2039 34.6239 22.0992 34.6493 21.9966C34.7086 21.7488 34.7657 21.4988 34.8186 21.2467C34.8313 21.1826 34.8461 21.1207 34.8588 21.0566C34.9117 20.8024 34.9604 20.546 35.0069 20.2875C35.026 20.1849 35.0429 20.0824 35.0598 19.9798C35.0937 19.779 35.1255 19.5782 35.1572 19.3752C35.172 19.2727 35.1889 19.1723 35.2016 19.0697C35.2397 18.7963 35.2757 18.5228 35.3074 18.2493C35.3117 18.2087 35.318 18.166 35.3223 18.1254C35.354 17.8455 35.3794 17.5657 35.4048 17.2837C35.4133 17.1854 35.4196 17.0871 35.4281 16.9888C35.445 16.7688 35.4598 16.5487 35.4725 16.3287C35.4789 16.2325 35.4831 16.1364 35.4894 16.0403C35.5043 15.7326 35.517 15.4228 35.5254 15.1109C35.5318 14.8823 35.5318 14.6559 35.5318 14.4294C35.5318 14.376 35.5318 14.3226 35.5318 14.2692C35.5297 14.0726 35.5254 13.8761 35.517 13.6817C35.517 13.6517 35.517 13.6197 35.5148 13.5898C35.5043 13.3569 35.4916 13.1241 35.4746 12.8933C35.4746 12.8805 35.4725 12.8655 35.4704 12.8527C35.4535 12.6327 35.4344 12.4126 35.4111 12.1926C35.1191 9.43872 34.3065 6.8686 32.9859 4.48222C32.9119 4.34762 32.8357 4.21303 32.7574 4.07843C32.7235 4.02075 32.6918 3.9652 32.6579 3.90752C32.569 3.75797 32.478 3.60842 32.3849 3.46101C32.368 3.43323 32.349 3.40332 32.332 3.37555C32.222 3.2025 32.1077 3.02945 31.9934 2.85854C31.9596 2.80726 31.9236 2.75599 31.8897 2.70685C31.8009 2.57866 31.712 2.45048 31.6189 2.32229C31.5829 2.27102 31.5448 2.21974 31.5088 2.16847C31.3882 2.00397 31.2654 1.83732 31.1385 1.67496C31.1342 1.66855 31.13 1.66427 31.1258 1.65786C30.9924 1.48481 30.8549 1.31604 30.7173 1.14512C30.6835 1.10239 30.6475 1.0618 30.6115 1.01907C30.5036 0.888752 30.3914 0.756294 30.2793 0.628109C30.2412 0.583244 30.2031 0.540515 30.165 0.49565C30.019 0.329009 29.8708 0.164505 29.7206 0C29.6084 0.260644 29.4942 0.455058 29.437 0.666564C29.3735 0.897298 29.3058 1.1259 29.236 1.35236C29.2169 1.41645 29.1958 1.48054 29.1767 1.54463C29.1238 1.71341 29.0709 1.88005 29.0159 2.04669C28.9947 2.11292 28.9714 2.18129 28.9503 2.24752C28.8762 2.47184 28.8 2.69403 28.7217 2.91622C27.6001 6.06958 26.0489 9.01784 24.2395 11.8379C24.2163 11.8764 24.1909 11.9106 24.1676 11.949C23.956 12.2759 23.7422 12.6006 23.5264 12.9232C23.4714 13.0044 23.4184 13.0856 23.3634 13.1668C23.1476 13.4872 22.9296 13.8056 22.7074 14.1218C22.7032 14.126 22.701 14.1324 22.6968 14.1367C22.4767 14.4508 22.2545 14.7606 22.0302 15.0703C21.9731 15.1494 21.9159 15.2263 21.8588 15.3053C21.6323 15.6151 21.4017 15.9249 21.171 16.2325C21.1668 16.239 21.1604 16.2454 21.1562 16.2518C20.9276 16.5551 20.6949 16.8564 20.4621 17.1555C20.4028 17.2324 20.3436 17.3072 20.2843 17.3841C20.0473 17.6853 19.8103 17.9866 19.569 18.2857C19.5606 18.2963 19.55 18.307 19.5415 18.3198C19.3066 18.6104 19.0717 18.8988 18.8347 19.1872C18.7712 19.2641 18.7098 19.3389 18.6463 19.4158C18.403 19.7085 18.1596 20.0012 17.912 20.2918C17.8951 20.311 17.8803 20.3281 17.8633 20.3473C17.6284 20.6229 17.3935 20.8964 17.1565 21.1677C17.0867 21.2489 17.0168 21.3279 16.947 21.4091C16.7036 21.689 16.4603 21.9667 16.2127 22.2423C16.1767 22.2829 16.1407 22.3214 16.1069 22.3619C15.9481 22.5393 15.7894 22.7187 15.6286 22.8961C14.0732 24.6244 12.4733 26.3165 10.8544 27.9914C9.10001 29.8095 7.31603 31.5998 5.53627 33.3966C5.53627 28.6815 5.52781 23.9643 5.52146 19.2492C5.52146 18.7621 5.59764 18.4907 6.15421 18.369C10.5391 17.4204 14.7631 16.0574 18.8474 14.3418C19.8357 13.03 20.7816 11.6884 21.6683 10.3125C22.737 8.65252 23.6512 7.03952 24.4194 5.45215C18.8685 8.5051 13.0743 10.9663 6.88643 12.4789C4.64957 13.0258 2.37674 13.4167 0.021369 13.8996V14.8011C0.021369 25.9234 0.04888 37.0499 0.000206617 48.1742C-0.0103746 50.6397 0.385361 52.9854 1.20858 55.2671C1.27206 55.4445 1.33767 55.6218 1.4075 55.797C3.11954 60.1831 5.81773 63.9047 9.03229 67.2653C11.703 70.0555 14.6128 72.5081 17.694 74.715C21.3001 77.3022 25.1411 79.5519 29.1069 81.6199C29.3354 81.7396 29.7439 81.7011 29.9872 81.5751C35.7582 78.5713 41.2646 75.1551 46.1976 70.8609C50.5189 67.1008 54.2943 62.8814 56.802 57.6386C58.0612 55.0001 58.9923 52.2527 58.9944 49.283C59.0071 37.7314 58.9945 26.1797 58.9902 14.6281V14.6324Z" fill="#F0FAFF"/>
<path d="M82.5969 26.241L79.1553 27.5593C78.6654 25.9961 77.7667 25.2145 76.4633 25.2145C75.852 25.2145 75.3686 25.387 75.0129 25.7341C74.6572 26.0813 74.4783 26.4859 74.4783 26.9481C74.4783 27.4848 74.6892 27.9129 75.1088 28.2323C75.5304 28.5518 76.41 28.9692 77.7518 29.4889C78.9721 29.9425 79.9326 30.3919 80.6312 30.8349C81.3297 31.2779 81.8941 31.8827 82.3243 32.6451C82.7545 33.4076 82.9696 34.2936 82.9696 35.3031C82.9696 37.0707 82.3605 38.5211 81.1444 39.6541C79.9284 40.7871 78.297 41.3537 76.2524 41.3537C72.8193 41.3537 70.6278 39.62 69.6758 36.1507L73.3113 35.1093C73.7542 37.0154 74.768 37.9674 76.3504 37.9674C77.0724 37.9674 77.6559 37.7799 78.1053 37.4051C78.5547 37.0303 78.7783 36.5383 78.7783 35.9271C78.7783 35.4649 78.6207 35.0496 78.3055 34.6854C77.9903 34.3191 77.2683 33.9336 76.1417 33.5269C74.6892 33.0093 73.6073 32.5387 72.8938 32.1191C72.1804 31.6974 71.5947 31.0968 71.1325 30.3152C70.6704 29.5336 70.4382 28.6434 70.4382 27.6445C70.4382 25.9429 70.9856 24.5479 72.0824 23.4617C73.1792 22.3755 74.6296 21.8303 76.4335 21.8303C79.726 21.8303 81.7812 23.302 82.5948 26.2431L82.5969 26.241Z" fill="#F0FAFF"/>
<path d="M85.5405 22.1199H97.0582V25.3677H89.7042V29.7656H95.4204V33.0135H89.7042V37.6755H97.0582V41.0618H85.5405V22.1199Z" fill="#F0FAFF"/>
<path d="M108.312 34.1658L112.156 34.4022C112.018 36.4553 111.366 38.1271 110.199 39.4177C109.032 40.7083 107.492 41.3537 105.577 41.3537C103.245 41.3537 101.469 40.489 100.249 38.7596C99.0282 37.0303 98.417 34.6471 98.417 31.6122C98.417 28.5773 99.0218 26.1537 100.236 24.4243C101.448 22.695 103.247 21.8303 105.635 21.8303C109.585 21.8303 111.736 24.2731 112.088 29.1566L108.286 29.4335C108.184 26.6222 107.307 25.2145 105.65 25.2145C104.781 25.2145 104.088 25.6681 103.575 26.5733C103.062 27.4805 102.804 29.2376 102.804 31.8465C102.804 34.1786 103.041 35.7801 103.511 36.6554C103.984 37.5286 104.691 37.9674 105.635 37.9674C107.151 37.9674 108.043 36.7002 108.314 34.1658H108.312Z" fill="#F0FAFF"/>
<path d="M114.596 22.1199H118.76V32.9432C118.76 34.4702 118.83 35.533 118.969 36.1357C119.107 36.7363 119.397 37.192 119.836 37.503C120.274 37.8139 120.813 37.9673 121.452 37.9673C122.146 37.9673 122.696 37.7969 123.103 37.454C123.509 37.1111 123.759 36.6575 123.852 36.0952C123.944 35.5309 123.991 34.4809 123.991 32.9453V22.122H127.473V32.7792C127.473 34.9068 127.349 36.4935 127.104 37.5392C126.859 38.5849 126.235 39.4815 125.23 40.2312C124.227 40.9809 122.845 41.3557 121.088 41.3557C119.442 41.3557 118.147 41.081 117.203 40.5294C116.26 39.9777 115.589 39.2068 115.191 38.2122C114.792 37.2176 114.594 35.4627 114.594 32.9453V22.122L114.596 22.1199Z" fill="#F0FAFF"/>
<path d="M131.055 22.1199H137.008C138.164 22.1199 139.05 22.1731 139.666 22.2796C140.281 22.3861 140.903 22.6736 141.531 23.14C142.16 23.6064 142.654 24.2454 143.009 25.0547C143.365 25.864 143.544 26.7734 143.544 27.7807C143.544 30.149 142.656 31.8145 140.88 32.7771L144.362 41.0618H139.83L137.295 33.5694H135.214V41.0618H131.051V22.1199H131.055ZM135.219 25.1867V30.5025H137.05C138.677 30.5025 139.493 29.591 139.493 27.7679C139.493 27.1397 139.374 26.6221 139.133 26.2218C138.892 25.8192 138.613 25.5466 138.294 25.4039C137.975 25.2612 137.506 25.1888 136.886 25.1888H135.221L135.219 25.1867Z" fill="#F0FAFF"/>
<path d="M146.54 22.1199H150.704V41.0618H146.54V22.1199Z" fill="#F0FAFF"/>
<path d="M152.161 22.1199H163.97V25.6723H160.098V41.0618H155.935V25.6723H152.161V22.1199Z" fill="#F0FAFF"/>
<path d="M162.818 22.1199H167.403L170.076 29.0245L172.934 22.1199H177L171.741 33.054V41.0597H167.578V33.054L162.818 22.1199Z" fill="#F0FAFF"/>
<path d="M69.0688 47.7388H73.3283L75.3175 60.8388L77.7987 47.7388H81.6152L83.9515 60.9155L86.2686 47.7388H89.7742L85.7085 66.7765H81.9751L79.4492 53.6083L76.868 66.7765H73.1771L69.0688 47.7388Z" fill="#F0FAFF"/>
<path d="M91.3398 47.7388H95.5035V66.6807H91.3398V47.7388Z" fill="#F0FAFF"/>
<path d="M98.9302 47.7388H103.552L108.422 59.5056V47.7388H111.643V66.6807H107.924L102.152 52.9715V66.6807H98.9323V47.7388H98.9302Z" fill="#F0FAFF"/>
<path d="M121.701 56.579H128.277V66.6804H126.516L125.975 64.5166C124.957 66.1544 123.43 66.9722 121.396 66.9722C119.241 66.9722 117.531 66.1245 116.268 64.425C115.005 62.7276 114.375 60.4445 114.375 57.5779C114.375 54.46 114.996 51.9937 116.24 50.1749C117.484 48.3561 119.322 47.4489 121.756 47.4489C125.632 47.4489 127.807 49.6127 128.277 53.9424L124.531 54.5537C124.271 52.0746 123.375 50.8351 121.839 50.8351C120.904 50.8351 120.157 51.293 119.599 52.2088C119.039 53.1246 118.76 54.8582 118.76 57.4118C118.76 59.6778 119.032 61.273 119.577 62.1994C120.123 63.1237 120.923 63.588 121.978 63.588C123.671 63.588 124.521 62.3336 124.531 59.8269H121.701V56.579Z" fill="#F0FAFF"/>
<path d="M143.114 51.8595L139.672 53.1779C139.182 51.6146 138.283 50.833 136.98 50.833C136.369 50.833 135.885 51.0055 135.53 51.3527C135.174 51.6998 134.995 52.1045 134.995 52.5666C134.995 53.1033 135.206 53.5314 135.625 53.8509C136.047 54.1703 136.927 54.5877 138.268 55.1074C139.489 55.561 140.449 56.0104 141.148 56.4534C141.846 56.8964 142.411 57.5012 142.841 58.2637C143.271 59.0261 143.486 59.9121 143.486 60.9216C143.486 62.6893 142.877 64.1396 141.661 65.2727C140.445 66.4057 138.814 66.9722 136.769 66.9722C133.336 66.9722 131.144 65.2386 130.192 61.7692L133.828 60.7278C134.271 62.6339 135.285 63.5859 136.867 63.5859C137.589 63.5859 138.173 63.3985 138.622 63.0236C139.071 62.6488 139.295 62.1568 139.295 61.5456C139.295 61.0835 139.137 60.6681 138.822 60.304C138.507 59.9376 137.785 59.5522 136.658 59.1454C135.206 58.6279 134.124 58.1572 133.41 57.7376C132.697 57.3159 132.111 56.7154 131.649 55.9337C131.187 55.1521 130.955 54.2619 130.955 53.263C130.955 51.5614 131.502 50.1664 132.599 49.0802C133.696 47.9941 135.146 47.4489 136.95 47.4489C140.243 47.4489 142.298 48.9205 143.111 51.8617L143.114 51.8595Z" fill="#F0FAFF"/>
</svg>
