<?xml version="1.0" encoding="UTF-8"?>
<svg id="Camada_1" data-name="Camada 1" xmlns="http://www.w3.org/2000/svg" viewBox="0 0 687.87 800">
  <defs>
    <style>
      .cls-1 {
        fill: #5268d7;
      }
    </style>
  </defs>
  <path class="cls-1" d="m.06,209.61c0-37.5,0-75,0-112.51,0-17.07,6.23-27.01,22.25-32.88,20.85-7.64,41.78-15.2,63.06-21.49,27.02-8,54.21-15.66,81.71-21.71,36.05-7.92,72.42-14.44,109.28-17.79,42.51-3.86,85.03-4.46,127.55-.72,36.45,3.21,72.45,9.44,108.3,16.7,51.71,10.48,102.02,25.67,151.39,44.14,11.39,4.26,20,11.12,22.84,23.51.78,3.4,1.19,6.95,1.2,10.43.07,74.09.56,148.19-.15,222.28-.38,40.18-6.78,79.76-16.7,118.75-13.47,52.96-34.41,102.7-63.53,148.95-13.67,21.72-28.68,42.5-45.33,62.05-25.92,30.44-54.64,57.93-86.97,81.53-26.42,19.28-53.85,36.97-83.5,50.92-12.22,5.75-24.8,10.74-37.21,16.08-7.51,3.23-14.85,2.59-22.32-.46-74.01-30.21-138.66-74.02-192.81-132.96-25.9-28.19-47.55-59.52-67.41-92.18-15.95-26.23-28.22-54.12-38.9-82.79-12.89-34.61-21.73-70.24-27.04-106.75C2.14,357.71-.15,332.6,0,307.27c.21-32.55.05-65.11.05-97.66Zm625.11,11.93c0-34.12-.06-68.23.09-102.35.01-3.22-1-4.53-3.95-5.43-11.55-3.53-23.06-7.21-34.54-10.99-32.89-10.83-66.62-18.45-100.48-25.27-21.01-4.23-42.28-7.52-63.58-9.78-24.17-2.57-48.51-4.67-72.79-4.86-24.54-.19-49.13,1.91-73.66,3.54-28.86,1.92-57.26,7.22-85.54,13.04-42.06,8.66-83.31,20.27-123.95,34.14-3.31,1.13-4.27,2.5-4.26,5.93.12,64.19-.23,128.39.28,192.58.16,20,1.59,40.1,4.11,59.94,6.14,48.48,20.56,94.63,41.72,138.67,19.69,40.98,45.08,78.06,75.89,111.55,44.34,48.21,96.47,85.37,156.41,111.63,1.73.76,4.39.67,6.13-.11,8.19-3.65,16.26-7.55,24.27-11.6,54.73-27.63,101.95-65.05,142.09-111.17,40.09-46.06,69.32-98.48,88.21-156.64,15.81-48.66,23.73-98.49,23.57-149.64-.09-27.73-.02-55.47-.02-83.21Z"/>
  <path class="cls-1" d="m345.4,522.24c-2.41,0-4.94-.22-7.52-.66-12.28-2.1-23.74-7.07-34.08-14.78-29.91-22.29-52.28-39.85-72.54-56.92-4.97-4.19-9.51-8.89-13.9-13.43-1.71-1.77-3.48-3.61-5.24-5.37-1.7-1.7-3.35-3.42-5.05-5.19-2.42,6.29-6.69,8.91-14.18,8.92-7.43,0-14.86.01-22.28.01-8.74,0-17.48,0-26.23-.02-9.71-.01-15.27-5.59-15.27-15.3v-21.47c0-43.25,0-87.96.07-131.95,0-2.82.77-5.86,2.15-8.57,2.04-3.98,5.94-6.27,10.7-6.27.25,0,.49,0,.74.02,27.04,1.33,50.42,4.56,71.48,9.87,7.18,1.81,13.61,3.62,19.61,7.53,2.01,1.31,3.54,2.49,4.84,3.71,3.07,2.91,4.44,6.67,3.94,10.87-.09.79-.17,1.58-.25,2.37-.02.2-.04.4-.06.6l7.75-.04c10.67-.05,21.71-.11,32.57-.11,7.19,0,13.67.02,19.83.07h.16c3.02,0,5.09-.66,7.39-2.35,9.67-7.09,18.47-11.22,27.67-12.99,3.53-.68,7.19-1.03,10.88-1.03,5.94,0,12.11.87,18.85,2.66,7.83,2.08,15.15,5.29,22.23,8.4,2.76,1.21,5.61,2.46,8.42,3.61,6.74,2.76,13.48,5.54,20.22,8.31,3.31,1.36,6.62,2.73,9.94,4.09.86-5.65,3.91-8.26,11.4-11.24,13.91-5.53,29.04-9.45,49.04-12.69,17.02-2.75,35.1-4.16,55.28-4.31h.16c9.07,0,14.48,5.6,14.49,14.99,0,36.4,0,72.8,0,109.2v34.58c0,1.08,0,2.15,0,3.23,0,2.42,0,4.85,0,7.27-.07,8.97-5.42,14.34-14.3,14.36-8.29.02-16.57.03-24.86.03s-16.32,0-24.48-.03c-8.26-.02-12.61-3.26-15-11.2l-.23-.77c-2.19,1.55-4.32,3.02-6.57,4.42-.13.08-.23.15-.29.2,0,.12.01.3.05.55,1.57,12.48-6.23,25.95-18.55,32.04-4.27,2.11-8.65,3.22-13.04,3.29-3.98,8.03-10.91,13.75-20.62,17-4.47,1.5-8.55,2.22-12.48,2.22-1.41,0-2.81-.1-4.19-.29-5.77,9.4-13.76,15.35-23.75,17.69-2.13.5-4.32.75-6.5.75-3.07,0-6.21-.5-9.33-1.49-5.66,3.7-12.08,5.58-19.08,5.58Zm-107.27-210c-4.96,24.27-11.83,50.56-21.64,82.75-.82,2.7-.56,3.28,1.03,4.8,3.98,3.8,7.86,7.8,11.61,11.66,5.55,5.72,11.28,11.63,17.32,16.85,14.14,12.22,29.13,24.01,43.63,35.41l4.53,3.56c6.76,5.32,13.89,10.47,20.78,15.45,2.5,1.8,4.99,3.61,7.48,5.43,4.27,3.12,8.99,5.41,14.07,6.81-1.26-1.29-2.52-2.58-3.78-3.86-8.09-8.27-16.46-16.83-24.67-25.27-3.22-3.3-4.46-7.23-3.6-11.36,1.08-5.18,4.43-8.84,9.44-10.3,1.17-.34,2.35-.52,3.5-.52,3.38,0,6.51,1.45,9.31,4.32l.71.73c9.91,10.15,20.16,20.64,30.35,30.85,4.12,4.12,8.55,8.1,12.74,11.82.65.58,1.37.85,2.25.85.38,0,.8-.05,1.24-.15,3.14-.71,5.46-2.36,7.18-5.12-5.24-5.29-10.57-10.62-15.74-15.79-3.9-3.9-7.8-7.8-11.69-11.71-3.47-3.48-7.17-7.25-10.81-11.19-3.39-3.67-4.6-8.53-3.24-12.99,1.33-4.36,4.92-7.63,9.6-8.75,1-.24,2.01-.36,2.99-.36,3.69,0,7.05,1.64,10.26,5,1.34,1.4,2.68,2.81,4.01,4.22,4.65,4.89,9.45,9.95,14.28,14.79,6.43,6.45,13.43,13.28,22.7,22.13.76.72,1.81,1.34,2.74,1.6.47.13,1.01.2,1.62.2,3.15,0,7.1-1.75,9.2-3.98-4.89-4.63-9.34-8.87-13.7-13.28-7.28-7.38-14.62-14.92-21.73-22.22-2.9-2.98-5.8-5.95-8.7-8.93-.45-.46-.92-.9-1.39-1.35-1.2-1.14-2.57-2.44-3.7-4.03-2.46-3.46-3.12-7.66-1.82-11.53,1.32-3.94,4.47-6.95,8.63-8.26,1.31-.41,2.63-.62,3.91-.62,4.86,0,8.23,2.91,10.34,5.1,6.54,6.78,13.25,13.62,19.74,20.24l1.48,1.51c4.92,5.02,10.01,10.21,15.08,15.25,4.54,4.52,8.39,8.27,12.44,11.91.56.51,1.31.83,1.57.87,2.84-.08,5.37-1.47,6.62-3.63,1.09-1.9,1.04-4.13-.16-6.3-1.84-3.35-3.98-6.38-6.37-9.02-10.59-11.74-23.05-22.09-35.1-32.1l-.8-.66c-6.06-5.03-12.31-10.06-18.36-14.92-11.95-9.6-24.29-19.52-35.86-30.1-.87.36-1.75.76-2.67,1.17-2.76,1.24-5.61,2.52-8.79,3.18-3.19.66-5.48,2.2-8.45,5.67-8.87,10.36-21.73,16.3-35.3,16.3-5.52,0-10.99-.96-16.28-2.87-12.88-4.64-19.68-15.46-18.2-28.95.91-8.27,3.49-16.11,7.67-23.32,3.7-6.39,7.5-11.93,11.62-16.96h-41.13Zm273.23,113.89c6.8,0,13.6,0,20.4,0h.65v-131.26c-.46,0-.92-.01-1.4-.01-18.5,0-58.8,6.53-72.4,11.35,11.67,26.27,21.41,53.47,29.41,76.67,4.31,12.49,8.49,25.25,12.53,37.58l1.85,5.66c3,0,5.99,0,8.97,0Zm-158.98-96.16c3.52,0,6.9,1.44,10.31,4.41,11.63,10.1,23.6,20.22,35.18,30.01l6.32,5.34c4.39,3.72,8.89,7.47,13.24,11.1,8.84,7.37,17.97,15,26.77,22.76,4.87,4.3,9.22,8.88,13.82,13.73,1.21,1.28,2.45,2.58,3.7,3.88,3.2-2.13,6.48-4.32,9.76-6.56-.68-1.96-1.37-3.93-2.05-5.89-3.37-9.71-6.86-19.75-10.46-29.54-6.21-16.89-12.68-33.85-18.94-50.26-.03-.04-.07-.1-.11-.14-5.49-2.14-11.09-4.26-16.51-6.32-7.83-2.97-15.93-6.05-23.86-9.22-5.21-2.08-10.43-4.34-15.46-6.53-5.98-2.6-12.17-5.28-18.31-7.64-5.79-2.23-11.39-3.35-16.66-3.35-6.93,0-13.46,1.97-19.42,5.85-18.79,12.25-31.96,25.94-40.26,41.85-2.59,4.96-3.74,8.84-3.72,12.6,0,.3.03.47.05.55.05.03.13.07.26.12,3.15,1.13,6.15,1.7,8.92,1.7,5.1,0,9.57-1.89,13.68-5.79,2.18-2.06,4.1-4.48,6.14-7.04l.96-1.2c2.33-2.91,5.33-4.72,9.16-5.52,4.23-.88,7.4-1.73,10.27-2.75,3.05-1.08,6-2.42,9.12-3.84.68-.31,1.36-.62,2.04-.93,2.04-.92,4.07-1.38,6.04-1.38Zm-186.59,78.63c5.94,0,12.77,0,19.63.03,1.99-6.98,3.99-13.96,6-20.93,4.4-15.31,8.94-31.13,13.25-46.73,4.94-17.89,8.77-35.51,11.38-52.38-.96-.29-1.9-.59-2.82-.89-2.11-.68-4.1-1.31-6.11-1.8-15.47-3.77-31.42-5.52-46.84-7.22-1.66-.18-3.32-.31-5.05-.44v130.35h10.56Z"/>
</svg>