<?xml version="1.0" encoding="UTF-8"?>
<svg id="Camada_1" data-name="Camada 1" xmlns="http://www.w3.org/2000/svg" viewBox="0 0 687.87 800">
  <defs>
    <style>
      .cls-1 {
        fill: #5268d7;
      }
    </style>
  </defs>
  <path class="cls-1" d="m.06,209.61c0-37.5,0-75,0-112.51,0-17.07,6.23-27.01,22.25-32.88,20.85-7.64,41.78-15.2,63.06-21.49,27.02-8,54.21-15.66,81.71-21.71,36.05-7.92,72.42-14.44,109.28-17.79,42.51-3.86,85.03-4.46,127.55-.72,36.45,3.21,72.45,9.44,108.3,16.7,51.71,10.48,102.02,25.67,151.39,44.14,11.39,4.26,20,11.12,22.84,23.51.78,3.4,1.19,6.95,1.2,10.43.07,74.09.56,148.19-.15,222.28-.38,40.18-6.78,79.76-16.7,118.75-13.47,52.96-34.41,102.7-63.53,148.95-13.67,21.72-28.68,42.5-45.33,62.05-25.92,30.44-54.64,57.93-86.97,81.53-26.42,19.28-53.85,36.97-83.5,50.92-12.22,5.75-24.8,10.74-37.21,16.08-7.51,3.23-14.85,2.59-22.32-.46-74.01-30.21-138.66-74.02-192.81-132.96-25.9-28.19-47.55-59.52-67.41-92.18-15.95-26.23-28.22-54.12-38.9-82.79-12.89-34.61-21.73-70.24-27.04-106.75C2.14,357.71-.15,332.6,0,307.27c.21-32.55.05-65.11.05-97.66Zm625.11,11.93c0-34.12-.06-68.23.09-102.35.01-3.22-1-4.53-3.95-5.43-11.55-3.53-23.06-7.21-34.54-10.99-32.89-10.83-66.62-18.45-100.48-25.27-21.01-4.23-42.28-7.52-63.58-9.78-24.17-2.57-48.51-4.67-72.79-4.86-24.54-.19-49.13,1.91-73.66,3.54-28.86,1.92-57.26,7.22-85.54,13.04-42.06,8.66-83.31,20.27-123.95,34.14-3.31,1.13-4.27,2.5-4.26,5.93.12,64.19-.23,128.39.28,192.58.16,20,1.59,40.1,4.11,59.94,6.14,48.48,20.56,94.63,41.72,138.67,19.69,40.98,45.08,78.06,75.89,111.55,44.34,48.21,96.47,85.37,156.41,111.63,1.73.76,4.39.67,6.13-.11,8.19-3.65,16.26-7.55,24.27-11.6,54.73-27.63,101.95-65.05,142.09-111.17,40.09-46.06,69.32-98.48,88.21-156.64,15.81-48.66,23.73-98.49,23.57-149.64-.09-27.73-.02-55.47-.02-83.21Z"/>
  <g>
    <path class="cls-1" d="m344.16,249.36c15.96-.18,31.53,2.52,46.82,6.73,30.49,8.39,58.07,22.84,83.72,41.07,27.65,19.66,52.62,42.32,75.08,67.73,3.5,3.96,6.83,8.09,10.13,12.23,5.66,7.12,5.7,12.88-.24,19.84-6.92,8.1-13.89,16.19-21.24,23.9-15.02,15.76-30.9,30.63-48.22,43.89-15.81,12.1-32.06,23.54-49.8,32.72-21.31,11.02-43.48,19.61-67.23,23.88-16.92,3.05-33.89,3.7-50.89,1.32-23.29-3.26-45.3-10.74-66.33-21.13-23.26-11.49-44.72-25.71-64.83-42.1-23.23-18.93-44.28-39.98-63.37-63.02-5.26-6.35-5.41-12.67-.2-19.06,11-13.49,22.85-26.2,35.34-38.33,17.14-16.64,35.38-31.95,55.24-45.23,22.73-15.2,46.74-27.88,73.03-36.03,17.3-5.37,34.93-8.1,52.98-8.41Zm-188.57,137.34c.56.7.91,1.14,1.28,1.58,15.33,18.17,32.69,34.28,50.84,49.54,14.92,12.54,30.95,23.54,48.04,33.01,17.86,9.9,36.43,17.73,56.45,22.21,19.46,4.35,38.89,4.4,58.43,1.12,14.06-2.36,27.39-7.06,40.35-12.86,24.31-10.88,46.64-24.95,67.14-41.92,12.85-10.64,25.55-21.46,37.07-33.55,5.86-6.15,11.47-12.54,17.23-18.86-.44-.58-.68-.93-.95-1.25-10.03-11.89-20.76-23.08-32.3-33.52-23.16-20.96-47.81-39.82-75.72-54.17-20.86-10.73-42.67-18.32-66.16-20.5-16.76-1.56-33.31-.23-49.65,3.84-24.96,6.21-47.49,17.82-68.94,31.53-26.69,17.05-50.09,38.1-71.92,60.92-3.9,4.07-7.41,8.51-11.21,12.9Z"/>
    <path class="cls-1" d="m344.22,469.08c-33.52-.14-63.82-19.83-76.48-50.85-9.26-22.68-8.96-45.54,2.06-67.48,10.77-21.45,27.77-36.15,51.2-43.06,14.98-4.42,29.95-4.33,44.95-.66,26,6.37,45.18,21.69,58.14,44.93,4.06,7.29,2.6,14.45-3.53,18.55-2.89,1.93-6.14,2.54-9.6,2.52-5.58-.03-10.64,3.8-11.65,9.24-.93,5.07-.82,10.15,2.95,14.36,2.1,2.35,4.7,3.66,7.87,3.86,2.14.14,4.34.11,6.4.62,7.68,1.91,12.09,10.85,9.1,16.68-2.82,5.5-5.81,11.03-9.54,15.93-15.14,19.87-35.46,31.04-60.1,34.58-2.2.32-4.4.59-6.61.74-1.71.12-3.44.02-5.16.02Z"/>
  </g>
</svg>