<?xml version="1.0" encoding="UTF-8"?>
<svg id="Camada_1" data-name="Camada 1" xmlns="http://www.w3.org/2000/svg" viewBox="0 0 687.87 800">
  <defs>
    <style>
      .cls-1 {
        fill: #5268d7;
      }
    </style>
  </defs>
  <path class="cls-1" d="m.06,209.61c0-37.5,0-75,0-112.51,0-17.07,6.23-27.01,22.25-32.88,20.85-7.64,41.78-15.2,63.06-21.49,27.02-8,54.21-15.66,81.71-21.71,36.05-7.92,72.42-14.44,109.28-17.79,42.51-3.86,85.03-4.46,127.55-.72,36.45,3.21,72.45,9.44,108.3,16.7,51.71,10.48,102.02,25.67,151.39,44.14,11.39,4.26,20,11.12,22.84,23.51.78,3.4,1.19,6.95,1.2,10.43.07,74.09.56,148.19-.15,222.28-.38,40.18-6.78,79.76-16.7,118.75-13.47,52.96-34.41,102.7-63.53,148.95-13.67,21.72-28.68,42.5-45.33,62.05-25.92,30.44-54.64,57.93-86.97,81.53-26.42,19.28-53.85,36.97-83.5,50.92-12.22,5.75-24.8,10.74-37.21,16.08-7.51,3.23-14.85,2.59-22.32-.46-74.01-30.21-138.66-74.02-192.81-132.96-25.9-28.19-47.55-59.52-67.41-92.18-15.95-26.23-28.22-54.12-38.9-82.79-12.89-34.61-21.73-70.24-27.04-106.75C2.14,357.71-.15,332.6,0,307.27c.21-32.55.05-65.11.05-97.66Zm625.11,11.93c0-34.12-.06-68.23.09-102.35.01-3.22-1-4.53-3.95-5.43-11.55-3.53-23.06-7.21-34.54-10.99-32.89-10.83-66.62-18.45-100.48-25.27-21.01-4.23-42.28-7.52-63.58-9.78-24.17-2.57-48.51-4.67-72.79-4.86-24.54-.19-49.13,1.91-73.66,3.54-28.86,1.92-57.26,7.22-85.54,13.04-42.06,8.66-83.31,20.27-123.95,34.14-3.31,1.13-4.27,2.5-4.26,5.93.12,64.19-.23,128.39.28,192.58.16,20,1.59,40.1,4.11,59.94,6.14,48.48,20.56,94.63,41.72,138.67,19.69,40.98,45.08,78.06,75.89,111.55,44.34,48.21,96.47,85.37,156.41,111.63,1.73.76,4.39.67,6.13-.11,8.19-3.65,16.26-7.55,24.27-11.6,54.73-27.63,101.95-65.05,142.09-111.17,40.09-46.06,69.32-98.48,88.21-156.64,15.81-48.66,23.73-98.49,23.57-149.64-.09-27.73-.02-55.47-.02-83.21Z"/>
  <g>
    <path class="cls-1" d="m215.69,521.99c-11.18,0-15.26-6.88-16.7-10.98-1.66-4.73-.91-10.06,2-14.27,2.97-4.29,7.83-6.92,13.01-7.04.86-.02,1.72-.03,2.58-.03,1,0,1.99,0,2.99.02.95,0,1.9.02,2.85.02h64.32c17.7,0,35.4,0,53.11.02h.3c14.27,0,25.67-1.45,35.87-4.57,14.47-4.42,27.89-11.63,39.88-21.44,14.21-11.62,25.02-26.2,32.13-43.33,4.76-11.46,7.54-23.46,8.27-35.65.95-15.98-.91-30.35-5.69-43.93-7.19-20.41-18.92-37.27-34.87-50.11-.67-.54-1.34-1.06-2.02-1.58-.54,1.08-1.21,2.12-2.01,3.08-3.08,3.73-7.52,5.86-12.19,5.86-1.05,0-2.1-.11-3.13-.33-6.53-1.39-11.03-5.57-12.67-11.76-.74-2.77-1.48-5.53-2.22-8.3-1.47-5.46-2.99-11.11-4.42-16.7-2.31-9.04,2.31-17.1,11.25-19.61,8.5-2.38,17.1-4.67,25.57-6.81,1.34-.34,2.7-.51,4.05-.51,7.04,0,13.14,4.59,15.18,11.43,1.64,5.48.25,11.12-3.29,15.15,15.62,11.47,28.86,26.28,39.42,44.13,9.2,15.54,15.33,33.18,18.22,52.43,2.28,15.17,1.97,30.5-.92,45.58-3.05,15.89-7.67,29.5-14.13,41.6-12.04,22.56-29.22,41.14-51.08,55.21-16.61,10.7-35.43,17.66-55.95,20.7-7.18,1.06-14.38,1.61-21.41,1.64-24.91.08-49.52.09-68.17.09-10.21,0-60.14-.01-60.14-.01Z"/>
    <path class="cls-1" d="m344.12,466.82c-48.51,0-87.87-37.97-89.6-86.45-.86-24.19,7.88-47.17,24.62-64.69,16.78-17.56,40.31-27.76,64.57-28,49.21.06,88.7,38.32,89.99,87.09.64,24.28-8.17,47.2-24.79,64.55-16.63,17.35-39.12,27.11-63.32,27.49-.49,0-.98.01-1.47.01Zm-.07-146.83c-.96,0-1.94.02-2.91.07-31.22,1.48-55.6,28.31-54.35,59.8,1.2,30.16,26.85,54.7,57.19,54.71.44,0,.89,0,1.33-.02,15.4-.28,30.29-6.94,40.89-18.26,10.54-11.26,15.91-26.29,15.14-42.32-1.46-30.27-26.63-53.98-57.29-53.98Z"/>
    <path class="cls-1" d="m254.3,485.25c-4.24,0-8.31-1.7-11.48-4.79-6.23-6.09-12.17-13.05-17.65-20.69-12.92-18.02-21.42-38.41-25.27-60.61-1.94-11.21-2.35-22.71-1.21-34.19,1.32-13.32,3.79-24.84,7.55-35.21,6.3-17.38,15.82-33.38,28.29-47.54,8.99-10.21,18.25-18.36,28.31-24.94,9.21-6.02,18.91-11.01,28.84-14.84,11.86-4.58,24.61-7.64,37.9-9.1,2.39-.26,4.74-.39,6.81-.5.84-.05,1.66-.09,2.42-.14l.23-.02h.23c.71,0,1.37-.02,1.99-.04.7-.02,1.36-.04,2-.04,1.13,0,2.09.06,3.02.19,9.54,1.32,14.24,9.4,13.95,16.7-.34,8.66-6.88,15.01-15.9,15.45l-1.26.06c-5.37.26-10.43.5-15.48,1.11-9.33,1.11-18.58,3.68-28.3,7.84-16.05,6.87-30.06,17.06-41.62,30.29-5.4,6.18-10.29,13.59-15.41,23.31-5.27,10.03-8.8,21-10.49,32.61-2.84,19.53-.87,38.26,5.87,55.67,5.63,14.56,14.03,27.67,24.95,38.96l.63.64c.85.88,1.74,1.79,2.61,2.76,6.04,6.74,5.86,16.42-.43,22.5-3.03,2.93-6.96,4.54-11.09,4.54Z"/>
    <path class="cls-1" d="m490.9,540.87c-7.55,0-13.99-5.32-15.67-12.94-.44-2-.47-4.01-.09-5.95h-26.01c-7.23,0-11.39-3.3-13.61-6.08-4.15-5.19-4.92-11.21-2.17-16.96,2.8-5.85,8.18-9.22,14.74-9.25,3.31-.01,6.62-.02,9.93-.02,4.88,0,9.76,0,14.64.02h2.37c-.13-1.02-.17-2.06-.09-3.12.43-6.35,4-11.42,9.78-13.9,2.21-.95,4.45-1.43,6.66-1.43,3.94,0,7.58,1.5,10.51,4.34,7.15,6.92,14.06,13.93,19.28,19.26,6.04,6.17,6.15,15.52.24,21.75-6.01,6.34-12.43,13.06-18.99,19.46-3.18,3.1-7.27,4.81-11.51,4.81Z"/>
    <path class="cls-1" d="m334.97,421.59c-3.17,0-7.96-1-12.73-5.78-1.66-1.66-3.33-3.32-4.99-4.97-3.82-3.8-7.77-7.73-11.61-11.68-2.23-2.29-3.84-4.71-4.81-7.2-2.72-7.03-.05-15.01,6.52-19.41,2.74-1.83,5.95-2.8,9.28-2.8,4.1,0,7.96,1.49,10.88,4.19,2.65,2.45,5.18,5.01,7.63,7.49l17-17.16,2.07-2.09c1.81-1.83,3.67-3.73,5.57-5.58,3.46-3.38,7.58-5.16,11.92-5.16,1.62,0,3.28.25,4.92.74,6.26,1.89,10.38,6.58,11.58,13.23.7,3.82.39,9.51-5.01,14.91-7.68,7.69-26.46,26.47-26.46,26.47-3.05,3.06-6.1,6.11-9.17,9.15-4.72,4.67-9.44,5.64-12.58,5.65Z"/>
  </g>
</svg>