<svg width="50" height="50" viewBox="0 0 50 50" fill="none" xmlns="http://www.w3.org/2000/svg">
<path d="M25 0C11.1883 0 -0.00832868 11.2017 4.64866e-06 25.0133C0.00833798 38.8533 11.3983 50 25.24 50H47.5C48.88 50 50 48.88 50 47.5V25C50 11.1933 38.8083 0 25 0ZM25 41.6667C15.775 41.6667 8.30167 34.185 8.335 24.93C8.36667 15.7617 15.77 8.345 24.985 8.33333C34.25 8.32167 41.7433 15.8317 41.6683 25.1433C41.595 34.25 34.2133 41.645 25.0017 41.6667H25Z" fill="#E0F6F9"/>
<path d="M24.9767 32.3917C21.895 32.3917 18.8117 32.3917 15.73 32.3917C15.1467 32.3917 14.7983 32.045 14.7983 31.465C14.7983 27.1583 14.7983 22.8517 14.7983 18.545C14.7983 17.9517 15.1433 17.61 15.7417 17.61C21.9117 17.61 28.0833 17.61 34.2533 17.61C34.85 17.61 35.195 17.9533 35.195 18.5467C35.195 22.8467 35.195 27.1483 35.195 31.4483C35.195 32.0533 34.8533 32.3917 34.2417 32.3917C31.1533 32.3917 28.065 32.3917 24.9767 32.3917ZM24.995 25.8383C27.3667 23.7667 29.7233 21.7083 32.095 19.635H17.8933C20.2733 21.7133 22.6283 23.7717 24.995 25.8383ZM22.9733 26.3C21.3367 27.76 19.715 29.205 18.0733 30.6683H31.9717C30.3133 29.19 28.6817 27.7366 27.0467 26.2783C26.99 26.3233 26.945 26.3567 26.9033 26.3933C26.4717 26.77 26.04 27.15 25.6067 27.5267C25.205 27.8767 24.7833 27.8783 24.385 27.5317C23.9183 27.1267 23.455 26.72 22.975 26.3017L22.9733 26.3ZM16.485 29.8383C18.235 28.2783 19.9633 26.7367 21.7017 25.1883C19.955 23.6633 18.23 22.1567 16.485 20.6317V29.8383ZM33.5117 20.6217C31.7633 22.15 30.0417 23.6533 28.3117 25.165C30.0533 26.7167 31.77 28.2466 33.5117 29.7983V20.6217Z" fill="#E0F6F9"/>
</svg>
