<svg width="50" height="50" viewBox="0 0 50 50" fill="none" xmlns="http://www.w3.org/2000/svg">
<path d="M25 0C11.1883 0 -0.00832868 11.2017 4.64866e-06 25.0133C0.00833798 38.8533 11.3983 50 25.24 50H47.5C48.88 50 50 48.88 50 47.5V25C50 11.1933 38.8083 0 25 0ZM41.63 26.4883C41.58 27.3733 41.4567 28.2483 41.265 29.1133C40.8567 30.9617 40.1783 32.6983 39.21 34.3167C38.1567 36.0783 36.8333 37.5983 35.24 38.8733C34.02 39.8483 32.6917 40.6383 31.2533 41.2333C30.9033 41.3783 30.5483 41.51 30.19 41.6283C29.9783 41.6983 29.7567 41.6717 29.555 41.5667C29.2767 41.4217 29.14 41.1783 29.14 40.8667C29.14 39.8133 29.15 38.76 29.155 37.7067C29.1567 37.1433 29.1667 36.58 29.155 36.015C29.14 35.1833 29.0267 34.37 28.5883 33.645C28.4483 33.4133 28.2567 33.2133 28.0883 32.9983C28.075 32.98 28.0617 32.9617 28.0567 32.9567C28.6533 32.8517 29.25 32.7667 29.8383 32.6367C30.7717 32.43 31.6617 32.0967 32.4817 31.585C33.6 30.8867 34.4 29.915 34.9167 28.695C35.19 28.05 35.3733 27.3767 35.4767 26.685C35.6367 25.6283 35.7083 24.565 35.5767 23.5017C35.4483 22.4633 35.1067 21.495 34.4883 20.645C34.325 20.42 34.1467 20.2067 33.98 19.9833C33.9567 19.9533 33.9433 19.895 33.9567 19.8617C34.1083 19.4767 34.185 19.075 34.2267 18.6633C34.31 17.8583 34.2467 17.065 34.0483 16.2833C33.9783 16.01 33.88 15.7433 33.7883 15.4767C33.7767 15.4417 33.7217 15.405 33.6817 15.4017C33.14 15.3383 32.615 15.4367 32.1033 15.6067C31.0933 15.9417 30.1767 16.4667 29.3033 17.075C29.215 17.1367 29.14 17.14 29.0467 17.1183C28.6867 17.035 28.3283 16.9333 27.9633 16.875C27.42 16.7883 26.8733 16.7317 26.3267 16.6617C25.6 16.5683 24.8683 16.5633 24.14 16.62C23.57 16.665 22.9983 16.73 22.4333 16.8183C21.96 16.8933 21.4917 17.0083 21.0233 17.1167C20.895 17.1467 20.8 17.1283 20.6933 17.0533C19.8233 16.4483 18.9067 15.93 17.9017 15.595C17.3967 15.4267 16.8767 15.3483 16.3433 15.3883C16.305 15.3917 16.2467 15.4267 16.2367 15.46C16.1033 15.9283 15.945 16.3933 15.8567 16.8717C15.7433 17.4883 15.7383 18.115 15.81 18.7417C15.8517 19.1067 15.9267 19.46 16.0533 19.8033C16.085 19.8917 16.0817 19.955 16.0133 20.0333C15.2717 20.8983 14.7617 21.885 14.5317 23.0133C14.3733 23.785 14.3667 24.565 14.4083 25.3467C14.4517 26.175 14.565 26.9917 14.7917 27.79C15.06 28.7333 15.4767 29.6 16.1083 30.35C16.7683 31.1367 17.5833 31.705 18.5167 32.1067C19.3267 32.4567 20.17 32.6783 21.04 32.8017C21.345 32.845 21.6483 32.8917 21.98 32.9417C21.92 32.995 21.8667 33.0367 21.8217 33.0867C21.3 33.6717 21.0383 34.3717 20.94 35.145C20.935 35.1833 20.9067 35.2367 20.8767 35.25C20.4817 35.4167 20.0767 35.5583 19.6517 35.625C18.21 35.85 17.0767 35.3417 16.2667 34.115C15.9933 33.7017 15.7317 33.2833 15.37 32.94C14.98 32.5667 14.54 32.2783 14.0167 32.1433C13.6983 32.0617 13.375 32.045 13.0517 32.125C13.045 32.1267 13.0367 32.1267 13.03 32.13C12.7083 32.2467 12.6367 32.3967 12.8617 32.6517C12.9933 32.8 13.14 32.9483 13.3083 33.0483C14.1883 33.575 14.7183 34.385 15.1117 35.3067C15.2917 35.7283 15.4633 36.1467 15.7733 36.495C16.3867 37.185 17.145 37.595 18.0433 37.7467C18.4667 37.8183 18.8917 37.8833 19.32 37.8367C19.8083 37.7833 20.295 37.7017 20.7817 37.6317C20.7917 37.6317 20.8033 37.6317 20.83 37.6317C20.8367 37.68 20.8483 37.7283 20.8483 37.775C20.8583 38.735 20.8667 39.695 20.8717 40.655C20.8717 40.7817 20.8667 40.9133 20.8383 41.0367C20.75 41.4467 20.385 41.7117 19.965 41.645C19.7233 41.6067 19.4867 41.5183 19.255 41.4317C18.185 41.0367 17.1717 40.52 16.2083 39.9083C15.16 39.2433 14.2 38.4633 13.3233 37.5783C11.9133 36.1583 10.7917 34.5333 9.94167 32.7117C9.43 31.6133 9.04834 30.47 8.77334 29.2883C8.61667 28.6117 8.51334 27.9267 8.435 27.235C8.305 26.1017 8.30334 24.9683 8.4 23.8367C8.47834 22.9133 8.64667 22 8.87834 21.1C9.24334 19.685 9.77167 18.3383 10.47 17.06C11.055 15.99 11.7483 14.9967 12.5367 14.0717C13.3267 13.145 14.2217 12.335 15.1917 11.61C16.6333 10.5317 18.2083 9.71333 19.9133 9.15333C20.8417 8.84833 21.7867 8.62167 22.7533 8.485C23.9633 8.31167 25.1767 8.295 26.3917 8.38667C27.095 8.44 27.7933 8.555 28.485 8.71C30.5867 9.18167 32.5283 10.025 34.3133 11.2467C35.5483 12.0917 36.6483 13.0917 37.615 14.2417C38.5567 15.3633 39.35 16.5883 39.98 17.9183C40.5883 19.2033 41.045 20.5433 41.3133 21.9433C41.4167 22.4867 41.4983 23.0367 41.5667 23.5867C41.6867 24.55 41.6817 25.5183 41.6267 26.485L41.63 26.4883Z" fill="#E0F6F9"/>
</svg>
