<svg width="50" height="50" viewBox="0 0 50 50" fill="none" xmlns="http://www.w3.org/2000/svg">
<path d="M31.6484 11.4801C27.2234 11.4734 22.7984 11.4784 18.3751 11.4801C17.6417 11.4801 16.9234 11.5817 16.2284 11.8167C13.3217 12.8017 11.4834 15.3784 11.4834 18.4534C11.4834 22.8601 11.4834 27.2651 11.4834 31.6717C11.4834 32.6234 11.6534 33.5484 12.0634 34.4067C13.3317 37.0584 15.4434 38.4617 18.3851 38.52C20.5901 38.565 22.7951 38.5284 25.0001 38.5284C27.2051 38.5284 29.3951 38.5284 31.5934 38.5284C35.4551 38.5284 38.5151 35.4734 38.5201 31.6067C38.5251 27.1934 38.5251 22.7801 38.5201 18.3667C38.5151 14.5534 35.4551 11.4851 31.6501 11.4801H31.6484ZM25.0251 33.2117C20.5784 33.1851 16.9084 29.4584 16.9267 24.9901C16.9467 20.4501 20.6417 16.7684 25.1584 16.7901C29.6817 16.8117 33.3567 20.5051 33.3417 25.0151C33.3267 29.5884 29.6217 33.2401 25.0234 33.2117H25.0251ZM33.7984 18.1967C32.7184 18.1867 31.8384 17.2901 31.8584 16.2184C31.8784 15.1351 32.7667 14.2734 33.8484 14.2884C34.9201 14.3034 35.7851 15.1867 35.7734 16.2567C35.7634 17.3417 34.8817 18.2067 33.7984 18.1967Z" fill="#E0F6F9"/>
<path d="M25 0C11.1883 0 -0.00832868 11.2017 4.64866e-06 25.0133C0.00833798 38.8533 11.3983 50 25.24 50H47.5C48.88 50 50 48.88 50 47.5V25C50 11.1933 38.8083 0 25 0ZM41.6567 31.7317C41.6133 36.755 37.8833 40.9517 32.9083 41.5883C32.4833 41.6433 32.0517 41.6633 31.6233 41.6633C27.2067 41.6683 22.79 41.6683 18.3733 41.6667C13.28 41.665 9.03334 37.905 8.41167 32.8417C8.35834 32.41 8.34334 31.97 8.34334 31.5333C8.33834 27.1783 8.32167 22.8233 8.34667 18.47C8.36834 14.7267 9.98667 11.8317 13.1317 9.815C14.7333 8.78833 16.5183 8.33333 18.4183 8.33333C22.7767 8.33333 27.135 8.33333 31.495 8.33333C34.5467 8.33333 37.1167 9.45166 39.1483 11.73C40.8083 13.5917 41.6367 15.8 41.6567 18.2933C41.675 20.5283 41.66 22.765 41.66 25C41.66 27.2433 41.6767 29.485 41.6567 31.7283V31.7317Z" fill="#E0F6F9"/>
<path d="M25.1965 19.7483C22.2981 19.7133 19.9148 22.0516 19.8831 24.9616C19.8515 27.8333 22.1981 30.2233 25.0765 30.2516C27.9865 30.28 30.3581 27.9533 30.3898 25.04C30.4215 22.1683 28.0815 19.7833 25.1965 19.7483Z" fill="#E0F6F9"/>
</svg>
